<svg width="349" height="96" viewBox="0 0 349 96" fill="none" xmlns="http://www.w3.org/2000/svg">
<path d="M253.1 26.34C252.063 27.1733 250.854 27.7674 249.56 28.08C246.01 28.87 236.56 28.47 234.96 32.81C234.449 34.1123 233.652 35.2838 232.63 36.2389C231.607 37.1939 230.384 37.9084 229.05 38.33C229.05 38.33 221.56 38.73 221.16 40.33C220.76 41.93 218.01 44.67 218.01 44.67H347C347 44.67 351.34 37.97 344.24 31.67C338.03 26.15 326.68 34.51 325.24 27.67" stroke="#263238" stroke-linecap="round" stroke-linejoin="round"/>
<path d="M324.07 17.63C322.63 12.44 319.6 5.43998 313.45 2.83998C303.19 -1.50002 294.52 4.41998 292.15 10.33C289.78 16.24 288.21 20.19 279.15 15.06C270.09 9.92998 262.15 10.33 259.43 17.06C258.645 19.0083 257.664 20.8714 256.5 22.62" stroke="#263238" stroke-linecap="round" stroke-linejoin="round"/>
<path d="M34.0498 95.0999H78.8398C78.8398 95.0999 81.4598 91.0999 77.1698 87.2299C72.8798 83.3599 64.5198 90.5699 65.7198 82.4599C65.7198 82.4599 64.7198 72.4599 58.5598 69.8199C56.9744 69.0938 55.2267 68.7948 53.49 68.9526C51.7534 69.1105 50.0883 69.7198 48.6598 70.7199" stroke="#263238" stroke-linecap="round" stroke-linejoin="round"/>
<path d="M45.68 74.35C44.25 77.93 43.29 80.35 37.81 77.21C32.33 74.07 27.55 74.35 25.88 78.41C24.21 82.47 22.06 84.61 19.88 85.08C17.7 85.55 12.01 85.32 11.05 87.95C10.7383 88.7373 10.2554 89.4455 9.63619 90.0231C9.01701 90.6008 8.27709 91.0335 7.47004 91.29C7.47004 91.29 2.94004 91.52 2.70004 92.48C2.22295 93.4592 1.57631 94.3462 0.790039 95.1H27" stroke="#263238" stroke-linecap="round" stroke-linejoin="round"/>
<path d="M258.25 95.1H279.4C279.4 95.1 282.02 91.1 277.73 87.23C273.44 83.36 265.09 90.57 266.28 82.46C266.28 82.46 265.33 72.46 259.12 69.82C252.91 67.18 247.68 70.82 246.24 74.35C244.8 77.88 243.86 80.35 238.37 77.21C232.88 74.07 228.11 74.35 226.45 78.41C224.79 82.47 222.63 84.61 220.45 85.08C218.27 85.55 212.58 85.32 211.63 87.95C211.317 88.7366 210.834 89.4441 210.215 90.0216C209.596 90.5991 208.856 91.0323 208.05 91.29C208.05 91.29 203.52 91.52 203.28 92.48C202.803 93.4592 202.156 94.3462 201.37 95.1H251.19" stroke="#263238" stroke-linecap="round" stroke-linejoin="round"/>
</svg>
