<svg width="267" height="75" fill="none" xmlns="http://www.w3.org/2000/svg"><path d="M236.187 69.694l-.457 4.102 7.975-9.323c.954.1 1.913.15 2.872.152m-20.381-23.223a11.967 11.967 0 00-1.917 5.274c-.756 6.815 4.589 13.261 12.664 16.244l-.41 3.662m-7.238-28.573c-.519.42-1.012.873-1.476 1.354m31.386-1.353a26.324 26.324 0 00-12.242-4.478 26.017 26.017 0 00-13.63 2.004m18.793 28.538c7.618-1.576 13.39-6.446 14.064-12.763.492-4.418-1.576-8.678-5.274-11.948" stroke="#263238" stroke-linecap="round" stroke-linejoin="round"/><path d="M233.339 42.539a4.976 4.976 0 003.739-.797l2.848 2.209c-.2.065-.182-.357.029-.37.211-.01.369.182.515.335.669.709 1.794.732 2.749.527.955-.205 1.887-.586 2.86-.55.578.06 1.147.192 1.693.392 3.915 1.213 7.987 1.823 12.042 2.42m-29.839 0c.586-.035 3.85 0 4.319-.392l.797 1.388.879-.85c.152.587.305 1.173.451 1.724.662.158.586-1.12 1.172-1.5a.799.799 0 011.037.31c.193.36.286.764.27 1.172l4.008.328.78.065a2.277 2.277 0 011.172-.909c-.147.926 1.019 1.454 1.945 1.641a251.45 251.45 0 0013.748 2.409m-28.796.979c.369.257.82-.224 1.271-.282.452-.059.821.281 1.219.486.399.205 1.055.117 1.078-.328.094.586.821.797 1.413.88l15.388 2.161M25.848 33.051l6.165 8.298-1.237-10.858a28.571 28.571 0 004.214-2.514c6.317-4.571 8.86-11.925 6.545-17.85-1.623-4.137-5.426-6.95-10.231-8.116M1.5 19.96c-.192 1.88.065 3.777.75 5.538 2.496 6.387 10.22 9.61 18.752 8.497M2.666 15.512a16.904 16.904 0 00-.674 1.887M29.153 1.613a26.294 26.294 0 00-12.927 1.71 26.007 26.007 0 00-11.134 8.11" stroke="#263238" stroke-linecap="round" stroke-linejoin="round"/><path d="M8.35 17.64a4.993 4.993 0 002.93-2.438l3.516.633c-.152.146-.328-.235-.146-.346.181-.111.41 0 .586.059.925.316 1.927-.182 2.678-.81.75-.626 1.394-1.405 2.28-1.816a7.192 7.192 0 011.681-.445c4.032-.738 7.917-2.098 11.79-3.452M7.307 22.896c.522-.31 3.41-1.793 3.645-2.344l1.354.861c.129-.386.257-.779.38-1.172l1.202 1.319c.662-.164 0-1.26.316-1.858a.792.792 0 011.06-.205c.336.225.604.534.78.897l3.698-1.57.727-.305c.041-.504.247-.98.586-1.354.304.896 1.582.815 2.484.55a240.078 240.078 0 0013.297-4.254m-24.993 14.24c.45.059.627-.586.996-.843.369-.258.861-.124 1.307-.135.445-.012.99-.381.802-.786.358.475 1.102.323 1.659.123l14.65-5.244" stroke="#263238" stroke-linecap="round" stroke-linejoin="round"/></svg>