<svg width="293" height="293" fill="none" xmlns="http://www.w3.org/2000/svg"><path d="M218.537 52.517H72.424a5.151 5.151 0 00-5.151 5.151v131.628a5.152 5.152 0 005.15 5.151h146.114a5.151 5.151 0 005.151-5.151V57.668a5.15 5.15 0 00-5.151-5.15z" fill="#fff"/><path opacity=".2" d="M223.688 130.262v59.186a4.997 4.997 0 01-4.993 4.998H72.271a4.996 4.996 0 01-4.998-4.998v-11.72h.31v7.899a5.715 5.715 0 005.72 5.714h141.454a5.728 5.728 0 004.044-1.672 5.706 5.706 0 001.676-4.042V139.04a3.98 3.98 0 00-3.979-3.979H67.273v-4.799h156.415z" fill="#000"/><path d="M218.537 52.517H72.424a5.151 5.151 0 00-5.151 5.151v131.628a5.152 5.152 0 005.15 5.151h146.114a5.151 5.151 0 005.151-5.151V57.668a5.15 5.15 0 00-5.151-5.15z" stroke="#263238" stroke-linecap="round" stroke-linejoin="round"/><path d="M210.069 147.115v-6.78a2.49 2.49 0 00-.733-1.775 2.496 2.496 0 00-1.775-.733H83.4a2.506 2.506 0 00-2.509 2.508v6.78a2.51 2.51 0 01-2.508 2.508 2.512 2.512 0 00-2.513 2.514v13.379a11.633 11.633 0 0011.632 11.632 1.871 1.871 0 011.869 1.869v4.008a5.578 5.578 0 005.579 5.579h101.06a5.58 5.58 0 005.579-5.579v-4.008c0-.496.197-.971.547-1.322.351-.35.827-.547 1.322-.547a11.629 11.629 0 0010.747-7.181c.585-1.411.885-2.924.885-4.451v-13.379a2.514 2.514 0 00-2.508-2.514 2.514 2.514 0 01-2.514-2.508z" fill="#263238"/><path d="M90.402 141.666H86.06a2.003 2.003 0 00-2.004 2.004v1.113c0 2.309 1.87 5.239 4.178 5.239 2.309 0 4.178-2.93 4.178-5.239v-1.113a2.012 2.012 0 00-2.01-2.004v0zm10.39 0H96.45a2.008 2.008 0 00-2.01 2.004v1.113c0 2.309 1.87 5.239 4.178 5.239 2.309 0 4.178-2.93 4.178-5.239v-1.113a2 2 0 00-2.004-2.004v0zm10.431 0h-4.342a2.005 2.005 0 00-2.005 2.004v1.113c0 2.309 1.87 5.239 4.173 5.239s4.178-2.93 4.178-5.239v-1.113a2 2 0 00-2.004-2.004v0zm10.407 0h-4.342a2.003 2.003 0 00-2.004 2.004v1.113c0 2.309 1.869 5.239 4.178 5.239s4.172-2.93 4.172-5.239v-1.113a2.012 2.012 0 00-2.004-2.004v0zm10.408 0h-4.343a2.004 2.004 0 00-2.004 2.004v1.113c0 2.309 1.869 5.239 4.178 5.239s4.179-2.93 4.179-5.239v-1.113a2.013 2.013 0 00-2.01-2.004v0zm10.413 0h-4.343a2.008 2.008 0 00-2.009 2.004v1.113c0 2.309 1.869 5.239 4.178 5.239s4.178-2.93 4.178-5.239v-1.113a2 2 0 00-2.004-2.004v0zm10.407 0h-4.342a2.003 2.003 0 00-2.004 2.004v1.113c0 2.309 1.869 5.239 4.172 5.239s4.178-2.93 4.178-5.239v-1.113a2 2 0 00-2.004-2.004v0zm10.408 0h-4.343a2.004 2.004 0 00-2.004 2.004v1.113c0 2.309 1.87 5.239 4.178 5.239 2.309 0 4.173-2.93 4.173-5.239v-1.113a2 2 0 00-2.004-2.004v0zm10.407-.001h-4.319a2 2 0 00-1.851 1.238 1.996 1.996 0 00-.153.767v1.113c0 2.309 1.869 5.239 4.178 5.239s4.178-2.93 4.178-5.239v-1.113c0-.266-.054-.529-.157-.773a1.996 1.996 0 00-1.876-1.232v0zm10.413.001h-4.342a2.006 2.006 0 00-2.01 2.004v1.113c0 2.309 1.869 5.239 4.178 5.239s4.178-2.93 4.178-5.239v-1.113a2 2 0 00-2.004-2.004v0zm10.407 0h-4.342a2.004 2.004 0 00-2.004 2.004v1.113c0 2.309 1.869 5.239 4.172 5.239s4.179-2.93 4.179-5.239v-1.113a2.005 2.005 0 00-2.005-2.004v0zm10.408-.001h-4.342a2.01 2.01 0 00-1.418.587 2.01 2.01 0 00-.587 1.418v1.113c0 2.303 1.858 5.233 4.202 5.233s4.172-2.93 4.172-5.239v-1.113a2 2 0 00-2.027-1.999v0zM90.402 163.723H86.06a2.003 2.003 0 00-2.004 2.004v1.113c0 2.309 1.87 5.239 4.178 5.239 2.309 0 4.178-2.93 4.178-5.239v-1.113a2.012 2.012 0 00-2.01-2.004v0zm10.39 0H96.45a2.008 2.008 0 00-2.01 2.004v1.113c0 2.309 1.87 5.239 4.178 5.239 2.309 0 4.178-2.93 4.178-5.239v-1.113a2 2 0 00-2.004-2.004v0zm10.431 0h-4.342a2.005 2.005 0 00-2.005 2.004v1.113c0 2.309 1.87 5.239 4.173 5.239s4.178-2.93 4.178-5.239v-1.113a2 2 0 00-2.004-2.004v0zm10.407 0h-4.342a2.003 2.003 0 00-2.004 2.004v1.113c0 2.309 1.869 5.239 4.178 5.239s4.172-2.93 4.172-5.239v-1.113a2.012 2.012 0 00-2.004-2.004v0zm10.408 0h-4.343a2.004 2.004 0 00-2.004 2.004v1.113c0 2.309 1.869 5.239 4.178 5.239s4.179-2.93 4.179-5.239v-1.113a2.013 2.013 0 00-2.01-2.004v0zm10.413 0h-4.343a2.008 2.008 0 00-2.009 2.004v1.113c0 2.309 1.869 5.239 4.178 5.239s4.178-2.93 4.178-5.239v-1.113a2 2 0 00-2.004-2.004zm10.407 0h-4.342a2.003 2.003 0 00-2.004 2.004v1.113c0 2.309 1.869 5.239 4.172 5.239s4.178-2.93 4.178-5.239v-1.113a2 2 0 00-2.004-2.004v0zm10.408 0h-4.343a2.004 2.004 0 00-2.004 2.004v1.113c0 2.309 1.87 5.239 4.178 5.239 2.309 0 4.173-2.93 4.173-5.239v-1.113a2 2 0 00-2.004-2.004v0zm10.407 0h-4.319a1.999 1.999 0 00-1.851 1.237 1.996 1.996 0 00-.153.767v1.113c0 2.309 1.869 5.239 4.178 5.239s4.178-2.93 4.178-5.239v-1.113c0-.266-.054-.528-.157-.773a2.012 2.012 0 00-1.876-1.231v0zm10.413 0h-4.342a2.006 2.006 0 00-2.01 2.004v1.113c0 2.309 1.869 5.239 4.178 5.239s4.178-2.93 4.178-5.239v-1.113a2 2 0 00-2.004-2.004v0zm10.407 0h-4.342a2.004 2.004 0 00-2.004 2.004v1.113c0 2.309 1.869 5.239 4.172 5.239s4.179-2.93 4.179-5.239v-1.113a2.005 2.005 0 00-2.005-2.004zm10.408 0h-4.342a2.005 2.005 0 00-2.005 2.004v1.113c0 2.309 1.87 5.239 4.179 5.239 2.308 0 4.172-2.93 4.172-5.239v-1.113a2 2 0 00-2.004-2.004v0zM85.198 153.051h-4.33a2.008 2.008 0 00-2.004 2.005v1.113c0 2.303 1.87 5.239 4.178 5.239 2.309 0 4.172-2.93 4.172-5.239v-1.113a2.002 2.002 0 00-2.016-2.005v0zm10.408 0h-4.342a2.008 2.008 0 00-2.004 2.005v1.113c0 2.303 1.869 5.239 4.178 5.239 2.308 0 4.178-2.93 4.178-5.239v-1.113a2.01 2.01 0 00-2.01-2.005v0zm10.413 0h-4.342a2.009 2.009 0 00-2.01 2.005v1.113c0 2.303 1.875 5.239 4.178 5.239s4.178-2.93 4.178-5.239v-1.113a2.005 2.005 0 00-2.004-2.005v0zm10.408 0h-4.343a2.005 2.005 0 00-2.004 2.005v1.113c0 2.303 1.87 5.239 4.173 5.239 2.302 0 4.178-2.93 4.178-5.239v-1.113a2.002 2.002 0 00-2.004-2.005v0zm10.407 0h-4.36a2.005 2.005 0 00-2.004 2.005v1.113c0 2.303 1.869 5.239 4.178 5.239s4.172-2.93 4.172-5.239v-1.113a2.002 2.002 0 00-1.986-2.005v0zm10.407 0h-4.342a2.007 2.007 0 00-2.004 2.005v1.113c0 2.303 1.869 5.239 4.178 5.239s4.178-2.93 4.178-5.239v-1.113a2.007 2.007 0 00-2.01-2.005v0zm10.431 0h-4.342a2.007 2.007 0 00-2.01 2.005v1.113c0 2.303 1.875 5.239 4.178 5.239s4.178-2.93 4.178-5.239v-1.113a2.005 2.005 0 00-2.004-2.005v0zm10.39 0h-4.342a2.01 2.01 0 00-1.418.587 2.01 2.01 0 00-.587 1.418v1.113c0 2.303 1.87 5.239 4.173 5.239s4.178-2.93 4.178-5.239v-1.113a2.005 2.005 0 00-2.004-2.005zm10.407 0h-4.342a2.007 2.007 0 00-2.004 2.005v1.113c0 2.303 1.869 5.239 4.178 5.239s4.172-2.93 4.172-5.239v-1.113a2.005 2.005 0 00-2.004-2.005zm10.408 0h-4.343a2.005 2.005 0 00-2.004 2.005v1.113c0 2.303 1.869 5.239 4.178 5.239s4.179-2.93 4.179-5.239v-1.113a2.011 2.011 0 00-2.01-2.005v0zm10.401 0h-4.342a2.007 2.007 0 00-2.01 2.005v1.113c0 2.303 1.875 5.239 4.178 5.239s4.178-2.93 4.178-5.239v-1.113a2.005 2.005 0 00-2.004-2.005zm10.419 0h-4.342a2.006 2.006 0 00-1.975 2.005v1.113c0 2.303 1.869 5.239 4.172 5.239s4.179-2.93 4.179-5.239v-1.113a1.997 1.997 0 00-.598-1.428 2.003 2.003 0 00-1.436-.577v0zm10.407 0h-4.342a2.005 2.005 0 00-2.004 2.005v1.113c0 2.303 1.869 5.239 4.178 5.239s4.173-2.93 4.173-5.239v-1.113a2.01 2.01 0 00-.587-1.418 2.01 2.01 0 00-1.418-.587v0zm-24.869 21.782h-79.509a1.88 1.88 0 00-1.881 1.881v5.708a1.88 1.88 0 001.881 1.881h79.509a1.88 1.88 0 001.881-1.881v-5.708a1.88 1.88 0 00-1.881-1.881zm10.647.557h-4.342a2.003 2.003 0 00-2.004 2.004v1.113c0 2.309 1.869 5.239 4.178 5.239s4.172-2.93 4.172-5.239v-1.113a2.003 2.003 0 00-2.004-2.004zm-96.462 0h-4.34a2.003 2.003 0 00-2.004 2.004v1.113c0 2.309 1.869 5.239 4.178 5.239 2.308 0 4.178-2.93 4.178-5.239v-1.113a2.013 2.013 0 00-2.01-2.004v0z" fill="#fff" stroke="#263238" stroke-linecap="round" stroke-linejoin="round"/><path opacity=".2" d="M90.643 144.847c.21.001.42.021.627.059v-1.236a.873.873 0 00-.874-.868h-4.342a.877.877 0 00-.867.868v1.113c0 1.6 1.172 3.616 2.555 4.02-.428-1.776.533-3.956 2.9-3.956zm10.641-.298c.133-.01.266-.01.399 0v-.903a.876.876 0 00-.868-.867h-4.342a.875.875 0 00-.873.867v1.113c0 1.758 1.389 3.956 2.93 4.102-.709-1.816.223-4.312 2.754-4.312zm10.718-.153h.088v-.732a.868.868 0 00-.867-.868h-4.342a.877.877 0 00-.874.868v1.113c0 1.787 1.477 4.102 3.042 4.102.076.006.152.006.228 0-.785-1.852.123-4.483 2.725-4.483zm9.745-.299c.244-.007.488.013.727.059v-.51a.864.864 0 00-.867-.867h-4.343a.866.866 0 00-.867.867v1.113c0 1.676 1.289 3.809 2.743 4.102-.997-1.84-.135-4.764 2.607-4.764zm10.941 0h.223v-.439a.875.875 0 00-.873-.867h-4.343a.87.87 0 00-.867.867v1.113c0 1.788 1.477 4.102 3.041 4.102.08.006.161.006.241 0-1.026-1.846-.164-4.776 2.578-4.776zm10.495.059h.135v-.51a.872.872 0 00-.867-.867h-4.343a.875.875 0 00-.873.867v1.113c0 1.788 1.477 4.102 3.042 4.102.095.009.191.009.287 0-.961-1.845-.088-4.705 2.619-4.705zm10.044-.059c.167.003.333.014.498.035v-.462a.868.868 0 00-.867-.868h-4.342a.868.868 0 00-.867.868v1.113c0 1.758 1.453 4.067 3.006 4.102-1.037-1.84-.182-4.788 2.572-4.788zm10.906.153v-.586a.872.872 0 00-.254-.614.872.872 0 00-.614-.254h-4.342a.87.87 0 00-.867.868v1.113c0 1.787 1.471 4.102 3.041 4.102.157-.002.313-.028.463-.076-.844-1.805.018-4.471 2.573-4.553zm9.558-.229c.288-.001.576.037.855.111v-.462a.87.87 0 00-.873-.868h-4.319a.876.876 0 00-.867.868v1.113c0 1.652 1.254 3.739 2.678 4.055-1.096-1.834-.246-4.817 2.526-4.817zm10.641 0c.209.001.417.02.621.059v-.41a.871.871 0 00-.867-.868h-4.342a.869.869 0 00-.615.254.869.869 0 00-.258.614v1.113c0 1.758 1.406 3.991 2.93 4.102-1.102-1.84-.258-4.864 2.531-4.864zm10.572.299c.153.002.305.014.457.035v-.685a.872.872 0 00-.254-.614.872.872 0 00-.614-.254h-4.342a.881.881 0 00-.613.254.866.866 0 00-.254.614v1.113c0 1.758 1.406 3.985 2.93 4.102-.85-1.852.047-4.565 2.69-4.565zm10.864-.135v-.515a.868.868 0 00-.867-.868h-4.342a.872.872 0 00-.614.254.872.872 0 00-.254.614v1.113c0 1.787 1.471 4.102 3.042 4.102.226-.003.449-.051.656-.141-.832-1.769-.047-4.36 2.379-4.559zM90.941 165.838c.112-.006.223-.006.334 0v-.123a.874.874 0 00-.873-.867H86.06a.871.871 0 00-.867.867v1.113c0 1.788 1.477 4.102 3.041 4.102.108-.002.216-.014.322-.035-1.312-1.781-.515-5.057 2.385-5.057zm10.197 0c.182.001.365.016.545.047v-.152a.876.876 0 00-.868-.868h-4.342a.871.871 0 00-.873.868v1.113c0 1.787 1.477 4.102 3.041 4.102h.13c-1.343-1.805-.552-5.11 2.367-5.11zm10.343.147c.196 0 .392.018.586.052v-.31a.878.878 0 00-.254-.614.882.882 0 00-.614-.254h-4.342a.875.875 0 00-.873.868v1.113c0 1.758 1.453 4.061 3.006 4.102-1.166-1.822-.351-4.957 2.491-4.957zm10.565.076c.151 0 .302.01.451.029v-.363a.859.859 0 00-.254-.614.878.878 0 00-.613-.254h-4.342a.878.878 0 00-.613.254.86.86 0 00-.254.614v1.113c0 1.787 1.471 4.102 3.041 4.102h.07c-1.125-1.834-.287-4.881 2.514-4.881zm10.197-.223c.224 0 .448.022.668.064v-.169a.877.877 0 00-.873-.868h-4.343a.876.876 0 00-.867.868v1.113c0 1.787 1.477 4.102 3.041 4.102-1.336-1.793-.551-5.11 2.374-5.11zm10.565.07c.171.002.341.015.51.041v-.222a.872.872 0 00-.867-.868h-4.343a.876.876 0 00-.873.868v1.113c0 1.787 1.477 4.102 3.042 4.102h.111c-1.266-1.817-.457-5.034 2.42-5.034zm10.794.223h.123v-.41a.864.864 0 00-.867-.867h-4.342a.864.864 0 00-.867.867v1.113c0 1.787 1.47 4.102 3.035 4.102.114-.002.228-.015.34-.041-1.008-1.828-.17-4.764 2.578-4.764zm10.478-.223h.035v-.181a.859.859 0 00-.254-.614.878.878 0 00-.613-.254h-4.325a.881.881 0 00-.613.254.877.877 0 00-.254.614v1.113c0 1.787 1.471 4.102 3.041 4.102.18-.003.358-.034.528-.094-1.19-1.816-.364-4.94 2.455-4.94zm10.132-.222h.328a.87.87 0 00-.867-.838h-4.319a.87.87 0 00-.867.867v1.113c0 1.788 1.477 4.102 3.041 4.102.143-.004.285-.026.422-.064-1.471-1.746-.709-5.18 2.262-5.18zm10.724.152v-.105a.876.876 0 00-.867-.868h-4.343a.872.872 0 00-.873.868v1.113c0 1.787 1.477 4.102 3.042 4.102.199-.003.397-.039.586-.106-1.225-1.816-.417-5.004 2.455-5.004zm10.202 0h.234v-.117a.859.859 0 00-.254-.613.859.859 0 00-.613-.254h-4.342a.864.864 0 00-.867.867v1.113c0 1.787 1.471 4.102 3.035 4.102.139-.002.277-.021.41-.058-1.306-1.794-.504-5.04 2.397-5.04zm10.255.445h.375v-.586a.866.866 0 00-.867-.867h-4.342a.868.868 0 00-.868.867v1.114c0 1.787 1.471 4.102 3.042 4.102-.909-1.817-.03-4.63 2.66-4.63zm-119.397-10.94h.076v-.287a.873.873 0 00-.873-.868h-4.331a.87.87 0 00-.867.868v1.113c0 1.787 1.47 4.102 3.041 4.102.151-.004.3-.027.445-.07-1.125-1.829-.275-4.858 2.509-4.858zm10.19 0h.293v-.299a.874.874 0 00-.873-.867h-4.342a.871.871 0 00-.868.867v1.113c0 1.787 1.477 4.102 3.042 4.102.086.006.172.006.257 0-1.154-1.834-.322-4.916 2.491-4.916zm10.648 0h.052v-.287a.871.871 0 00-.867-.868h-4.342a.884.884 0 00-.623.25.873.873 0 00-.262.618v1.113c0 1.787 1.477 4.102 3.041 4.102.158-.002.314-.028.463-.076-1.096-1.823-.258-4.852 2.538-4.852zm10.19-.053h.27v-.223a.87.87 0 00-.867-.867h-4.343a.866.866 0 00-.867.867v1.114c0 1.787 1.471 4.102 3.036 4.102.106-.003.212-.014.316-.035-1.213-1.823-.393-4.958 2.455-4.958zm10.138.053c.187 0 .373.015.557.047v-.334a.87.87 0 00-.867-.868h-4.378a.868.868 0 00-.867.868v1.113c0 1.787 1.471 4.102 3.041 4.102-1.16-1.823-.334-4.928 2.514-4.928zm10.478-.375c.156 0 .313.01.469.029a.877.877 0 00-.868-.809h-4.342a.871.871 0 00-.867.868v1.113c0 1.787 1.476 4.102 3.041 4.102.113-.002.224-.016.334-.041-1.523-1.741-.779-5.262 2.233-5.262zm10.489.445h.393v-.381a.876.876 0 00-.868-.867h-4.342a.874.874 0 00-.873.867v1.113c0 1.788 1.477 4.102 3.041 4.102h.118c-1.096-1.816-.27-4.834 2.531-4.834zm10.8-.357a.868.868 0 00-.867-.868h-4.342a.878.878 0 00-.614.254.882.882 0 00-.254.614v1.113c0 1.787 1.471 4.102 3.036 4.102.312-.008.618-.092.89-.246-1.183-1.746-.468-4.735 2.151-4.969zm10.425.234v-.223a.866.866 0 00-.867-.867h-4.343a.866.866 0 00-.867.867v1.114c0 1.787 1.471 4.102 3.042 4.102.251-.004.499-.062.726-.17-1.072-1.788-.305-4.676 2.309-4.823zm10.032-.176h.364v-.076a.875.875 0 00-.873-.867h-4.343a.87.87 0 00-.867.867v1.113c0 1.788 1.477 4.102 3.041 4.102.111-.001.221-.015.328-.041-1.359-1.764-.58-5.098 2.35-5.098zm10.771.381v-.439a.876.876 0 00-.867-.868h-4.342a.873.873 0 00-.874.868v1.113c0 1.787 1.477 4.102 3.042 4.102.177-.003.353-.033.521-.088-.955-1.817-.117-4.618 2.52-4.688zm9.915-.305c.165.003.329.014.492.035v-.169a.866.866 0 00-.867-.868h-4.342a.878.878 0 00-.613.254.859.859 0 00-.254.614v1.113c0 1.787 1.471 4.102 3.035 4.102.055.003.11.003.164 0-1.312-1.811-.515-5.081 2.385-5.081zm10.495.452c.135-.01.27-.01.405 0v-.586a.87.87 0 00-.867-.868h-4.343a.87.87 0 00-.867.868v1.113c0 1.758 1.459 4.102 3.024 4.102-.914-1.846-.03-4.629 2.648-4.629zm-24.588 26.815v-5.778a.71.71 0 00-.709-.709h-79.579a.708.708 0 00-.709.709v5.778c0 .392.317.709.709.709h79.579a.71.71 0 00.709-.709zm10.771-4.483v-.586a.878.878 0 00-.254-.613.86.86 0 00-.614-.254h-4.342a.859.859 0 00-.613.254.859.859 0 00-.254.613v1.113c0 1.788 1.471 4.102 3.041 4.102.131-.003.26-.02.387-.052-.867-1.829.017-4.559 2.649-4.577zm-96.966-.375c.17.001.341.015.51.041v-.246a.874.874 0 00-.873-.867h-4.342a.871.871 0 00-.868.867v1.113c0 1.788 1.477 4.102 3.042 4.102h.1c-1.249-1.816-.428-5.01 2.431-5.01zM73.66 55.377h143.641a3.72 3.72 0 013.721 3.721v32.816H69.939V59.098a3.722 3.722 0 013.721-3.721z" fill="#000"/><path d="M205.557 61.565H85.427a136.543 136.543 0 00-5.274-24.524h130.702a130.944 130.944 0 00-5.298 24.524z" fill="#fff"/><path opacity=".2" d="M206.741 53.66c-.873 4.77-1.172 7.905-1.172 7.905H85.439s-.305-3.076-1.201-7.905H206.74z" fill="#000"/><path d="M205.557 61.565H85.427a136.543 136.543 0 00-5.274-24.524h130.702a130.944 130.944 0 00-5.298 24.524v0z" stroke="#263238" stroke-linecap="round" stroke-linejoin="round"/><path d="M203.922 82.216H86.072V130.7h117.85V82.216z" fill="#263238"/><g opacity=".4" fill="#fff"><path opacity=".4" d="M142.058 126.412l.621.029a125921 125921 0 002.344-36.332c-.996 12.134-1.984 24.235-2.965 36.303zm-2.004-.153l.621.053c1.356-12.013 2.71-24.079 4.061-36.197a18442.993 18442.993 0 01-4.682 36.144zm-1.951-.222c.205 0 .416.047.621.07 1.922-11.884 3.856-23.883 5.801-35.998a11683.09 11683.09 0 01-6.422 35.928zm-1.975-.299l.627.1c2.492-11.72 5.004-23.636 7.536-35.746a5575.62 5575.62 0 01-8.163 35.646zm-1.969-.369l.633.129a6130.56 6130.56 0 009.264-35.395 3390.71 3390.71 0 01-9.897 35.266zm-1.957-.446l.633.159c3.592-11.24 7.284-22.895 10.987-34.985-3.92 12.09-7.829 23.692-11.62 34.826zm-1.952-.527l.639.188c4.102-10.924 8.397-22.421 12.699-34.498-4.518 12.077-9.019 23.51-13.338 34.31zm-1.916-.598l.639.205c4.635-10.548 9.499-21.863 14.398-33.923-5.139 12.06-10.226 23.293-15.037 33.718zm-1.946-.685l.645.234c5.133-10.149 10.589-21.237 16.086-33.279-5.725 12.042-11.41 23.03-16.731 33.045zm-1.898-.774l.644.27c5.603-9.693 11.65-20.51 17.75-32.553-6.346 12.019-12.61 22.778-18.394 32.283zm-1.881-.867l.644.31c6.048-9.17 12.687-19.748 19.397-31.737-6.95 11.989-13.818 22.467-20.041 31.427zm-1.852-.961l.645.351c6.446-8.596 13.695-18.875 21.014-30.835a352.739 352.739 0 01-21.659 30.484z"/><path opacity=".4" d="M118.958 119.456c.211.135.434.258.65.387a306.49 306.49 0 0022.597-29.828 278.705 278.705 0 01-23.247 29.441z"/><path opacity=".4" d="M117.159 118.29l.639.439a243.73 243.73 0 0024.149-28.714 222.863 222.863 0 01-24.788 28.275z"/><path opacity=".4" d="M141.712 89.98c-9.428 11.808-18.652 20.815-26.27 27.038l.627.487a197.25 197.25 0 0025.643-27.525z"/><path opacity=".4" d="M141.478 89.963c-10.044 11.72-19.859 20.287-27.706 25.678l.621.533c7.741-5.731 17.305-14.462 27.085-26.211z"/><path opacity=".4" d="M141.226 89.945c-10.648 11.632-21.02 19.696-29.042 24.196.193.199.387.398.586.586 7.946-4.864 18.09-13.121 28.456-24.782z"/><path opacity=".4" d="M141.009 89.922c-11.228 11.515-22.139 19.045-30.29 22.619l.586.639c8.069-3.967 18.734-11.708 29.704-23.258z"/><path opacity=".4" d="M109.371 110.83c.17.235.346.469.522.697 8.174-3.017 19.338-10.219 30.888-21.623-11.785 11.351-23.188 18.318-31.41 20.926z"/><path opacity=".4" d="M108.176 109.049c.152.246.31.492.468.738 8.204-2.063 19.854-8.69 31.902-19.924-12.282 11.169-24.137 17.551-32.37 19.186z"/><path opacity=".4" d="M107.156 107.238c.129.258.264.51.398.768 8.204-1.114 20.253-7.155 32.758-18.137-12.71 10.876-24.952 16.666-33.156 17.369z"/><path opacity=".4" d="M106.324 105.386c.105.258.217.522.328.78 8.157-.2 20.51-5.644 33.402-16.338-13.038 10.583-25.585 15.763-33.73 15.558zm37.721 21.108h.615c.187-12.111.383-24.237.586-36.379-.41 12.134-.811 24.26-1.201 36.379zm1.98.012h.621l-1.172-36.38.551 36.38zm1.981-.053h.621a70632.79 70632.79 0 01-2.93-36.332c.77 12.134 1.539 24.245 2.309 36.332zm2.01-.123l.621-.047a24586.871 24586.871 0 01-4.688-36.168c1.344 12.13 2.7 24.202 4.067 36.215zm1.951-.188l.622-.076a78031.305 78031.305 0 01-6.446-35.957c1.957 12.13 3.898 24.141 5.824 36.033zm1.975-.263l.627-.094a9829.436 9829.436 0 01-8.174-35.676 8331.98 8331.98 0 007.547 35.77zm1.969-.334l.627-.118a4908.45 4908.45 0 01-9.909-35.324 4104.154 4104.154 0 009.282 35.442zm1.957-.411l.639-.146c-3.797-11.134-7.712-22.778-11.644-34.89a2635.084 2635.084 0 0011.005 35.036zm1.958-.48l.633-.182c-4.325-10.823-8.831-22.268-13.361-34.386 4.307 12.106 8.596 23.598 12.728 34.568zm1.939-.569l.645-.211c-4.846-10.442-9.962-21.682-15.078-33.794 4.911 12.089 9.786 23.416 14.433 34.005zm1.928-.65l.645-.24c-5.333-10.015-11.029-21.049-16.771-33.127 5.514 12.078 10.981 23.188 16.126 33.367zm1.911-.733c.216-.093.439-.175.65-.269-5.801-9.528-12.095-20.317-18.453-32.377 6.124 12.06 12.177 22.931 17.803 32.646zm1.892-.814l.651-.311c-6.241-8.983-13.138-19.49-20.112-31.526 6.734 12.024 13.39 22.637 19.461 31.837zm1.858-.92c.217-.111.434-.235.645-.352a354.288 354.288 0 01-21.741-30.589c7.36 12.013 14.65 22.321 21.096 30.941zm1.84-1.014l.656-.387a279.519 279.519 0 01-23.346-29.552 306.294 306.294 0 0022.69 29.939z"/><path opacity=".4" d="M148.739 89.998a243.85 243.85 0 0024.254 28.843l.651-.44a223.018 223.018 0 01-24.905-28.403z"/><path opacity=".4" d="M148.973 89.98a196.636 196.636 0 0025.784 27.636c.217-.158.422-.322.633-.486-7.642-6.224-16.936-15.272-26.417-27.15z"/><path opacity=".4" d="M149.207 89.963c9.845 11.819 19.467 20.586 27.232 26.317.211-.176.428-.352.633-.533-7.876-5.38-17.756-13.971-27.865-25.784z"/><path opacity=".4" d="M149.43 89.945c10.46 11.72 20.657 20.035 28.626 24.893.205-.193.399-.398.586-.586-8.028-4.494-18.476-12.587-29.212-24.307z"/><path opacity=".4" d="M149.676 89.922c11.058 11.638 21.805 19.414 29.886 23.352l.586-.645c-8.151-3.533-19.15-11.093-30.472-22.707z"/><path opacity=".4" d="M181.01 111.609c.181-.234.351-.468.527-.709-8.233-2.549-19.742-9.54-31.644-20.996 11.65 11.503 22.924 18.729 31.117 21.705z"/><path opacity=".4" d="M182.281 109.846l.481-.75c-8.245-1.553-20.211-7.952-32.623-19.215 12.183 11.327 23.903 17.972 32.142 19.965z"/><path opacity=".4" d="M183.418 108.023c.141-.258.275-.516.41-.779-8.204-.586-20.574-6.382-33.402-17.387 12.588 11.099 24.788 17.152 32.992 18.166z"/><path opacity=".4" d="M150.602 89.828c13.033 10.817 25.55 16.261 33.695 16.343.117-.263.229-.527.34-.791-8.134.334-20.815-4.852-34.035-15.552z"/></g><path opacity=".2" d="M128.334 90.988c-2.221 5.696.182 22.268 16.209 22.268s21.846-11.644 21.195-18.84l21.395-3.445s6.558 18.119-7.366 30.794c-13.923 12.675-62.186 11.855-72.388 2.221-10.203-9.634-4.542-28.667-4.542-28.667l25.497-4.33z" fill="#000"/><path d="M222.235 66.411v-3.996a.69.69 0 01.486-.662l2.93-.914v-3.997a1.803 1.803 0 011.805-1.805h3.516a.669.669 0 01.68.633v1.29a.668.668 0 01-.662.667h-4.472v3.909a.695.695 0 01-.334.586l-2.496 1.512v2.783l-1.453-.006z" fill="#999" stroke="#263238" stroke-linecap="round" stroke-linejoin="round"/><path d="M226.091 66.411h-3.856v11.533h3.856V66.41z" fill="#263238"/><path d="M230.913 65.433h-4.822v13.49h4.822v-13.49z" fill="#757575"/><path opacity=".2" d="M230.902 73.648h-4.811v5.274h4.811v-5.274z" fill="#000"/><path d="M230.913 65.433h-4.822v13.49h4.822v-13.49z" stroke="#263238" stroke-linecap="round" stroke-linejoin="round"/><path d="M64.87 77.938h3.856V66.406H64.87v11.532z" fill="#263238"/><path d="M60.047 78.917h4.823v-13.49h-4.823v13.49z" fill="#757575"/><path opacity=".2" d="M64.876 73.648h-4.823v5.145h4.823v-5.145z" fill="#000"/><path d="M60.047 78.917h4.823v-13.49h-4.823v13.49z" stroke="#263238" stroke-linecap="round" stroke-linejoin="round"/><path d="M68.146 72.863a4.688 4.688 0 00-1.383-5.274l-2.836-2.344a1.716 1.716 0 00-2.497.305L50.185 81.06c-.214.29-.329.642-.328 1.002v16.66a1.688 1.688 0 001.711 1.688v0a1.688 1.688 0 001.688-1.688v-13.53c0-.334.105-.66.299-.932l8.409-11.72a.913.913 0 011.336-.164l1.547 1.312a2.12 2.12 0 001.371.504v0a2.08 2.08 0 001.928-1.33v0z" fill="#fff" stroke="#263238" stroke-linecap="round" stroke-linejoin="round"/><path d="M65.825 71.346a.803.803 0 100-1.606.803.803 0 000 1.606z" fill="#999" stroke="#263238" stroke-linecap="round" stroke-linejoin="round"/><path d="M218.66 60.839H72.307v22.666H218.66V60.839z" fill="#263238"/><path opacity=".2" d="M216.545 62.544H74.364a.809.809 0 00-.81.808v3.669a.81.81 0 00.81.808h142.181a.808.808 0 00.808-.808v-3.669a.809.809 0 00-.808-.808z" fill="#fff"/><path d="M205.557 88.064H85.427a62.952 62.952 0 01-5.274-24.524h130.702c0 11.357-5.298 24.524-5.298 24.524z" fill="#fff"/><path opacity=".7" d="M95.143 86.224s2.631-.14 4.102-1.026c1.471-.884 1.365.798 2.209.909.844.111 2.837-.586 3.891-.586 1.055 0 .252.644 1.442.586 1.189-.059.551.058 1.172-.059l5.092-.85s2.584-.498 3.106-.246c.522.252 1.207 1.495 1.969 1.172.762-.322.357-.586 1.506-.586.71.004 1.416.106 2.098.305 0 0 .105-.299.633-.305h.943s1.998.528 2.315.528c.316 0 2.678-.522 2.76-.528.082-.005 2.344-.586 2.344-.586.48.502 1.088.863 1.758 1.044.856.11 1.758-.118 2.403.17.644.287 2.766-.118 2.766-.118a10.91 10.91 0 011.511.117c.657.15 1.341.13 1.987-.058a7.57 7.57 0 013.633-.059c1.905.346 3.657-.521 4.465-.527.809-.006 4.044.357 5.157.357 1.114 0 4.061.399 6.112.17 2.051-.228 3.393.287 4.77.287 1.377 0 2.848-.058 3.165-.058.316 0 1.84-.996 4.02-.756 2.18.24.24-.299 1.582 0s2.402.586 2.971.644a6.76 6.76 0 001.365-.058l2.344-.17h11.685M92.711 81.7s7.237 0 8.544-.117c1.307-.117 2.004-.785 2.702-.785.697 0 4.219.668 4.219.668a1.166 1.166 0 011.172-.668c.955 0 .469.088 1.348.44.879.35.421 0 .884.345a8.2 8.2 0 002.169.633s3.264.152 3.387-.633c.123-.785 1.758.633 1.758.633s4.43-.633 6.141-.633c1.711 0 6.001-.346 6.001-.346s3.516.463 3.68.463c.164 0 .744.92 1.371.516.627-.405 1.23-.867 1.975-.75.691.171 1.36.423 1.992.75l1.635-.867 1.875.117s1.911 1.271 3.276.75a29.94 29.94 0 003.041-1.418l1.682 1.418h1.102l3.264-.633a1.975 1.975 0 002.139.633c1.383-.399 14.597 0 17.961 0 3.363 0 4.102-.867 4.102-.867l2.59.867h12.892" stroke="#263238" stroke-linecap="round" stroke-linejoin="round"/><path opacity=".2" d="M206.782 84.677a66.712 66.712 0 01-1.225 3.387H85.427s-.586-1.23-1.389-3.387h122.744zm2.502-8.872a94.244 94.244 0 01-1.289 4.993H82.732a69.201 69.201 0 01-1.266-4.993h127.818z" fill="#000"/><path d="M205.557 88.064H85.427a62.952 62.952 0 01-5.274-24.524h130.702c0 11.357-5.298 24.524-5.298 24.524z" stroke="#263238" stroke-linecap="round" stroke-linejoin="round"/><path d="M72.277 59.672h-3.58v25.01h3.58v-25.01z" fill="#757575"/><path opacity=".2" d="M72.207 77.264H68.72v7.419h3.487v-7.419z" fill="#000"/><path d="M72.277 59.672h-3.58v25.01h3.58v-25.01z" stroke="#263238" stroke-linecap="round" stroke-linejoin="round"/><path d="M222.264 59.672h-3.58v25.01h3.58v-25.01z" fill="#757575"/><path opacity=".2" d="M222.264 77.264h-3.61v7.419h3.61v-7.419z" fill="#000"/><path d="M222.264 59.672h-3.58v25.01h3.58v-25.01z" stroke="#263238" stroke-linecap="round" stroke-linejoin="round"/><path d="M218.713 58.623v18.243H72.248V58.623h-1.406V78.09h149.277V58.623h-1.406z" fill="#999" stroke="#263238" stroke-linecap="round" stroke-linejoin="round"/><path d="M227.368 89.353v40.909a2.602 2.602 0 01-2.602 2.602H66.177a2.601 2.601 0 01-2.602-2.602V89.353a2.602 2.602 0 012.602-2.602h73.074v2.602s-12.476 10.824-33.988 14.814c3.083 13.953 19.924 24.612 40.247 24.612 20.322 0 37.164-10.671 40.252-24.612-21.541-3.99-34.017-14.814-34.017-14.814v-2.625h73.039a2.608 2.608 0 011.837.776 2.594 2.594 0 01.747 1.85z" fill="#fff" stroke="#263238" stroke-linecap="round" stroke-linejoin="round"/><path d="M227.368 89.353v40.909a2.607 2.607 0 01-1.61 2.405 2.608 2.608 0 01-.998.197H66.177a2.606 2.606 0 01-2.608-2.602V89.353a2.614 2.614 0 012.608-2.607h73.074v2.607s-12.482 10.818-33.988 14.814c3.083 13.953 19.924 24.612 40.253 24.612 20.328 0 37.158-10.671 40.246-24.612-21.541-3.996-34.017-14.814-34.017-14.814v-2.625h73.039a2.61 2.61 0 012.584 2.625z" fill="#fff"/><path opacity=".2" d="M223.852 89.98v37.768a1.916 1.916 0 01-.562 1.351 1.898 1.898 0 01-1.354.553h-154.2a1.883 1.883 0 01-1.349-.556 1.9 1.9 0 01-.556-1.348V89.98a1.91 1.91 0 011.905-1.916h71.492v1.29s-12.482 10.817-33.988 14.813c3.082 13.953 19.924 24.612 40.252 24.612 20.328 0 37.158-10.671 40.247-24.612-21.542-3.996-34.018-14.814-34.018-14.814v-1.289h70.232a1.916 1.916 0 011.899 1.916z" fill="#fff"/><path d="M227.368 89.353v40.909a2.607 2.607 0 01-1.61 2.405 2.608 2.608 0 01-.998.197H66.177a2.606 2.606 0 01-2.608-2.602V89.353a2.614 2.614 0 012.608-2.607h73.074v2.607s-12.482 10.818-33.988 14.814c3.083 13.953 19.924 24.612 40.253 24.612 20.328 0 37.158-10.671 40.246-24.612-21.541-3.996-34.017-14.814-34.017-14.814v-2.625h73.039a2.61 2.61 0 012.584 2.625v0z" stroke="#263238" stroke-linecap="round" stroke-linejoin="round"/><path opacity=".2" d="M174.98 144.988l7.788 21.723s3.369-23.909 5.379-23.909c2.01 0 6.341 13.074 6.341 13.074s2.672-6.821 5.203-7.067c2.532-.246 4.823 16.748 4.823 16.748l.393 37.721-3.194 57.047s-20.375-22.444-26.317-28.228c-5.942-5.784-11.621-18.512-13.262-21.096-1.64-2.584-2.056-16.115-2.056-16.115a14.503 14.503 0 003.07-9.329s4.782-8.005 4.489-13.912c-.293-5.907-1.031-28.86 7.343-26.657z" fill="#000" fill-opacity=".7"/><path d="M236.281 250.222l-30.847 16.226c0-.164-4.055-6.733-8.954-14.163a365.421 365.421 0 00-6.874-10.097c-3.715-5.233-8.438-9.751-8.843-10.736-1.172-2.93-10.208-13.899-12.229-18.166-2.022-4.266-2.485-17.539-3.376-20.662-.891-3.123 1.664-6.106 3.715-7.559 2.051-1.454 4.202-5.274 4.202-5.274s-2.268-8.837-2.291-13.332c-.024-4.494-1.553-20.182.275-21.647 1.829-1.465 3.463-.849 3.921.159 1.5 3.322 2.847 11.679 4.002 15.529 1.154 3.85 3.323 15.019 4.389 15.822 1.067.802 2.965-2.21 2.965-2.21s.182-9.376.586-13.261l-.586-12.306s-1.096-7.395 1.453-8.098c3.516-.967 4.8 1.242 5.198 2.174.399.931 2.04 6.299 2.04 6.299l.093.369v.176a50.698 50.698 0 01.311 1.207c.779 3.053 2.279 9.165 2.215 10.671-.088 2.034-.797 13.297.205 15.635l1.559-15.558s-2.514-11.99-1.782-13.719c.733-1.728 4.184.182 4.595.862.41.679 3.762 4.793 4.36 6.364l.586 1.57s.826-3.715 2.765-2.748c1.94.967 2.18 5.69 2.315 7.753.135 2.062 1.541 15.329 1.758 15.353.217.023 2.455 6.915 2.151 11.468-.639 9.745 1.049 16.994 1.107 20.733.059 3.738-2.76 12.399-2.76 12.399.1.17 1.94 3.299 2.444 6.048.369 2.016 6.938 9.3 12.306 15.095 3.733 3.997 6.862 7.267 7.026 7.624z" fill="#fff"/><path opacity=".4" d="M196.486 252.296a365.359 365.359 0 00-6.874-10.096c-3.715-5.233-8.438-9.751-8.843-10.736-1.172-2.93-10.208-13.9-12.23-18.166-2.021-4.266-2.484-17.539-3.375-20.662-.891-3.124 1.664-6.106 3.715-7.56 2.051-1.453 4.202-5.274 4.202-5.274s-2.268-8.837-2.291-13.331c-.024-4.495-1.553-20.182.275-21.647 1.828-1.465 3.463-.85 3.92.158 1.501 3.323 2.848 11.679 4.003 15.529 1.154 3.85 3.323 15.019 4.389 15.822 1.067.803 2.965-2.209 2.965-2.209s.182-9.376.586-13.261l-.586-12.306s-1.096-7.395 1.453-8.099c3.516-.967 4.8 1.243 5.198 2.174.399.932 2.04 6.3 2.04 6.3l.093.369v.176a50.698 50.698 0 01.311 1.207c-.908-1.436-2.157-2.66-3.827-2.983-4.688-.914-3.674 4.302-3.229 7.431a21.651 21.651 0 01-.146 6.241l1.172-.674c-.844 1.506-2.051 14.023-2.051 16.806 0 2.784-2.203 3.71-4.178 2.895-1.975-.814-2.678-13.589-4.178-15.881-1.501-2.291-5.673 2.087-5.86 6.089-.188 4.002 3.545 15.939 2.66 18.752-.885 2.813-.873 13.478-.873 13.478l-1.078-2.748c.07.375 0 1.635-2.256 5.344a11.034 11.034 0 00-1.225 9.118c1.377 3.042 8.362 11.058 9.534 11.884 0 0 .85-3.481 3.516-2.555a15.383 15.383 0 00-1.957 4.688c-.551 2.555 5.01 4.19 6.751 6.622 1.066 1.483 1.781 6.001 8.274 17.105zm32.804-9.692c-5.485-5.526-15.136-10.788-14.55-12.165.785-1.852-.211-5.796-1.899-8.995-1.688-3.2.586-8.392.586-8.392l1.043 3.018c.835-3.481.933-7.098.287-10.618-1.066-5.983-1.898-3.88-1.898-3.88s.216-5.391 1.172-8.333c.955-2.941 1.758-10.085.439-14.31-1.318-4.225-4.102-3.428-4.846-1.975-.744 1.454.053 7.12.668 8.978.615 1.858-2.004 4.981-2.057 2.66-.053-2.32-1.043-8.79-1.043-8.79l1.987-12.991-1.987-10.32s.826-3.715 2.766-2.748c1.94.967 2.18 5.69 2.315 7.753.134 2.062 1.541 15.33 1.758 15.353.216.023 2.455 6.915 2.15 11.468-.638 9.745 1.049 16.994 1.108 20.733.058 3.738-2.76 12.399-2.76 12.399.099.17 1.939 3.3 2.443 6.048.37 2.016 6.939 9.3 12.306 15.095l.012.012zm-22.707-87.677c.111.293.205.533.275.726-1.863-4.33-5.04-2.988-5.602-1.758-.563 1.231 1.33 8.867 1.758 10.05.428 1.184-1.7 10.636-2.01 13.765-.311 3.13-1.137 3.768-1.137 3.768-2.104.159-2.344-5.649-2.344-6.446.041.667.171 1.325.387 1.958l1.559-15.559s-2.573-12.001-1.84-13.73c.732-1.728 4.184.182 4.594.862.41.679 3.762 4.793 4.36 6.364z" fill="#fff"/><path d="M236.281 250.222c-.398-.902-18.699-19.338-19.338-22.725-.516-2.825-2.449-6.053-2.449-6.053s2.818-8.644 2.76-12.4c-.059-3.756-1.758-10.988-1.108-20.733.305-4.553-1.928-11.444-2.15-11.468-.223-.023-1.63-13.29-1.758-15.353-.129-2.063-.37-6.786-2.315-7.753-1.946-.967-2.766 2.748-2.766 2.748l-.586-1.57c-.586-1.571-3.95-5.684-4.36-6.364-.41-.68-3.856-2.596-4.594-.861-.739 1.734 1.834 13.706 1.834 13.706l-1.547 15.576c-1.002-2.344-.293-13.601-.205-15.634.088-2.034-2.666-12.424-2.666-12.424s-1.653-5.344-2.04-6.305c-.386-.961-1.682-3.141-5.198-2.174-2.549.703-1.453 8.098-1.453 8.098l.586 12.306c-.392 3.903-.586 13.262-.586 13.262s-1.898 3.006-2.965 2.209c-1.067-.797-3.235-11.96-4.389-15.822-1.155-3.862-2.502-12.207-4.003-15.529-.457-1.008-2.092-1.623-3.92-.158-1.828 1.465-.305 17.146-.275 21.646.029 4.501 2.291 13.332 2.291 13.332s-2.151 3.797-4.202 5.274c-2.051 1.477-4.606 4.43-3.715 7.559.891 3.13 1.354 16.408 3.375 20.663 2.022 4.254 11.035 15.236 12.23 18.166.405.984 5.128 5.502 8.843 10.735 7.296 10.273 15.822 24.026 15.822 24.261" stroke="#263238" stroke-linecap="round" stroke-linejoin="round"/><path d="M173.075 179.808s1.453 7.202 1.401 8.409c0 0-1.272 5.561-1.284 9.165a36.829 36.829 0 00-2.391 4.237c-.492 1.301-1.371 4.501-1.008 6.282m.628-17.451s3.562.029 3.334 1.529m-.563 5.403s-2.285-.99-3.088.34m16.244-23.598s-.164 5.52-1.617 5.081m13.173-2.233s-.422 3.018.715 3.95m8.555-24.425s1.583 7.618 1.946 9.423c.363 1.805-1.799 11.017-1.758 13.414.041 2.396 1.066 5.824.926 7.436m5.203 27.583s-.509 4.975 1.02 7.102m-31.743 2.743s-3.411 3.106-2.163 6.926m24.577-45.649c.053 2.191-1.231 4.746-1.365 7.776m-9.499-9.733c.726 1.793-.856 5.695-1.096 7.16a8.963 8.963 0 00.369 3.399m21.149-4.383c-.293 1.905-1.641 3.264-1.899 9.124m-31.374-15.857c.984 1.072.322 6.194.586 7.032m17.773-36.537s3.352-2.455 6.235.439m-17.779-6.082s.586-.979 3.416-.739 3.334 1.834 3.334 1.834" stroke="#263238" stroke-linecap="round" stroke-linejoin="round"/><path d="M180.013 164.543s-.949-1.401-3.451-.938c-2.502.463-3.616 4.003-3.616 4.003" fill="#fff"/><path d="M180.013 164.543s-.949-1.401-3.451-.938c-2.502.463-3.616 4.003-3.616 4.003m41.067 9.247s-2.086-3.024-4.594-1.729" stroke="#263238" stroke-linecap="round" stroke-linejoin="round"/><path opacity=".2" d="M125.14 154.704c3.516 2.725.551 19.449.551 19.449l.311 5.444 6.03-2.625 2.748 11.632s-.07 4.26 2.162 5.86c0 0 .551 9.558 0 16.543-.55 6.985-11.72 15.195-15.57 22.526-3.85 7.331-28.96 28.878-28.96 28.878l-21.26-10.115 15.37-62.08 13.772-17.703 8.163-20.364s1.4 13.302.586 22.268l16.097-19.713z" fill="#000" fill-opacity=".7"/><path d="M131.059 191.856c-.533 2.567.75 16.637.527 18.536-.222 1.898-11.415 14.65-11.978 15.616-.562.967-8.045 5.275-9.786 7.331-8.133 9.488-12.575 18.225-16.144 26.986a233.066 233.066 0 00-1.987 5.08l-32.276-18.752c2.713-3.363 5.274-6.352 7.618-9.071 4.688-5.514 8.42-9.927 10.249-14.093a23.322 23.322 0 011.922-3.048c.726-1.031 1.377-1.881 1.377-1.881s-2.344-6.604-1.8-8.678c.546-2.075-.673-19.127-.673-19.127s-1.588-11.609-3.153-14.539a4.827 4.827 0 01-.504-2.473c.077-2.678 1.63-6.053 2.391-9.962 1.02-5.274.528-7.882 3.727-6.059 3.2 1.822 1.705 12.892 1.705 12.892l4.835 10.712c1.272-2.59 0-10.15-.064-11.937 0-.293 0-.779-.047-1.412-.1-3.082-.305-9.499-.041-12.031 0-.14 0-.269.046-.386.393-2.614 1.794-10.929 2.684-11.855 1.325-1.371 3.428-2.526 5.41.586 1.107 1.758.632 15.699.632 15.699s4.594-5.544 5.989-6.897c1.395-1.354 5.626-3.827 6.756-.962 1.131 2.866-3.041 11.72-3.041 11.72.873 2.051.979 7.73.979 7.73s1.975 7.096 3.188 7.032h.052c.352-.076.739-1.366 1.143-3.176.996-4.436 2.08-12.025 2.93-12.687l.586-.469a.437.437 0 01.094-.088l.217-.193c2.074-1.846 6.446-5.948 6.446-5.948s.31-1.963 4.137-1.36c3.826.604-1.7 11.896-1.7 11.896-.767 3.592-1.945 12.833-1.945 12.833-.358 3.845-.147 14.176-.147 14.176s1.811-6.013 1.694-8.204c-.117-2.192 3.598-7.56 4.688-8.943 1.09-1.382 5.954-.896 4.6 1.758-1.354 2.655-.803 11.07-1.336 13.648z" fill="#fff"/><path opacity=".4" d="M77.264 223.512a23.244 23.244 0 011.922-3.047s-1.904 5.274-2.092 8.081c-.123 1.852-4.998 5.057-10.079 9.059 4.717-5.514 8.42-9.926 10.25-14.093zm1.922-3.047c.727-1.031 1.377-1.881 1.377-1.881s-2.344-6.604-1.799-8.679c.545-2.074-.674-19.127-.674-19.127s-1.588-11.608-3.152-14.538l3.645 6.369s-.358 5.034.68 7.794c1.037 2.76 2.343 11.181 2.343 11.181s-1.535 7.079-1.013 9.628c.521 2.549 2.871 1.623 2.871 1.623s1.154 4.665-4.278 7.63zm8.503-47.953c2.514 14.721-1.817 10.648-3.381 7.472-1.565-3.176-5.239-9.188-8.005-7.905a4.319 4.319 0 00-1.87 1.688c.077-2.678 1.63-6.054 2.392-9.962 1.02-5.274.527-7.882 3.727-6.06 3.2 1.823 1.705 12.892 1.705 12.892l4.834 10.712c1.272-2.59 0-10.149-.064-11.936 0-.293 0-.78-.047-1.413.193 1.354.428 2.86.709 4.512zm6.153-14.544s-2.713-3.551-5.069-3.369a2.07 2.07 0 00-1.834 1.353c0-.14 0-.269.047-.387.392-2.613 1.793-10.928 2.684-11.854 1.324-1.372 3.428-2.526 5.409.586 1.107 1.758.632 15.699.632 15.699s4.595-5.544 5.989-6.898c1.395-1.353 5.626-3.826 6.757-.961 1.131 2.866-3.041 11.72-3.041 11.72.873 2.051.978 7.73.978 7.73s1.975 7.096 3.188 7.032c-2.672 5.028-4.454-6.089-4.454-6.089.399-2.297-1.019-7.278-.879-8.591.141-1.312-2.461-5.953-6.844-4.688-4.383 1.266-1.219 18.588-1.219 18.588a9.682 9.682 0 00-1.465 4.583c-1.354-1.67 0-6.446 0-6.446-1.201-4.571-.879-18.008-.879-18.008zm20.428 4.295c-1.869 1.964-1.611 6.927-3.516 13.156.996-4.436 2.08-12.025 2.93-12.687l.586-.469zm16.789 29.593c-.533 2.567.75 16.637.527 18.535-.222 1.899-11.415 14.65-11.978 15.617-.562.967-8.045 5.274-9.786 7.331-8.133 9.488-12.575 18.225-16.144 26.986a115.434 115.434 0 014.858-13.338c3.85-8.655 5.42-10.196 7.729-12.669 2.309-2.473 2.057-7.729 2.057-7.729a22.14 22.14 0 015.204-.616c2.93 0 11.603-12.364 14.585-14.533 2.983-2.168 3.516-2.168 0-6.95-3.516-4.781-2.519.768-3.574.586-1.055-.181-1.629 2.128-1.629 2.128-.37-4.876-3.516-10.548-4.179-11.966-.662-1.419 1.606-9.734 1.137-12.049-.468-2.314 2.016-16.408 2.016-16.408s-.31-5.408-5.209-5.426a3.205 3.205 0 00-2.098.633c2.074-1.846 6.446-5.948 6.446-5.948s.31-1.963 4.137-1.36c3.826.604-1.7 11.896-1.7 11.896-.767 3.592-1.945 12.834-1.945 12.834-.357 3.844-.147 14.175-.147 14.175s1.811-6.012 1.694-8.204c-.117-2.192 3.598-7.559 4.688-8.942 1.09-1.383 5.954-.897 4.6 1.758-1.354 2.654-.756 11.081-1.289 13.659z" fill="#fff"/><path d="M91.686 265.458c3.978-10.507 8.426-20.762 18.136-32.089 1.758-2.028 9.218-6.335 9.786-7.331.569-.996 11.761-13.724 11.978-15.617.217-1.893-1.06-15.969-.527-18.535.533-2.567-.088-11.029 1.26-13.666 1.348-2.637-3.516-3.117-4.6-1.758-1.084 1.36-4.788 6.774-4.688 8.943.099 2.168-1.694 8.204-1.694 8.204s-.211-10.332.147-14.176c0 0 1.172-9.241 1.945-12.833 0 0 5.52-11.298 1.7-11.896-3.821-.598-4.138 1.359-4.138 1.359s-6.1 5.732-7.307 6.669c-1.207.938-2.854 15.588-4.067 15.863-1.213.276-3.24-7.032-3.24-7.032s-.106-5.678-.979-7.729c0 0 4.166-8.831 3.041-11.72-1.125-2.889-5.356-.387-6.756.961-1.401 1.348-5.99 6.897-5.99 6.897s.475-13.953-.632-15.699c-1.98-3.123-4.102-1.969-5.409-.586-.89.926-2.291 9.241-2.684 11.855-.392 2.614 0 12.036.041 13.83.041 1.793 1.336 9.346.065 11.936l-4.835-10.712s1.5-11.081-1.705-12.892c-3.205-1.81-2.707.803-3.727 6.06-1.02 5.256-3.446 9.528-1.887 12.464 1.559 2.936 3.153 14.538 3.153 14.538s1.207 17.053.674 19.127c-.534 2.075 1.816 8.685 1.816 8.685s-2.707 3.569-3.299 4.928c-2.73 6.206-9.64 12.992-17.855 23.2" stroke="#263238" stroke-linecap="round" stroke-linejoin="round"/><path d="M95.711 160.007a5.758 5.758 0 00-.984 3.417c0 2.227 1.459 14.415 1.459 14.415s-1.06 1.254-1.113 2.344m26.276 13.396c.16 2.059.69 4.072 1.564 5.942 1.372 2.708.926 4.202.458 5.802a20.667 20.667 0 00-.499 4.272m-35.265-30.672s1.02 3.235-.873 4.77m22.901-5.098s.199 1.272-1.6 1.389m13.683-16.039s-4.512-4.922-8.016-1.213" stroke="#263238" stroke-linecap="round" stroke-linejoin="round"/><path d="M103.435 161.179s-2.08-2.631-3.885-2.473c-1.805.159-4.243 1.26-4.518 2.708m28.725 42.326a10.394 10.394 0 011.565 3.44m-13.285-23.446c-1.4 2.608-.732 7.032-1.248 8.245M97.2 179.404c.328 1.5-.71 3.944-.868 5.743-.158 1.799 1.313 4.576 1.044 7.102m-9.687-6.704s-1.225 2.825-1.172 4.688c.053 1.864.715 5.948.715 5.948m-8.55-10.771s-.445 2.93.586 4.993c1.032 2.063 2.034 6.446 2.034 6.446m-.739 21.729a2.8 2.8 0 002.034-2.397m27.424 11.328s1.12 4.143-1.025 6.809m-34.533-61.044s3.153-3.076 5.538-.48m6.985-17.229s2.344-2.455 5.086.17" stroke="#263238" stroke-linecap="round" stroke-linejoin="round"/></svg>