<svg width="80" height="84" viewBox="0 0 80 84" fill="none" xmlns="http://www.w3.org/2000/svg">
<path d="M54.0934 52.0556C58.7439 50.863 62.7836 48.24 65.776 44.4702C69.4449 39.8481 71.0715 34.0762 70.356 28.2177C69.6405 22.3605 66.6694 17.1457 61.9937 13.5431C57.4636 10.0506 51.8161 8.49795 46.0916 9.17126C40.3674 9.84455 35.2339 12.6651 31.6369 17.113C28.5533 20.9262 26.8715 25.5256 26.7732 30.4142C26.6137 38.3503 23.8789 46.0557 19.0725 52.1109L13.8133 58.7365C11.4804 61.6754 11.9735 65.9642 14.9124 68.2971L19.8701 72.2323C22.809 74.5652 27.0979 74.0719 29.4307 71.1331L34.6895 64.508C39.5493 58.386 46.2445 54.0682 54.0934 52.0556V52.0556ZM29.5771 30.4707C29.6628 26.2104 31.1291 22.2012 33.8175 18.8766C40.2762 10.8898 52.1478 9.49357 60.2812 15.7642C64.3592 18.9128 66.9484 23.4518 67.5719 28.5579C68.1958 33.6653 66.7777 38.6972 63.5793 42.7267C60.9706 46.0132 57.4495 48.2997 53.3966 49.3391C45.1265 51.4599 38.0166 55.9491 32.8016 62.336L21.5936 53.4394C26.5779 46.9716 29.409 38.8368 29.5771 30.4707V30.4707ZM16.6007 59.7357L17.3066 58.8466L27.5102 69.042L27.2342 69.3896C27.0889 69.5727 26.9283 69.7359 26.7597 69.8864L16.6007 59.7357ZM19.0616 56.6356L19.8531 55.6385L31.0774 64.548L29.2652 66.831L19.0616 56.6356V56.6356ZM16.6559 66.1006C15.4761 65.1641 14.9681 63.6914 15.2006 62.3012L23.796 70.8897C23.0252 70.832 22.2635 70.5515 21.6138 70.0358L16.6561 66.1005L16.6559 66.1006Z" fill="black"/>
<path d="M36.4713 23.9017C36.8418 23.2589 37.2697 22.636 37.7431 22.0507C38.2301 21.4486 38.1367 20.5657 37.5346 20.0787C36.9363 19.5952 36.0496 19.685 35.5625 20.2872C34.997 20.9865 34.4852 21.7313 34.0414 22.5012C33.69 23.1108 33.8479 23.8742 34.383 24.2989C34.4369 24.3417 34.4947 24.3811 34.5561 24.4165C35.2271 24.803 36.0845 24.5727 36.4713 23.9017Z" fill="black"/>
<path d="M29.6924 45.7151C29.806 45.8053 29.9359 45.8793 30.0795 45.9324C30.8061 46.2003 31.6124 45.8284 31.8802 45.1019C33.6012 40.4341 34.5246 35.5454 34.6244 30.5719C34.641 29.7498 34.7285 28.9296 34.8848 28.1339C35.034 27.3739 34.5388 26.637 33.7788 26.4878C33.0189 26.3387 32.2819 26.8338 32.1327 27.5938C31.9454 28.5485 31.8403 29.5314 31.8205 30.5156C31.7269 35.1764 30.8617 39.7575 29.249 44.1317C29.034 44.7146 29.2308 45.3487 29.6924 45.7151Z" fill="black"/>
<path d="M57.1985 43.7919C56.832 43.1097 55.9816 42.8539 55.2996 43.2205C54.3102 43.7524 53.2481 44.1657 52.1429 44.449C51.3927 44.6413 50.9406 45.4055 51.1329 46.1556C51.2118 46.4637 51.3873 46.7214 51.6185 46.9049C51.9505 47.1684 52.3974 47.279 52.8397 47.1655C54.1641 46.8259 55.4384 46.3296 56.6272 45.6909C57.3094 45.3243 57.5653 44.4741 57.1985 43.7919V43.7919Z" fill="black"/>
<path d="M57.3606 19.8885C63.4162 24.6953 64.4321 33.5326 59.6253 39.5883C59.352 39.9326 59.0608 40.2669 58.7598 40.582C58.225 41.1422 58.2453 42.0296 58.8053 42.5646C58.837 42.5948 58.8695 42.6232 58.9032 42.65C59.4645 43.0955 60.2832 43.0476 60.7879 42.5191C61.1476 42.1423 61.4956 41.7429 61.8219 41.3319C67.5901 34.065 66.371 23.4601 59.1042 17.6919C58.4976 17.2104 57.6155 17.3118 57.1341 17.9184C56.6526 18.5249 56.754 19.407 57.3606 19.8885V19.8885Z" fill="black"/>
</svg>
