<svg width="1330" height="624" fill="none" xmlns="http://www.w3.org/2000/svg"><path d="M533 294l1.123 3.455h3.632l-2.939 2.135 1.123 3.455L533 300.91l-2.939 2.135 1.123-3.455-2.939-2.135h3.632L533 294zm-45.5-153l1.684 5.182h5.449l-4.408 3.203 1.683 5.183-4.408-3.203-4.408 3.203 1.683-5.183-4.408-3.203h5.449L487.5 141zM435 227l1.123 3.455h3.632l-2.939 2.135 1.123 3.455L435 233.91l-2.939 2.135 1.123-3.455-2.939-2.135h3.632L435 227zm-12.5-56l1.684 5.182h5.449l-4.408 3.203 1.683 5.183-4.408-3.203-4.408 3.203 1.683-5.183-4.408-3.203h5.449L422.5 171zm333 51l1.684 5.182h5.449l-4.408 3.203 1.683 5.183-4.408-3.203-4.408 3.203 1.683-5.183-4.408-3.203h5.449L755.5 222zm-707 57l1.684 5.182h5.449l-4.409 3.203 1.684 5.183-4.408-3.203-4.408 3.203 1.684-5.183-4.409-3.203h5.45L48.5 279zm270-164l1.684 5.182h5.449l-4.408 3.203 1.683 5.183-4.408-3.203-4.408 3.203 1.683-5.183-4.408-3.203h5.449L318.5 115zM640 166l1.123 3.455h3.632l-2.939 2.135 1.123 3.455L640 172.91l-2.939 2.135 1.123-3.455-2.939-2.135h3.632L640 166zM410 362l1.123 3.455h3.632l-2.939 2.135 1.123 3.455L410 368.91l-2.939 2.135 1.123-3.455-2.939-2.135h3.632L410 362zm-172-44l1.123 3.455h3.632l-2.939 2.135 1.123 3.455L238 324.91l-2.939 2.135 1.123-3.455-2.939-2.135h3.632L238 318zM98 469l1.123 3.455h3.632l-2.939 2.135 1.123 3.455L98 475.91l-2.939 2.135 1.123-3.455-2.94-2.135h3.633L98 469zm292 39l1.123 3.455h3.632l-2.939 2.135 1.123 3.455L390 514.91l-2.939 2.135 1.123-3.455-2.939-2.135h3.632L390 508zm-115-70l1.123 3.455h3.632l-2.939 2.135 1.123 3.455L275 444.91l-2.939 2.135 1.123-3.455-2.939-2.135h3.632L275 438z" fill="#FCF9BF"/><path d="M238 318l1.123 3.455h3.632l-2.939 2.135 1.123 3.455L238 324.91l-2.939 2.135 1.123-3.455-2.939-2.135h3.632L238 318zm874-167l1.12 3.455h3.64l-2.94 2.135 1.12 3.455-2.94-2.135-2.94 2.135 1.12-3.455-2.94-2.135h3.64L1112 151zM321 289l1.123 3.455h3.632l-2.939 2.135 1.123 3.455L321 295.91l-2.939 2.135 1.123-3.455-2.939-2.135h3.632L321 289zM93 367l1.123 3.455h3.632l-2.939 2.135 1.123 3.455L93 373.91l-2.939 2.135 1.123-3.455-2.94-2.135h3.633L93 367zm116 175l1.123 3.455h3.632l-2.939 2.135 1.123 3.455L209 548.91l-2.939 2.135 1.123-3.455-2.939-2.135h3.632L209 542zm524-234l1.123 3.455h3.632l-2.939 2.135 1.123 3.455L733 314.91l-2.939 2.135 1.123-3.455-2.939-2.135h3.632L733 308zm-63 171l1.123 3.455h3.632l-2.939 2.135 1.123 3.455L670 485.91l-2.939 2.135 1.123-3.455-2.939-2.135h3.632L670 479zM5 433l1.123 3.455h3.632l-2.939 2.135 1.123 3.455L5 439.91l-2.939 2.135 1.123-3.455-2.94-2.135h3.633L5 433zm48 181l1.123 3.455h3.632l-2.939 2.135 1.123 3.455L53 620.91l-2.939 2.135 1.123-3.455-2.94-2.135h3.633L53 614zM558 46l1.123 3.455h3.632l-2.939 2.135 1.123 3.455L558 52.91l-2.939 2.135 1.123-3.455-2.939-2.135h3.632L558 46zm767 344l1.12 3.455h3.64l-2.94 2.135 1.12 3.455-2.94-2.135-2.94 2.135 1.12-3.455-2.94-2.135h3.64L1325 390zM24 168l1.123 3.455h3.632l-2.939 2.135 1.123 3.455L24 174.91l-2.939 2.135 1.123-3.455-2.94-2.135h3.633L24 168zm156 28l1.123 3.455h3.632l-2.939 2.135 1.123 3.455L180 202.91l-2.939 2.135 1.123-3.455-2.939-2.135h3.632L180 196zM306 0l1.123 3.455h3.632l-2.939 2.135 1.123 3.455L306 6.91l-2.939 2.135 1.123-3.455-2.939-2.135h3.632L306 0zm121 55l1.123 3.455h3.632l-2.939 2.135 1.123 3.455L427 61.91l-2.939 2.135 1.123-3.455-2.939-2.135h3.632L427 55z" fill="#FCF9BF"/></svg>