<svg width="267" height="75" viewBox="0 0 267 75" fill="none" xmlns="http://www.w3.org/2000/svg">
<path d="M236.187 69.694L235.73 73.796L243.705 64.4728C244.659 64.5726 245.618 64.6234 246.577 64.6251" stroke="#263238" stroke-linecap="round" stroke-linejoin="round"/>
<path d="M226.196 41.402C225.148 42.9832 224.491 44.7909 224.279 46.676C223.523 53.4912 228.868 59.9372 236.943 62.9199L236.533 66.5824" stroke="#263238" stroke-linecap="round" stroke-linejoin="round"/>
<path d="M229.295 38.009C228.776 38.4296 228.283 38.8816 227.819 39.3627" stroke="#263238" stroke-linecap="round" stroke-linejoin="round"/>
<path d="M259.205 38.0091C255.564 35.5141 251.355 33.9745 246.963 33.532C242.322 32.9632 237.614 33.6555 233.333 35.5362" stroke="#263238" stroke-linecap="round" stroke-linejoin="round"/>
<path d="M252.126 64.0743C259.744 62.4979 265.516 57.6283 266.19 51.3112C266.682 46.8928 264.614 42.6326 260.916 39.3627" stroke="#263238" stroke-linecap="round" stroke-linejoin="round"/>
<path d="M233.339 42.5388C233.984 42.659 234.646 42.6505 235.288 42.5137C235.929 42.3769 236.538 42.1146 237.078 41.7418L239.926 43.951C239.726 44.0155 239.744 43.5936 239.955 43.5818C240.166 43.5701 240.324 43.7635 240.47 43.9159C241.139 44.6249 242.264 44.6484 243.219 44.4433C244.174 44.2382 245.106 43.8573 246.079 43.8924C246.657 43.9527 247.226 44.0846 247.772 44.2851C251.687 45.4981 255.759 46.1075 259.814 46.7052" stroke="#263238" stroke-linecap="round" stroke-linejoin="round"/>
<path d="M229.975 46.7052C230.561 46.6701 233.825 46.7052 234.294 46.3126L235.091 47.7014L235.97 46.8517C236.122 47.4377 236.275 48.0238 236.421 48.5746C237.083 48.7328 237.007 47.4553 237.593 47.0744C237.773 46.9861 237.98 46.969 238.173 47.0265C238.365 47.0841 238.528 47.2121 238.63 47.385C238.823 47.7449 238.916 48.1494 238.9 48.557L242.908 48.8852L243.688 48.9496C243.966 48.5247 244.379 48.205 244.86 48.0413C244.713 48.9672 245.879 49.4946 246.805 49.6821C251.364 50.6119 255.947 51.4147 260.553 52.0906" stroke="#263238" stroke-linecap="round" stroke-linejoin="round"/>
<path d="M231.757 53.0692C232.126 53.3271 232.577 52.8465 233.028 52.7879C233.48 52.7293 233.849 53.0692 234.247 53.2743C234.646 53.4794 235.302 53.3915 235.325 52.9462C235.419 53.5322 236.146 53.7431 236.738 53.8252L252.126 55.9875" stroke="#263238" stroke-linecap="round" stroke-linejoin="round"/>
<path d="M25.848 33.0514L32.0127 41.3491L30.7763 30.4906C32.2502 29.7749 33.6599 28.9339 34.9896 27.9766C41.3067 23.4058 43.8499 16.0515 41.5352 10.1271C39.912 5.98992 36.1089 3.17713 31.3037 2.01099" stroke="#263238" stroke-linecap="round" stroke-linejoin="round"/>
<path d="M1.4997 19.9602C1.30758 21.8395 1.56467 23.7375 2.24978 25.4979C4.74614 31.8853 12.4696 35.1083 21.0018 33.9949" stroke="#263238" stroke-linecap="round" stroke-linejoin="round"/>
<path d="M2.66584 15.5125C2.4041 16.1276 2.17908 16.7576 1.99194 17.3994" stroke="#263238" stroke-linecap="round" stroke-linejoin="round"/>
<path d="M29.1531 1.61253C24.7687 1.08841 20.3229 1.67688 16.2259 3.32365C11.8531 4.97719 8.00683 7.77888 5.09192 11.4339" stroke="#263238" stroke-linecap="round" stroke-linejoin="round"/>
<path d="M8.3501 17.6396C9.61071 17.2464 10.6642 16.3699 11.2801 15.2018L14.7961 15.8347C14.6437 15.9812 14.4679 15.6003 14.6496 15.489C14.8313 15.3776 15.0598 15.489 15.2356 15.5476C16.1615 15.864 17.1635 15.3659 17.9136 14.7389C18.6637 14.1119 19.3083 13.3325 20.1932 12.9223C20.7337 12.7063 21.2984 12.5568 21.875 12.4769C25.9067 11.7386 29.7918 10.379 33.6653 9.02539" stroke="#263238" stroke-linecap="round" stroke-linejoin="round"/>
<path d="M7.30701 22.896C7.82855 22.5854 10.7175 21.1029 10.9519 20.552L12.3056 21.4134C12.4345 21.0267 12.5634 20.6341 12.6865 20.2414L13.8878 21.5599C14.55 21.3959 13.8878 20.3 14.2042 19.7023C14.3221 19.5401 14.4972 19.4286 14.6941 19.3905C14.891 19.3525 15.095 19.3906 15.2649 19.4972C15.5995 19.7217 15.8685 20.0312 16.0443 20.3938L19.7419 18.8233L20.4686 18.5186C20.5102 18.0153 20.7161 17.5397 21.0546 17.1649C21.3593 18.0615 22.6368 17.9795 23.5392 17.7158C28.0123 16.4266 32.4445 15.0085 36.8355 13.4614" stroke="#263238" stroke-linecap="round" stroke-linejoin="round"/>
<path d="M11.8427 27.7013C12.2939 27.7599 12.4697 27.1153 12.8389 26.8575C13.208 26.5996 13.7003 26.7344 14.1456 26.7227C14.591 26.711 15.136 26.3418 14.9485 25.9374C15.3059 26.4121 16.0501 26.2597 16.6068 26.0605L31.2568 20.8158" stroke="#263238" stroke-linecap="round" stroke-linejoin="round"/>
</svg>
