<svg width="89" height="87" fill="none" xmlns="http://www.w3.org/2000/svg"><path d="M54.746 30.843c.607.482 1.49.38 1.97-.226l4.883-6.15a1.402 1.402 0 10-2.197-1.744l-4.882 6.15a1.402 1.402 0 00.226 1.97zm-12.833-6.649a1.402 1.402 0 102.774.412l1.153-7.765a1.402 1.402 0 10-2.775-.412l-1.152 7.765zm11.3 56.782l-2.885-7.3a1.402 1.402 0 10-2.608 1.03l2.885 7.3a1.402 1.402 0 102.608-1.03zM25.77 19.148l2.884 7.3a1.402 1.402 0 102.608-1.03l-2.885-7.3a1.402 1.402 0 10-2.608 1.03zm41.06 50.825l-6.15-4.882a1.402 1.402 0 10-1.743 2.197l6.15 4.882a1.402 1.402 0 001.744-2.197zM20.272 34.807a1.402 1.402 0 00-.226-1.97l-6.15-4.882a1.402 1.402 0 10-1.744 2.196l6.15 4.882c.607.482 1.489.38 1.97-.226zM64.283 54.97a1.4 1.4 0 00.665.288l7.764 1.153a1.402 1.402 0 00.412-2.774l-7.764-1.153a1.402 1.402 0 00-1.077 2.486zM14.034 44.867L6.27 43.714a1.402 1.402 0 10-.412 2.774l7.765 1.153a1.402 1.402 0 00.411-2.774zm48.282-3.822a1.402 1.402 0 001.82.789l7.3-2.885a1.402 1.402 0 00-1.03-2.609l-7.301 2.885a1.402 1.402 0 00-.789 1.82z" fill="#000"/></svg>