<svg width="80" height="84" fill="none" xmlns="http://www.w3.org/2000/svg"><path d="M54.093 52.056a21.679 21.679 0 0011.683-7.586c3.669-4.622 5.296-10.394 4.58-16.252a21.721 21.721 0 00-8.362-14.675c-4.53-3.492-10.178-5.045-15.902-4.372-5.725.674-10.858 3.494-14.455 7.942-3.084 3.813-4.765 8.413-4.864 13.301-.16 7.936-2.894 15.642-7.7 21.697l-5.26 6.626a6.813 6.813 0 001.1 9.56l4.957 3.935a6.813 6.813 0 009.56-1.099l5.26-6.625c4.86-6.122 11.555-10.44 19.403-12.452zM29.577 30.47a18.887 18.887 0 014.24-11.594c6.46-7.987 18.33-9.383 26.464-3.113 4.078 3.149 6.667 7.688 7.29 12.794a18.933 18.933 0 01-3.992 14.169 18.896 18.896 0 01-10.182 6.612c-8.27 2.12-15.38 6.61-20.595 12.997l-11.208-8.897c4.984-6.467 7.815-14.602 7.983-22.968zM16.601 59.736l.706-.89L27.51 69.043l-.276.348a4.003 4.003 0 01-.474.496L16.6 59.736zm2.46-3.1l.792-.998 11.224 8.91-1.812 2.283-10.203-10.195zM16.657 66.1a4.002 4.002 0 01-1.455-3.8l8.595 8.589a3.976 3.976 0 01-2.182-.854L16.656 66.1z" fill="#000"/><path d="M36.471 23.902c.37-.643.799-1.266 1.272-1.851a1.402 1.402 0 10-2.18-1.764 17.19 17.19 0 00-1.522 2.214 1.402 1.402 0 102.43 1.4zm-6.779 21.813a1.405 1.405 0 002.188-.613 44.488 44.488 0 002.744-14.53 14.24 14.24 0 01.26-2.438 1.402 1.402 0 10-2.751-.54 16.993 16.993 0 00-.313 2.922 41.692 41.692 0 01-2.571 13.616 1.402 1.402 0 00.443 1.583zm27.507-1.923a1.402 1.402 0 00-1.9-.572c-.989.532-2.05.946-3.156 1.229a1.402 1.402 0 10.697 2.717 16.854 16.854 0 003.787-1.475 1.402 1.402 0 00.572-1.9zm.161-23.903c6.056 4.806 7.072 13.644 2.265 19.7-.273.344-.564.678-.865.993a1.402 1.402 0 002.028 1.937c.36-.377.708-.776 1.034-1.187 5.768-7.267 4.549-17.872-2.718-23.64a1.402 1.402 0 10-1.743 2.197z" fill="#000"/></svg>