<svg width="661" height="661" fill="none" xmlns="http://www.w3.org/2000/svg"><path d="M327.275 247.505c.647-.093.713-3.411.343-3.451-1.322-.119-1.824 3.675-.343 3.451zm-140.371 48.107c1.084-.396 8.078 1.071 8.078-1.15 0-1.428-7.192-3.305-8.078-2.644.07.951.467 1.848 1.124 2.539 0 .7-3.027-.08-3.292.661a1.6 1.6 0 002.168.594z" stroke="gray" stroke-miterlimit="10"/><path d="M250.347 339.344c-2.935.159-5.764-3.609-8.976-4.058-2.856-.397-3.028-.701-5.539.33 2.802-1.15-4.522-4.534-4.561-4.548-1.23-.33-2.486 3.001-3.596 2.525.225.093 1.322-2.644.198-3.675-1.124-1.031-3.12 1.455-3.226 1.388.186.106 3.134-7.376-.462-9.333-3.464-2.274-6.306-1.851-9.453-3.424-2.934-1.48-3.199-5.116-7.323-4.852 1.678-.105-3.253-4.402-1.891-3.86-2.194-.872-6.438.978-9.254.344-1.124-.238-1.851-3.12-3.477-3.12-2.485 0-1.811 4.455-2.207 5.288-1.151 2.525-1.613-6.61-.45-5.87-.833-.529-6.61 3.49-7.258 3.966-1.322.979-1.824 2.882-3.173 3.279 2.274-.674-7.271-1.732-5.288-.978-6.041-2.301-3.278-3.081-4.917-8.408-.476-1.507 1.097-2.221-.185-3.596-1.283-1.375-6.373-1.587-7.932-.582-1.111.608.145-4.177.634-4.68 1.97-1.996 2.644-6.61-.449-6.716-5.064-.132-2.565 4.35-5.711 5.91-9.466 4.706-9.889-8.606-9.585-14.198a2.12 2.12 0 000 0c.516-9.849 7.615-7.179 13.537-6.491-1.56-.186-.238-2.539 1.56-2.644a13.99 13.99 0 014.878 1.07c2.988.886 2.235 0 4.456 3.768.872 1.507 1.216 5.288 3.172 5.909.172 0-.105-13.775 1.018-15.427 1.415-2.089 4.799-4.68 5.87-6.055 2.446-3.133.093.396.397-3.239 0-.383-.979-5.566.687-5.566-.648 0 .569 4.865.502 4.905 1.666-1.15.582-2.842.661-4.151 0-1.044 5.394-2.829 5.83-3.781.186-.397-2.577 0-2.577-.079 0-1.402 4.336-1.164 4.97-1.6a12.954 12.954 0 011.838-5.05c1.956-2.023 6.835-1.573 8.342-4.667-.185.384.647 1.917 1.692 1.613-3.847 1.124-5.685 3.173-1.071 2.486 2.353-.357 5.923-2.644 7.681-3.966.106-.08-.807-1.217-.674-2.01-.08.502-2.909 2.737-3.57 2.644-4.495-.82-2.353-3.834-4.098-4.997-.465.222-.98.318-1.494.278-.476-1.613 5.434-2.83-.251-3.57-3.966-.515-5.883 5.196-8.58 5.196 1.322 0 7.284-7.245 10.1-7.932 1.124-.371 16.988-1.521 15.666-5.024-.364-.21-.739-.4-1.124-.568-1.097-1.018 2.869-2.023-1.533-2.539a5.436 5.436 0 01-.119-1.467c-.423-.291-4.865 1.547-4.865 1.533-.344-1.612 4.111-1.798 4.614-2.644 0 .067-9.532-4.56-8.673-5.697 1.759-2.274 1.745.264.608-3.266-.317-.965-4.561-6.914-4.256-7.191-2.063 1.864-.899 6.107-4.495 6.12-3.966 0-3.583-4.547-3.583-7.152 0-1.15-9.849-4.085-10.576-4.058-5.565.145-3.278.502-3.622 4.918-.066.753-.886 3.886-.807 4.336.661 3.424 3.491 4.521 1.759 8.91-.529 1.322-3.689 1.706-3.966 2.486-.304 1.044 1.229 2.101.991 3.344-.092.503.516 5.222.199 5.077-2.102-.992-1.177.965-3.53-1.137-2.644-2.367-.807-5.791-2.353-7.589-.609-.727-8.289-3.635-9.995-4.415a10.654 10.654 0 00-7.403-1.163c.674-.106-.634-3.966-.925-4.403-1.666-2.829-3.464.318-2.459-5.288.251-1.401 6.517-8.13 6.61-7.932 0-.277-5.13-2.194-5.09-2.287.714-1.705 5.063 3.041 6.253-.542-.542 1.653 6.888-1.613 5.037-2.948-.78-.555-5.143 0-4.878-2.049-.172 1.322 9.346 1.851 5.565-1.52-.132-.119 3.464 0 4.191 0 .502 0-1.322-1.745-1.203-1.917.542-.542 2.446 2.644 4.944-.132 1.93-2.155-1.004-2.38-1.123-4.469 0-.238 2.974-1.044 1.983-2.538-.754-1.137-4.707-2.498-6.015-2.075-.913.29.33 4.732-2.142 6.173a3.125 3.125 0 01-.74-1.15c-1.045.066.938 3.86-.397 3.239s-1.454-3.318-1.666-3.503c-.529-.463-1.229-2.168-2.115-2.961-.886-.794-1.732 2.948-2.075 3.014-1.322.238.171-3.239.264-3.398.608-1.137-3.213-.767-3.146-.701-1.217-1.057.832-1.639 1.044-1.969-.264.423-2.935-4.35-2.935-4.323-1.758-3.966-.568 0-1.018-4.508.212 2.102 8.17-3.504 5.407-4.416-2.763-.912-6.821-1.216-7.443 1.018-.343 1.322-.145 6.346-.661 8.368-.172.648-2.34 1.693-1.586 4.271.304 1.004 6.094 2.313 3.371 4.521a1.07 1.07 0 011.124-.992c.079.172-2.962 5.738-2.644 5.5a40.976 40.976 0 01-3.49-3.57c-.159-.29 3.873-.912 4.085-1.11 1.56-1.52-2.287-1.494-2.287-1.719 0-.436 2.062-.172 1.322-.74a4.569 4.569 0 00-3.494-.849 4.556 4.556 0 00-3.024 1.946c-.714.952 5.671 3.385-2.009 4.376-3.504.45-4.931-1.322-7.932-2.023-.886-.211-.846-1.137-2.446-1.322-.555 0-4.363 1.613-3.199 2.142.846.37 3.966-1.771 4.481-1.229-2.062-2.261-2.445 6.372-3.781 5.671-.595-.317-.224-2.393-2.035-2.988-2.486-.833-8.118 1.732-9.968-.304-.899-.978 2.366-1.216 2.115-1.798-.912-2.115-6.095-2.26-7.932-2.71-1.838-.449-3.239-1.494-4.918-1.679-2.023-.211-2.789 1.23-4.667 1.23-.277 0 .384-2.512-.489-2.644a10.308 10.308 0 01-2.274 2.644c-1.798-.133-1.56-4.548-3.701-4.218 1.454-.224-3.054 3.2-2.75 3.028a60.07 60.07 0 01-5.936 3.318c-1.123-.066 6.333-4.64 6.32-4.468.079-.899-6.452 1.864-7.18 2.26-.726.397 0-1.15-1.321-.7-3.12 1.123-.9 2.088-1.653 2.908.305-.317-19.288-4.614-20.583-4.719-1.917-.159-13.828-1.508-14.542-2.327-1.322-1.428-4.72.092-6.28 1.798-1.256 1.322-10.576 3.424-10.985 5.446-.952 4.244 8.95 5.037 9.703 7.351 0 .185-11.145-.423-12.374 2.512.423-1.005 3.12 3.212 3.398 3.318 1.322.476 8.09-.979 8.117-.939 1.903 1.891-2.235 4.455-3.252 5.407-1.23 1.137-1.322-.701-2.803 1.23a24.008 24.008 0 01-2.79 2.26c.318-.291 2.248 4.032 2.314 4.085 1.177 1.031 4.786 1.018 4.363.595 1.136 1.137-.106 3.517.951 4.072.714.383 3.186.079 4.548.634-1.216-.489 3.741-2.154 3.45-1.322-.674 2.036-8.804 11.898-9.994 10.576 1.428 1.574 16.089-8.328 16.089-10.668a3.967 3.967 0 00-1.322-.741c-.33-.832 7.932-7.707 7.641-5.036 0-.278-4.93 3.767-3.794 4.812.344.304 5.804-1.587 6.61-1.904.806-.317-1.983-2.789 0-3.146.674-.119 3.279 1.414 3.384 1.322a.907.907 0 00-1.022.368.913.913 0 00-.141.359c.251.793 11.66.291 12.374.925-.344-.304 7.324 6.319 7.245 4.469a3.109 3.109 0 01-.239-2.116c3.65 2.644-1.705 3.385-1.692 3.226 0 .185 2.776 4.098 2.644 4.138.516-.278-.713-3.543.12-3.239.187.414.264.869.224 1.322.925 1.19 1.084-2.644.965-2.38.198-.515.291 5.05-.29 4.971-.847-.119 4.851-.489 3.172.331.529-.265-2.075-1.811-.635-1.93 2.221-.186.476 1.877-1.004 2.009a17.9 17.9 0 00.264 3.239c.45.33 2.486-1.587 3.517-1.401 1.03.185.846 3.966 1.414 4.759.41.568 3.266 3.437 3.636 3.966a30.346 30.346 0 006.002 4.838c-.199-.158 7.509 6.346 3.265 6.346-.159 0-4.6-11.964-9.532-8.487 1.031-.727 6.61 7.297 6.994 8.328 2.062 5.923-1.322 12.81.978 19.275 1.573 4.429 5.724 7.231 8.527 10.272a38.465 38.465 0 014.455 6.742c1.97 3.332 2.406 4.178 2.01 6.081 0 .093 8.883 9.387 8.54 9.638.846-.608-8.805-18.032-8.527-18.072 3.49-.357 3.794 5.103 4.442 6.108 1.784 2.763 5.036 5.288 6.993 7.852 3.345 4.297 3.794 8.805 6.782 11.898 1.983 2.049 6.61 3.834 9.254 4.667 3.49 1.11 7.178.066 9.994 2.816 1.322 1.229 3.318 1.322 4.217 2.181 2.473 2.274 3.49 1.137 5.804 3.517 1.56 1.599 2.009 3.067 2.908 3.966 1.481 1.454 3.966 4.217 6.201 4.375 2.234.159 1.52-2.458 2.644-2.194 4.97 1.176 4.071 7.839 2.062 11.898-2.168 4.429-4.944 5.195-2.499 9.664.172.317-2.419 4.521-2.168 5.83.476 2.485 6.029 9.849 7.324 12.427 2.485 4.891 5.658 5.393 9.175 9.386 3.212 3.648 2.194 6.61 1.639 11.58-.806 7.285-1.018 14.45-2.565 21.509-.621 2.816-5.962 17.477-3.966 20.293.913 1.322 1.322-3.688 2.168-3.966.847-.278-.542 10.933-1.427 10.312-.463-.331.515-3.636-.701-3.094 1.111-.489-2.274 4.667-2.287 4.72.132-1.454 1.732 1.771 1.798 2.287.106.899 1.956-.595 1.864.714.132-1.957-5.552 2.247-2.869 1.837a5.953 5.953 0 001.216-.938c.397-.08-2.802 3.344-.661 3.688.423.066.648-2.194 1.243-1.6 1.256 1.256-2.393 3.966-1.533 4.998.171.211 1.956-.807 2.3-.093.106.225-1.203 1.243-.992 1.322.714.264 2.34-.701 2.644.331.304 1.031-3.172.079-1.983 1.771.45.635 3.279-2.049 3.808-.291-.146-.502-3.173 1.587-3.279 1.719a33.274 33.274 0 013.728-.86c.265.582-4.138 2.288-4.257 1.785.133.569 2.644 2.142 3.067 1.745.688-.7-.912-.357-.343-1.097.396-.529 3.781-2.406 3.966-2.908a1.939 1.939 0 00-.939 1.745 6.02 6.02 0 001.534.079c-.423-.476-1.018 2.221-.86 2.142a2.139 2.139 0 01-.7-1.521c-.754-.33-.371 1.587-.476 1.507a1.018 1.018 0 00-1.23-.687c.622-.873-.767 2.644-.767 1.441 0-.674 2.142 1.97 2.089 1.917.29-.432.492-.918.595-1.428a39.578 39.578 0 003.556 2.459c.661.198-.476-1.547-.092-1.494a22.19 22.19 0 005.129-1.058c-2.379-.872-5.288-5.102-5.737-5.288-.357-.092-1.706.199-1.507-.713.198-.913 1.467.317 1.797 0 .331-.318-1.493-3.134-1.11-3.966.595-1.322 1.639-1.693 2.314-2.922.898-1.639 3.119-2.895 3.252-4.72.119-1.441-2.076-1.467-1.97-1.877.41-1.586 1.428-5.473 3.067-7.535.621-.793 2.736-2.869 2.723-2.882-.515-.436-4.561-.079-2.432-3.292-.675 1.005 4.825-.872 4.547-.714.754-.436-.105-2.974.278-3.384 1.877-1.996 8.791.899 9.571-4.429.172-1.176-3.067-5.288-3.133-5.209 1.097-1.15 6.214 1.322 9.029-1.665.701-.741 4.204-6.941 4.191-6.756a12.68 12.68 0 01-1.322 2.578c0-1.229 4.112-4.627 4.64-6.055.767-2.035-.158-4.693.899-6.61 2.129-3.728 6.901-3.014 9.545-4.679 3.398-2.155 4.376-5.288 5.42-9.254.648-2.459 0-8.726 1.322-10.695-.185.396 13.247-14.384 4.852-13.908z" stroke="gray" stroke-miterlimit="10"/><path d="M185.08 291.594c1.943-2.644-20.028-7.377-17.279-3.372-1.322-1.916 8.765.648 9.254.913 1.64.938 5.632 5.671 8.025 2.459zm-7.006 3.609c.304.568 3.146 1.322 3.437.661.291-.661-3.807-1.375-3.437-.661zm19.234.158c.661 1.15 2.644.463 2.763 0 .304-.819-3.437-1.137-2.763 0zm10.695 141.534c.899.489 2.763-1.97 1.944-2.129-.82-.159-2.803 1.666-1.944 2.129zm2.195.171c.595.318 3.054-.806 2.763-1.401-.542-1.23-3.318 1.071-2.763 1.401zm-54.123-107.491c-.753 1.229.741 2.432 1.045 1.89.304-.542-.291-3.12-1.045-1.89zm67.171-156.79c.159-2.961-4.376-1.52-5.05-1.322-.674.199 4.839 4.945 5.05 1.322z" stroke="gray" stroke-miterlimit="10"/><path d="M274.064 170.763c-.542.33-7.218-.714-7.258-.595.172-.45 2.419-3.028 2.129-3.133 1.467.555 5.684 5.565 5.883.925.158-2.71-3.808-2.71-4.389-4.957-.172-.622 5.155 1.718 4.085-1.587-.595-1.877-5.831 1.322-5.619-.687-.079.7 1.811-2.459 1.481-2.102 1.665-1.838 9.254 4.494 4.349-1.864-.198-.252 4.402-.172 4.627-1.111.225-.938-4.574-.806-3.49-2.644 1.322-2.247 4.799 1.018 2.644-3.582.079.158-5.539-1.759-4.68-2.644.859-.886 7.456 0 7.205-1.018-.635-2.406-3.9.132-4.164-1.93-.146-1.071 1.983 0 2.3-.556 1.19-1.877-5.156-.357-4.931-.185-1.719-1.322 7.033-9.479 7.284-9.135-1.6-2.141-3.067 1.428-4.204.304-1.137-1.123 6.333-2.062 6.531-2.194.634-.397-3.966-1.322-4.191-1.018.807-1.322 11.581-1.203 11.581-4.178 0-3.966-10.219-.158-11.356.212-.899.277-2.195-.886-2.816-.648-2.049.78-3.966 4.111-6.134 4.429 2.155-.318 4.6-5.526 1.084-6.148-.555-.092-6.504 4.297-6.874 2.975-.291-1.044 3.582-1.534 3.49-2.406-.185-1.851-12.639 1.044-12.665.767-.185-2.525 17.344-1.507 19.103-3.887.978-1.322-22.289-5.077-24.391-4.535-.529.133-3.689 1.256-4.045 1.322a16.268 16.268 0 00-2.195-.119c-3.966.45-7.813.186-11.766.939-.489.093 1.719 1.573 1.692 1.705-.026.133-3.463.357-2.987.979-.106-.132 4.865 3.53 4.521 3.609-2.79.595-7.932-5.777-10.708-3.715-.688.502 2.049 2.181 2.049 2.565 0 1.533-5.606-1.745-5.447-1.745-.41 0-.251 3.344-1.044 3.847 2.419-1.507-2.988-3.636-3.834-3.715a4.52 4.52 0 00-4.455 2.565c-1.256.436-3.107-1.085-4.733-.424-1.163.476 1.031 2.433-.582 3.319-.436.238-11.739.515-10.232 3.966 1.137 2.644 7.245-.119 1.824 4.309-1.48 1.203-5.763.714-7.628 1.983-8.659 5.91 8.012 2.01 7.84 5.288 0 .371-8.844.384-8.672 1.203.224 1.203 6.187 3.966 7.773 4.112 3.212.304 6.293-2.102 10.576 0 3.754 1.811 7.549 5.526 8.672 9.717 1.322 4.904-1.798 5.526 3.345 5.526a29.16 29.16 0 004.389 4.719c-.185.145-5.737-2.194-5.737-.78 0 3.305 7.746.886 5.684 6.782-.317.872-2.763-.37-3.49 1.414a8.83 8.83 0 00-.872 3.781c-.119 2.38 3.45 10.576 6.081 14.225 2.115 2.895 3.371 3.345 6.359 4.693 4.679 2.102 3.595 2.367 6.239-1.547 1.018-1.533-.555-3.014-.145-4.203.212-.622 2.234-.609 2.538-1.944.384-1.718.146-4.561.37-5.288a3.434 3.434 0 011.666.225c.225-.132 3.133-4.045 3.477-4.045a1.225 1.225 0 01.225 1.573c.568 1.784 7.244-4.165 7.376-4.27 2.552-1.851 2.182-1.97 4.456-2.975 5.036-2.155 10.708-4.045 14.806-6.464zm-170.446-20.452c1.455-.793 1.455 0 2.552-1.15a5.567 5.567 0 001.19 1.481c1.731 0 2.432-3.728 3.516-3.966s.331 3.305 2.829.886c.952-.913.74-1.759 1.666-2.777.251-.277-5.288-.092-6.028.159-2.102.74-5.804 5.42-5.725 5.367zm11.079-1.48c-2.499.198 1.321 1.824 1.242 1.427a5.535 5.535 0 00-2.895.847c-.449.634 2.499.396 2.181.515a5.51 5.51 0 00-3.001 1.071c1.6 2.34 4.323.119 5.592-.674-.661.41 3.887 1.533 4.191 1.071-.436.647-4.706 1.242-4.64 1.93.238 2.221 8.527-.727 9.756-1.322 4.112-1.798 5.288-.344 3.385-3.966.171.291-4.442-2.896-5.169-2.512-2.142 1.11 1.322 3.331.806 4.111-1.229 2.023-5.381-2.274-6.359-2.525-2.525-.529-3.001-.132-5.089.027zm27.987 17.635c3.027 2.274 6.61-6.226 4.653-6.332a1.43 1.43 0 00-.357 1.784c.212-.449-2.485-1.322-2.432-1.322-.582-.912 3.847-1.745.978-3.688-2.128-1.454-1.877 1.243-1.838 1.23.371-.186-6.372-.78-4.23 1.15.723.2 1.462.342 2.208.423 2.538 2.207-4.416 1.018-3.702.885-2.022.424 4.098 5.407 4.72 5.87zm-42.424-1.467a34.16 34.16 0 012.393 2.895c1.825 0 3.741-2.644 4.64-3.332 2.354-1.758 5.698-3.476 8.078-5.446.886-.727-10.854-4.098-12.387-3.622-4.918 1.546-.635.489-2.235 3.199-.502.833-3.146 5.195-2.815 5.605a6.18 6.18 0 002.326.701v0zm8.977-13.458c1.322.158 2.644-1.15 2.644-1.891 0-.74-3.318 1.811-2.644 1.891zm79.386 16.353a1.433 1.433 0 001.334-.918c.069-.179.101-.371.093-.563.318 1.084-5.644-2.036-6.187-2.221-1.322-.449-.489-1.665-2.644-2.155-1.467-.33-3.714 1.851-3.648 1.865-1.983-.701-1.15.145-3.398.145-1.652 0 1.137-9.056-6.041-4.72-4.336 2.644-.741 3.966-.542 6.769 0 .463-3.239-.965-3.107-3.067.119-1.904 2.499-3.609 2.499-4.812 0-2.221-7.813 2.644-8.197 4.415-.515 2.327 2.842 6.981 4.217 5.156-.357.463-3.662-.436-3.569.436.476 4.773 17.675 1.798 18.045 2.763a1.973 1.973 0 01-.872-1.322c.238-.793 6.054 3.609 6.094 3.966a4.783 4.783 0 00-1.652 1.56c1.11.926 2.34-.938 4.19.979 2.089 2.168 2.049 1.718 2.552 5.01.106.687 6.319-1.322 5.195 1.547-1.123 2.869-2.776-.741-3.596-.476-.819.264-2.948.344-4.085.687.086.736.32 1.446.688 2.089-1.758.859-4.614.093-5.962 1.322-4.958 4.244 5.288 1.666 6.702 2.115 1.415.45 9.981 10.92 12.202 7.932.556-.767-3.767-5.446-4.574-5.288 3.279-.952 8.091 4.469 6.372-1.018-.767-2.445-6.61-4.336-4.045-7.39 1.057-1.322 5.473 4.138 6.213 4.112 0 0 4.336-4.548 4.336-4.521 0-3.041-11.977-4.68-11.593-7.628a6.385 6.385 0 012.313-.569 3.834 3.834 0 00-1.943-1.071c-.199-1.811 1.917-1.718-1.124-1.718 2.208 0-3.054-2.393-3.252-2.472-.621-.199-3.014-.939-3.014-.939zM85.758 217.998c-1.388.806 1.732 4.627 2.565 4.058.251-.185-.529-5.248-2.565-4.058zm49.668-64.818c.515-.661-1.124-2.049-1.574-.899-.449 1.15.992 1.573 1.574.899zm40.4 43.983c.529-.093 1.573-2.142.225-2.062-1.349.079-1.032 2.181-.225 2.062z" stroke="gray" stroke-miterlimit="10"/><path d="M183.308 179.686c4.085-.753-3.965-3.701-2.644-2.564.886.727-2.273 3.463 2.644 2.564zm-14.092 15.666c1.203.82 2.987-1.388 2.842-2.049-.146-.661-4.257 1.031-2.842 2.049zm-14.344-42c.688 2.115 17.781 2.988 19.764 1.547 7.932-5.725-16.75-2.856-16.419-4.72a6.984 6.984 0 011.322-1.322c.608-.806-13.418-3.635-12.348-1.97 2.948 4.495 5.711.251 7.681 6.465zm-17.199 18.376c.397-.516 2.314 1.057 2.393-.08 0-.806-5.698-4.865-6.2-6.16a30.6 30.6 0 01-.384-5.288c.675-.608.608-1.322-.224-1.917a3.094 3.094 0 00-3.292.82 10.163 10.163 0 012.089 1.969c0-.383-3.742-1.732-4.112-.991-.529 1.057 1.705 4.891.992 5.288-.133 0-5.05-5.526-5.288-4.27.522.445.969.971 1.322 1.56 0 .198-2.724.079-2.578.462-1.97-5.208-3.596 1.032-5.381-.647-.185-.185 3.067-2.644-.767-2.644-1.48 0-5.288 2.128-5.777 3.371-2.221 5.288 2.763 1.401 4.852 3.014.106.079-4.415 1.256-4.415 1.877 0 2.776 10.695-.277 10.695 2.062 0 .569-9.638 0-9.254 1.56.991 4.31 13.22 3.451 15.705 3.107a18.814 18.814 0 013.966-.542c.833 0 7.681 2.353 6.861-.436-.661-2.181-2.234.661-2.776-.82a6.038 6.038 0 011.573-1.295v0zm64.342 56.449c.146.648 4.495 2.644 4.64 1.719.146-.926-4.772-2.287-4.64-1.719zm-43.375-84.515c-1.322-.741-3.04.819-1.639 1.401 1.243.489 3.041-.661 1.639-1.401zm-11.62-1.058c8.804 0-1.587-4.905-2.168-3.966-.582.939 1.136 3.966 2.168 3.966zm.898-8.13c.08 0 6.941 3.212 6.61 2.128.185.555-3.159 1.322-2.987 1.56 2.194 2.419 5.645 3.966 8.751 3.12.212 0 6.465-5.632 6.28-4.68-.251 1.322-4.614-4.415-4.852-4.6-.238-.185-9.505-5.05-10.404-4.363a1.327 1.327 0 001.11.965c0 .516-2.273.106-2.485.529.423.335.833.678 1.229 1.031-.449.873-3.067-.423-2.974 1.322a5.62 5.62 0 002.049 1.547c.053.925-4.957 0-2.327 1.441zm26.044 23.875c-1.89 4.468 7.628 3.437 7.628 2.459 0-1.494-7.086-3.728-7.628-2.459zm-20.874-15.335c-.159-.503-5.83.251-4.944.978 1.493 1.23 5.089-.489 4.944-.978zm-34.505-.093c.383-.978-2.472-.819-2.234-.489.516.741 1.864 1.481 2.234.489zm32.852 8.95c-1.203-.991-4.759 1.388-4.27 1.798 1.943 1.653 8.672 1.824 4.27-1.798zm-17.279-6.57c.595-.82-2.406-3.437-2.551-2.208-.146 1.23 1.917 3.08 2.551 2.208zm6.584 1.441c-1.785-.754.753 2.644.476 2.644a6.612 6.612 0 00-2.842-1.322c-.635.515.925 2.075.409 2.327-.806.383-2.776-3.398-3.886-3.464-2.38-.132.846 3.384.952 3.45 1.996 1.203 3.569.278 5.565.82-.277-.079 2.208 6.332 4.548.661 1.705-4.191-3.186-4.296-5.222-5.116zm-15.943-4.23c1.322-.212-5.288-1.785-5.288.74-.027 4.283 5.301-.74 5.288-.74zm-3.662-1.56c.608.277 4.865.224 4.865-.648 0-3.186-7.059.344-6.888.489a7.394 7.394 0 002.023.159v0zm22.738-6.399c.529-.978-3.146-1.758-2.234-.899.516.489 1.719 1.891 2.234.899zm-10.245 3.86c1.203-.396 1.956 0 2.247 1.151-.145.356-2.776.251-2.644.489.132.238 14.397 5.856 7.113-1.322a7.567 7.567 0 00-3.451-1.864c-6.438-.794-2.736 1.163-3.265 1.546zm41.008 52.431c.146-.859-7.31-5.962-7.707-5.91-.714.093-4.191 4.76-3.741 6.24.449 1.481 11.514-.727 11.448-.33z" stroke="gray" stroke-miterlimit="10"/><path d="M156.974 126.357c2.644-1.904.463.793.489.833a7.049 7.049 0 011.587.251c-2.988 3.503 5.579 2.935 5.539 2.274.383 5.446 10.92-1.825 12.189-.926 2.432 1.732-6.399 3.437-6.187 3.728 0 0 2.842 2.406 2.485 2.419-1.679.133-10.457-6.107-8.976-.555.343 1.322 7.244 3.966 7.244 5.182 0 0-8.698-2.644-8.91 1.151-.132 2.353 4.799-.423 4.852-.278-.767-1.705.767 5.288.767 3.966 0 1.586-6.743-4.125-6.465-.978.616.566 1.28 1.079 1.983 1.533 0 .542-5.79 1.018-4.429 2.393 1.56 1.6 19.156 2.089 20.042 0 .886-2.089-6.61-1.56-6.941-2.115 1.045 1.639 6.61-2.975 7.047-3.186 2.802-1.547 3.966.727 5.446-3.649.436-1.322-4.852-1.322-4.799-1.322 3.081-2.181 7.139-1.322 9.942-2.644 1.705-.846 11.805-6.068 11.898-6.835.092-.766-4.733-.198-5.011-.317 2.327 1.018 10.576-4.468 10.709-4.442-.661-.211-10.233-3.463-10.391-1.005a3.654 3.654 0 011.546-1.322c-1.877.741-11.276.238-12.545.304-4.31.225-8.474-.568-12.269.476-.766.212-18.402 6.002-18.732 5.288a1.66 1.66 0 001.89-.224v0zm59.834 98.383a9.253 9.253 0 00-3.596 4.151c-.185.397-3.477 3.702-2.141 4.495 3.027 1.771 5.816-2.644 6.134 1.322-.106-1.322 4.389.489 4.587.106-.079.171-1.322-3.438-.727-3.173.806.37-5.962-4.31-5.87-3.53a7.388 7.388 0 011.613-3.371v0zm-189.43-5.288c.9-.41 1.323-.912.9-1.401-.424-.49-1.587 1.745-.9 1.401zm6.359-3.675c-1.044-.41-2.102 1.256-2.247 1.242-.45-.079 3.252-.832 2.247-1.242zm17.663-9.109c-1.72 2.168-3.134 6.319.528 2.644.542-.555 1.335-4.984-.529-2.644zm-22.528-5.367c-.7-.423-1.203-.225-1.493.568a2.312 2.312 0 002.353.78c2.538-.925-.873-1.494-.86-1.348zm288.408 50.09c-.119-.925-1.837.278-1.467.542.753.569 1.599.384 1.467-.542zm37.994 9.294c0-.608-4.838 0-4.732 0-.622-.053 4.878 1.586 4.732 0zm12.652.688c.38-.551.795-1.076 1.242-1.574-1.33.272-2.619.716-3.833 1.322-.661 1.269 2.736 1.124 2.591.252zm-82.083-72.01c5.288-.291.317-8.368-2.221-6.887-.582.33-4.31 2.406-4.984 2.207a1.327 1.327 0 00-1.19-.912c-3.318 3.966.119-1.137-4.455-1.137-.952 0 .489 1.322.238 1.322-.926-.106-2.327-.383-2.552 1.322-.106.754 3.808.582 3.662.436-.145-.145-.383 1.402-.251 1.322-.106.066-3.133.133-2.869.675.093.185 2.763.277 3.226.819.846.979-.912 2.195-1.097 1.996 3.199 3.543 9.069-.965 12.493-1.163zm9.901 34.571c4.442 0 5.659-3.2 5.222-6.61-.145-1.164 2.235-1.322-.436-2.79a10.427 10.427 0 00-3.49.74c-.079 2.38.172.278-2.366 1.666-.08.08-.027 6.994 1.07 6.994zm13.604-22.21c.423-.463.926-2.248.278-2.049-.648.198-.449 2.247-.278 2.049zm-8.514 4.297c-.33-.357-1.626 1.652-1.124 1.639.503-.013 1.441-1.283 1.124-1.639z" stroke="gray" stroke-miterlimit="10"/><path d="M300.411 208.479c1.626-1.428.093 5.487.093 4.601 0-1.243 2.141.608 1.903.648.469-.364.807-.87.965-1.441.754.119-.489 2.961-.476 3.146.146 1.11 2.856-.701 3.015-.41 1.784 3.107-1.428 4.402-1.322 6.451a2.37 2.37 0 00-1.851 1.944 22.77 22.77 0 004.164.608c.093.502-5.883 1.732-4.415 3.688 0 0 10.734-2.353 11.369-3.001.634-.647-1.098-.238-1.045-.7.291-2.155 1.983-1.15 1.045-3.504a6.128 6.128 0 01-2.089-1.639c-1.203-2.036-2.38-6.412-5.288-6.2 0 0 1.877-3.12 1.679-3.609-.82-2.089-2.366.291-3.53-1.111-.396-.462 2.393-2.326 1.573-3.093-.568-.635-5.671 3.516-5.79 3.622zm30.578 6.756c-.317-.08 4.231-1.23 2.063-2.71-1.851-1.269-2.248 2.67-2.063 2.71zm12.097-7.681c-.952 0-1.322 2.062-1.15 2.406.171.344 2.088-2.485 1.15-2.406zm5.288-.608a4.86 4.86 0 001.745-1.256c1.216-1.349-3.623 1.361-1.745 1.256zm1.414-2.406c.198-.41-1.441-.225-1.071.145a.7.7 0 001.071-.145v0zm-7.324-71.177c1.414 1.217 4.177-.185 5.936.913-.066 0-3.53 1.322-3.517 1.322.859 2.221 13.22 1.084 12.387-2.34-.105-.41-8.064-1.534-7.747-1.64a1.498 1.498 0 00-.29 1.798c-.661.489-3.861-2.141-4.575-2.049a5.306 5.306 0 00-1.084 1.481l-1.322-.992c-1.414-.013 0 1.335.212 1.507zm-10.365 3.332c-2.538-.595 1.322 3.966 1.93 4.27 1.177.674 2.115-2.182 2.962-2.512.846-.331-.357 1.56.462 1.507a6.556 6.556 0 011.798-.767c.727 1.137-5.288 3.332-4.481 3.543 1.52.384 3.159-.608 4.732-.225a24.939 24.939 0 00-4.64 1.481c-.145 1.481 2.644 1.415 3.332 1.679a1.142 1.142 0 01-.82.701c-.383.515 2.102.766 2.499.529a38.659 38.659 0 002.644-3.966c.304-.384 2.71-6.148 4.203-3.781-.396-.635.609 5.023.067 4.917.634.133 6.345 1.098 6.12-1.56.119 1.322-5.909-4.402-5.803-4.322-1.877-1.534-4.68-1.785-6.015-2.116.78.185-1.243-2.511-2.208-2.829-1.401-.462.317 4.984.41 4.548 1.322-5.605-3.9-1.203-3.86-1.216a9.652 9.652 0 00-1.56-1.322 5.743 5.743 0 011.414-.582c-.436.172-9.65.529-3.186 2.023zm-1.533 3.318a6.63 6.63 0 001.19.899c-.555 0-1.163-2.869-2.247-2.538a1.428 1.428 0 001.057 1.639v0zm300.358 51.981a2.906 2.906 0 00-2.088.701c.33.409 5.182 1.546 5.182.449a4.718 4.718 0 00-3.094-1.15zm-82.294 51.518c-.251-1.666-3.966 5.473-2.102 4.442-.33.185 1.56-1.057 1.507-.78a15.074 15.074 0 00-.991-1.322c0 .397 10.761.304 10.219-4.376.29 2.539-9.003-1.665-7.932-2.392.105-.093-.701 4.164-.701 4.428zm-19.91 23.029c.529 1.071 1.032-1.493 1.322-.211 0 .185-.713 4.045.529 3.768 1.018-.225 2.856-3.9 1.322-4.561-.449-.146-4.521-1.706-3.173 1.004zm5.936-.436c.371-1.626 2.644.304 2.644-2.247 0-1.322-2.644 0-2.776.238-.436.806-.238 3.596.132 2.009z" stroke="gray" stroke-miterlimit="10"/><path d="M538.345 260.579s-8.223.371-7.589 3.253c.08.37 6.928-.648 7.417-.754-1.534.357 1.467 1.084 1.824 1.058 1.164-.093.278-1.693.489-1.825 1.322-.806 5.288.714 6.61-1.123 1.058-1.441 3.464-11.356 1.6-12.427-2.34-1.322-3.503 6.187-4.601 7.72-.885 1.216-5.499 1.547-5.75 4.098zm-42.45 33.963c.348-.707.649-1.435.899-2.182-.198-.753-4.429-.185-3.569 1.441.092.199 2.525 3.504 2.67.741zm17.503-6.61c.82-.622 2.75-4.799 2.102-5.751-2.168-3.16-3.886 7.165-2.102 5.751zm-1.546 11.422c-1.15 3.807 11.145 8.897 8.607 11.818 4.085-4.693-4.693-6.61-5.592-8.751-.899-2.142 3.159-5.209 0-7.047-2.116-1.256-2.962 3.821-3.015 3.98zm-2.142 11.924a10.59 10.59 0 00-2.141 3.067c-.212-.41 4.323-3.265 3.49-5.09a2.811 2.811 0 00-1.349 2.023v0zm3.093-6.346c.146.767.503 2.354 1.6 1.97 1.097-.383-1.705-2.512-1.6-1.97zm7.034 6.571c-.397-.542-1.389.462-1.243.872.145.41 1.639-.383 1.243-.872zm1.653.925s-7.271 4.72-6.042 4.601c1.229-.119 1.732-1.838 2.988-.952 1.256.886.489 3.741 2.895 3.741-1.798 0 1.917-3.847 1.745-3.173a4.06 4.06 0 00-1.586-4.217v0z" stroke="gray" stroke-miterlimit="10"/><path d="M515.501 307.722a1.822 1.822 0 00.092 2.525c3.134-.687-1.097 2.38 1.322 2.948 2.076.502 2.221-6.266-1.414-5.473zm50.381 31.45c0 2.168-5.566.82-5.645 1.481-.304 3.146 8.567.106 6.742-2.181-.608-.186-.978.039-1.097.7zm2.248-.211c1.493-.437-1.164-2.327-1.481-2.406.489.105.991 2.538 1.481 2.406zm-9.585 3.82c1.322.093-4.297-4.68-5.592-5.42-2.908-1.652-8.553-4.217-11.462-4.045-.846 0-2.022 2.644-3.054 2.459-2.075-.384-.885-2.644-2.366-3.213-1.322-.515-1.322-1.93-3.556-1.599-.384.066-2.552 1.771-1.785 1.943.423.092 4.812 2.538 4.839 1.785 0 .343-2.644.33-2.935.37-1.216.224 4.574 3.067 4.944 3.239 2.552 1.242 4.402.978 5.883 3.582 1.481 2.605-2.076 2.459-1.481 3.636 1.098 2.155 9.162.251 10.021.264 2.353 0 2.314-.079 5.288 1.388-.079 0 7.231 3.649 6.451 2.353-.356-.515-6.662-6.821-5.195-6.742zm-111.934-30.895c-1.084.132-1.11 6.438.146 6.941 3.503 1.427 2.723-7.285-.146-6.941zm-53.025 40.361c0 .066-2.34 4.085-2.737 4.495-1.057 1.057-3.834 1.705-4.666 2.644-2.301 2.644-.754 3.847-1.151 7.76-.29 2.763-3.543 13.92 3.966 10.285 4.297-2.089 3.411-14.37 5.024-18.402.212-.529 1.322 1.189 1.322-1.045s-1.269-3.794-1.758-5.737zm7.324-45.689c.555.635 1.652-.105 1.718-.357.066-.251-2.353-.356-1.718.357zm178.668 41.273c.145.82 1.322 1.322 1.719 1.031.396-.29-1.878-1.877-1.719-1.031zm-5.314-5.05c0 .212 1.15 1.481 1.414 1.322.264-.158-1.348-1.705-1.414-1.322zm5.605 3.292c.41-.291-2.314-1.93-2.353-1.401-.04.528 1.943 1.692 2.353 1.401zm-8.765-5.579c-.093.489 1.507 3.094 2.102 2.644 1.058-.74-2.036-3.133-2.102-2.644zm10.232 5.5c-.383.899 1.111 2.459 1.322 2.498.212.04-.978-3.199-1.322-2.498zm1.309 3.649c0 .198 1.044 1.189 1.534.819.489-.37-1.666-1.176-1.534-.819zm-53.461 2.617c.37.331 2.234-.079 2.168-.568-.066-.489-2.737.079-2.168.568z" stroke="gray" stroke-miterlimit="10"/><path d="M568.83 383.816s-.899-5.42-.436-5.208c-3.186-1.494-7.826-8.131-10.127-11.634-1.731-2.644-2.26-5.46-3.648-8.752-.714-1.705-2.195-.423-2.644-1.533-.741-1.626 0-5.024-1.6-6.518-1.216-1.137-1.864 8.131-1.877 8.17-1.692 4.812-.688 4.892-5.024 3.358-1.242-.449-4.984-2.366-5.288-3.966-.277-1.388 2.988-3.728 2.552-4.6.33.661-7.853-2.327-8.025-2.248-.211.529 0 .939.635 1.23-2.248-2.644-5.949 6.768-4.839 6.61.529-.066-3.344-.608-2.274 0-2.776-1.613-2.353-3.213-5.671-.833-2.155 1.56-1.388 3.649-2.644 5.037-.33.37-.555-1.891-1.071-1.547-1.784 1.203-.396 2.75-2.009 4.072-1.996 1.626-3.001 1.731-5.196 2.829-2.882 1.414-4.931 1.851-7.429 4.204a1.235 1.235 0 01-.185-1.15c0 .594-.714 2.458-.794 3.45-.079.991.952 4.825.675 5.407a1.978 1.978 0 01-1.005-.939c.202.425.366.868.489 1.322-.41-.317-.806-.647-1.203-.978-.476 1.19 3.12 7.522 3.464 8.937.172.727.132 7.575-.172 6.94 2.3 4.72 5.632 1.494 9.439.37 3.12-.912 5.129-1.573 8.143-2.71 2.327-.872 7.271-2.644 9.81-2.221 1.56.252 9.359 6.359 7.575 7.166.542-.238 3.754-4.231 3.966-4.046 1.004.939-1.626 3.477-1.759 4.059-.475 2.287 2.644-1.798 1.798-1.137 1.124-.899.595 2.789.49 2.498-.106-.29 3.688 4.879 4.045 5.169 2.141 1.851 7.469.133 7.416.106a3.29 3.29 0 010 1.243c-.489-.608 1.772.753 2.314 1.322-1.098-1.044 6.266-3.345 6.055-3.107 1.123-1.322 1.771-7.125 2.644-9.016.542-1.547 2.762-10.827 3.41-11.356z" stroke="gray" stroke-miterlimit="10"/><path d="M539.772 400.262c.41.41 1.785.291 2.01-.291.225-.582-2.406-.079-2.01.291zm16.909 11.409a13.589 13.589 0 01-2.882-.912c.502-.146.092 7.747 4.309 5.526 2.129-1.177 2.949-5.143-1.427-4.614zm36.21 13.775c.264.079 1.123-.159.634-.82-.489-.661-1.269.635-.634.82zm16.908-20.755c-1.005 1.837-3.199-2.763-3.398-2.75a.968.968 0 000 1.031c.172-.264-3.318-5.01-4.045-5.01-.079 0 2.512 5.129 2.737 5.764.78 2.273-1.785 2.181-1.693 3.424 0-.093 1.864 5.288 1.759 5.169 2.141 4.019 6.702-11.409 4.64-7.628zm-6.094 6.61c-2.102-1.64-14.741 9.65-10.92 12.215 3.821 2.565 12.691-10.788 10.92-12.215zm8.302-49.073c.409.172 1.758-.317 1.758-1.018 0-.701-2.38.82-1.758 1.018zm-2.314 2.221c.634.661 1.904.608 1.943-.569.04-1.176-2.512-.013-1.943.569zM392.832 131.658a2.74 2.74 0 00-1.587.991c.701 1.534 7.166-1.546 7.192-1.983.106-2.036-5.222.41-5.605.992zm9.334.872c0-.872-2.644.093-2.089.278.555.185 2.089.595 2.089-.278zm-11.726-1.308a6.859 6.859 0 012.842-.608c.331-.899-5.764 0-5.579.502a1.847 1.847 0 001.345.664 1.837 1.837 0 001.392-.558v0zm2.551 43.705c1.455 1.467 2.34-.661 3.094-.978 1.031-.41-5.777-1.745-3.094.978zm10.721-16.525a62.307 62.307 0 00-5.684 6.346c0 .158 2.882 2.564 2.644 2.644-.251-.516-.159-.899.277-1.137-.264 0 7.218 6.266 7.549 2.644.092-.965-3.292-3.041-3.437-4.389-.146-1.349 1.322-2.737 1.89-3.966a20.564 20.564 0 013.398-4.482c2.221-2.049 18.323-8.805 17.609-9.413-1.719-1.467-16.076 3.226-18.402 4.68-1.256.873-5.804 7.073-5.844 7.073zm157.477-3.437a4.526 4.526 0 004.046-.886c.343-3.768-16.274 0-4.046.886zm-12.771 1.903c0-.819-2.644.304-1.586.714.595.225 1.586.106 1.586-.714zm-70.779-14.647c1.004.621 9.967-.873 10.272-2.644.304-1.772-5.196-2.274-5.024-.899-.992-7.8-3.953 4.349-5.248 3.543zm-7.734-7.721a4.725 4.725 0 00-1.15 1.64c2.512 2.406 8.632 4.256 9.161 0 .45-3.61-8.011-2.618-8.011-1.64zm-2.644-1.533c1.626.753-1.428.833-1.613.938-.872.437 3.239.199 3.966-.105.727-.305 6.187-1.904 5.182-3.134-4.032-5.076-8.315 1.944-7.535 2.301zm31.926 22.923c-1.15 2.525 2.023.754 2.049.331a1.326 1.326 0 00-.944-.662 1.312 1.312 0 00-1.105.331v0zm-95.871-25.382c.806.899 5.671.991 5.883-.595.066-.542-4.046-1.322-4.297-1.23.701-.105-1.15 2.301-1.586 1.825zm62.649-1.415c.199-.819-3.106-.462-2.247.318.304.277 2.049.502 2.247-.318zm149.201 39.594c.225.172 4.627-.132 3.755-1.163-2.063-2.472-6.478 1.044-6.148 1.216.794-.04 1.587-.053 2.393-.053zm-73.146-15.203a7.934 7.934 0 005.447 1.097c1.322-.251 4.772-2.287 3.463-2.749.622.224 2.446 4.389 3.517 1.163.899-2.644-1.639-2.036-3.966-2.79-.198-.066-4.297-.171-4.323-.171.621-.119-8.011 1.348-4.138 3.45zm10.391 6.993c2.644-.634-6.848-3.807-4.984-.872.595.952 4.098 1.097 4.984.872z" stroke="gray" stroke-miterlimit="10"/><path d="M628.082 185.886l1.891.437c.489 0-.622-.648-.476-.741-.569.357 3.344-.991 2.446-1.322.066 0-7.668-4.6-7.774-3.001.119-1.784.78 2.882.516 2.023-1.428-4.72-11.079-9.889-16.486-11.052-3-.648-8.117-.542-9.941.304.145-.079 1.229 2.314-.251 3.226-.688.423-3.966-2.459-3.199-2.816.766-.357 1.731 1.256 1.93-.278.145-1.242-6.333.503-7.271.635a35.828 35.828 0 01-4.707-.357c-2.049-.198-.951 1.613-1.798 2.023.728-.344-2.644-3.253-2.644-3.226-2.948-2.499-2.525-2.961-8.011-3.384-1.679-.133-9.888 0-10.721-2.499-.238-.74 2.498.145 1.771-1.071-1.613-2.644-8.157.384-8.236.661.461-.269.903-.569 1.322-.899a7.733 7.733 0 00-1.89-.634c-.569-.926 2.644 0 2.644-.489.476-2.83-13.657-1.164-12.268.766a1.46 1.46 0 001.322 0c-.899-.502.158 3.424.066 2.234 0 .225-3.213-.37-3.742 0 .274.277.603.493.965.635 0 0-8.923-1.692-9.531-1.838-.608-.145-1.626 3.729-2.975 3.649-2.009-.119-3.543-4.904-4.561-4.838a3.589 3.589 0 001.812.357c2.551-1.494-6.359-6.782-8.263-6.386-1.388.291-1.679 3.266-2.181 3.345-.754.132-7.932-.172-8.131-1.005-.132-.449.966-1.004.503-1.123-3.702-.965-6.61.766-8.91.991-.609 0 .118-2.155-.78-2.313-.437-.08-6.465 0-5.923.674.331.119.674.211 1.018.304.092.793-7.549 2.009-7.707 2.432 1.639-4.217 14-5.288 12.995-9.743-.304-1.322.516-2.419-2.221-3.728-3.49-1.639-6.121.978-9.254.198a8.644 8.644 0 011.216-1.718c0 .344-4.376-.846-4.918-.621.371-.159 3.015-.595 2.433-1.508-1.996-3.04-6.61.833-8.276 2.05.859-.622-3.212 4.772-3.358 2.234.334.348.702.662 1.098.938.185-.581-4.68.503-4.932.41.146-.357.305-.7.476-1.044a33.949 33.949 0 00-5.446 1.044c.236.375.604.648 1.031.767-.079-.621-8.144 2.142-8.739 2.419-1.903.886-.925.807-1.745 1.904-.475 0-.965 0-1.441-.093-.171.185 1.653 1.045 1.666 1.203a8.117 8.117 0 01-1.322.093s2.01 1.19 1.097 2.023c-.542.489-3.675.224-4.574.409-12.532 2.644 0 3.49-2.432 6.809-.965 1.322-7.232-4.138-9.069-2.314-.159.159 2.023 1.679 1.533 1.811-.951.265-2.406-1.123-3.093.199-.542 1.057 4.429 2.736 4.045 3.199 0 0-5.288-1.097-5.288-1.177-1.044-1.19 1.798-4.587-.423-5.288-2.221-.7-3.53 9.981-2.644 11.198 2.393 3.252 6.861 1.533 8.368 6.491.794 2.644-4.587-3.676-2.247-2.644-1.6-.688-1.084-2.076-3.199-1.706-3.014.516-.146 2.234-1.322 3.662-1.322 1.679-3.107 4.112-4.944 4.521-.503.119-5.011-.119-4.601-1.322-.066.159 5.949-.608 6.954-3.966.634-2.128-.423-3.833-.886-6.266-.132-.701.198-8.038.251-7.932-3.556-5.856-9.479.82-9.783 4.971.08-1.15-.132 4.31-.396 3.622 0 0 6.425 4.125 2.644 4.733-2.644.449-13.22-8.884-16.486-7.02.86-.489 5.738 8.382 1.032 6.478-1.851-.754.066-.926-4.191-.542 0 0-6.808 1.137-6.28.714.529-.423 1.468-.86 1.322-1.917 0 .674-8.897 3.582-10.139 4.124-1.732.754-1.322 3.966-4.522 1.838-3.199-2.128 1.6-2.036 1.997-2.499 1.441-1.731-5.87-3.609-5.606-2.511 0-.304 1.719 5.486.344 4.481 3.424 2.472-.542 2.234-.767 2.406-3.966 3.173-3.966-.251-4.746 5.421-.132.951-3.278-.966-3.767-.582-.648-.41-1.322-.833-1.917-1.256-1.164.542-1.322 1.243-.529 2.115 1.917-1.084 2.538 4.164-.807 1.52-.819-.647-5.354-10.576-7.204-9.703 1.322-.635 20.094 8.302 14.343-1.996-1.097-1.983-12.797-6.928-13.788-5.685a2.643 2.643 0 001.243-.436c-.159-1.322-3.028 0-3.345-.304-.78-.859-2.644 1.071-3.213-1.045.106.41 3.041-.383 3.12-.793.622-3.424-5.393-.37-4.653-.343-.595 0 .317-1.851.264-1.944-1.216-2.34-2.247 1.983-2.921 1.983-.238 0 .158-2.049-.265-1.771-.806.859-1.599 1.732-2.406 2.644-.872.172 1.706-2.829 1.692-2.895-.251-1.56-2.921 1.427-2.908 1.427.833-.714-3.358 2.38-2.128 2.01-1.613.489.423-3.636.621-2.869.106.357-2.446.291-2.406.899.362.36.606.821.701 1.322a5.44 5.44 0 00-1.904-.066c.215.398.547.721.952.925a7.09 7.09 0 01-2.235-.767c.106 0 .714 2.288 0 1.851-1.242-.819-.978-2.141-2.644-1.388-.132 0-3.622 2.644-3.556 3.041.066.396 1.706-.344 1.441 1.044 0 0-2.948 0-2.842.132a21.73 21.73 0 01.41-1.533 63.567 63.567 0 01-5.024 4.455c1.322 0 4.27-3.252 5.672-1.957 0 0-.212 1.428-.238 1.441-3.966 1.587-5.077 8.025-8.739 9.625-.317.145 1.494 1.322.886 1.586-2.089.806-2.102 1.613-3.834 3.041-.132.105-1.322-1.521-1.401-.503-.198 2.089-1.23.476-2.274 2.036a1.446 1.446 0 00.899.74c-1.111-2.459-3.966 3.966-3.86 3.464-.635 3.887 1.903 2.644 2.102 3.265.568 1.997-2.314 1.058-2.182.952a11.449 11.449 0 00-.29 1.745c0 .727 1.546-.793 1.837 0 .198.529-.965 1.084-1.124 1.322-1.956 2.988 6.61.674 5.592.899 1.322-.304 2.102-2.485 2.896-2.948.476-.291 4.177 11.264 4.547 11.396 1.745.661 5.381-4.64 5.963-4.812-.238.608-.542.753-.926.436.344-3.107 4.059-5.566 3.966-7.932 0-3.094-3.503-1.626-2.366-6.174.648-2.644 2.644-2.869 3.966-4.733 1.071-1.52 2.829-5.909 4.852-6.61 9.399-3.106-2.182 7.853-2.473 8.408-.727 1.322-.198 6.69.45 7.337 2.644 2.644 7.601.688 10.47-.092.24-.395.509-.77.807-1.124-.301.351-.57.727-.807 1.124a6.604 6.604 0 013.252 1.322c.635.74-8.064 1.692-7.681 1.507-5.578 2.644-.198 2.565-1.599 4.178-1.666 2.644-2.01.634-2.644 1.203-.225.198-4.363.502-2.829 3.595 1.494 3.358-1.468 4.178-3.332 4.852.159 0-4.865.489-6.068.648-2.644.317-1.242.687-2.512-1.137-.542-.767-3.609 2.115-4.177 1.692a2.37 2.37 0 010-1.256c-.727-.198-2.935 0-2.644-1.917 0-.343 1.917 1.018 2.076.172.29-1.599-.913-.542-1.322-1.322-.225-.357 2.062-4.217.872-5.526-.806-.885-2.142 2.129-2.142 2.129-.859.859-1.692-.675-1.824 2.908 0 1.15 2.208 3.768 1.639 4.891-.423.86-5.222 1.746-6.121 2.327a43.407 43.407 0 00-4.508 4.508 23.58 23.58 0 01-3.053 3.041c-1.322.621-4.204.264-4.641.515-.991.556.913 2.063 0 2.816-.912.754-3.529-1.586-4.137-.436-1.666 3.08.819.74 2.287 3.08 2.009 3.213 5.129 7.047.462 9.413-2.168 1.11-7.482-1.745-9.254-.793-3.318 1.811-.727 1.652-1.441 4.732-1.454 6.28-1.322 8.911 3.847 10.576 3.609 1.177 7.43.437 10.431-3.582 2.38-3.199 3.807-8.752 7.443-11.012-.82.515 7.601-.952 6.901-.979 3.609.185 1.322-.33 4.442 2.063-.093-.08 11.898 10.919 8.513 10.919 1.917 0 1.322-4.851 1.454-4.97a2.37 2.37 0 012.155.727c-1.322-.397-13.22-13.22-7.403-12.903.793 0 7.046 7.112 9.043 8.236a2.58 2.58 0 010 0c-1.957-1.15 5.221 10.933 5.221 8.117 0-2.485-3.238 6.161.992 3.834a5.595 5.595 0 00-.291-1.864c.381.105.783.105 1.163 0 .622-.767-1.322-.661-.898-1.058.423-.396 2.419.741 2.128-.872-.344-1.957-1.401 0-2.128-.78.237.264-.305-3.966-.648-3.755.67.192 1.355.325 2.049.397 1.124-.502 7.125-.463 8.58-1.917-.384.383-2.406-3.212-2.274-3.966a23.879 23.879 0 012.882-4.534c.687-.979 1.004-3.226 2.432-3.887.899-.423 4.918-.264 5.143.952a8.937 8.937 0 01-2.248 1.322c-.079-.423 1.825 2.326 1.772 2.274-.053-.053 5.169-1.322 5.288-1.481.304-.529-4.706-.238-2.3-2.816.568-.595 6.2-2.644 6.61-1.837.092.198-3.966 3.966-3.821 4.679.529 2.525 8.263 3.9 8.011 6.61-.343 3.728-4.785 2.42-7.39 2.367-1.11 0-1.996-1.256-3.08-1.322-3.556-.225-5.645.595-9.003 1.533-4.309 1.203-9.082 3.437-4.085 8.527 2.34 2.393 4.627 1.322 7.271 1.428.873 0 6.187-1.15 6.901-.687.714.462-1.547 6.755-1.824 7.429l.886.41c0 .172-.001.37-.067.542 0-.172 0-.37.067-.542l-.86-.397c-2.644 6.201-7.667 4.931-14.211 3.702-1.732-.317-3.133-1.15-4.865-1.388-2.803-.384-1.322-2.644-5.05-.727-1.23.648-.886 3.133-1.018 3.186-2.208.872-11.726-2.367-14.185-4.892-2.459-2.525 1.705-4.679-.159-7.31-1.137-1.6-8.884-.159-11.078.079a43.627 43.627 0 00-7.932 2.089c-2.71.767-4.905.542-7.43 1.203-2.142.568-1.322-.331-3.16.674 1.983-1.058-4.27 4.654-3.503 3.424-.952 1.52-1.692 3.199-2.644 4.733-.687 1.19-.502 2.75-1.639 4.455-.74 1.124-2.247 1.322-3.08 2.168a29.896 29.896 0 00-5.487 8.791c-1.454 3.689-.595 4.284-.714 7.509-.119 3.001-1.057 6.2-.965 9.162.106 3.252 1.574 4.561 3.16 7.125 3.569 5.804 7.8 11.171 14.648 11.898 3.634.136 7.263-.37 10.721-1.494.45-.119 5.037-2.644 5.513-2.075a43.198 43.198 0 003.887 2.089c.608.291.37 1.758 1.15 2.115.78.357 1.652-.833 2.3-.423 3.636 2.287 2.234.304 4.085 4.495.357.925-.714 3.886-.701 4.349.08 3.768 1.494 4.323 3.689 8.144 1.811 3.133 4.111 9.254 3.622 12.889-.529 3.847-3.345 7.178-3.517 11.396-.29 2.829 3.742 9.492 4.363 12.453 1.124 5.288 2.75 8.527 4.521 13.55 2.406 6.835.344 8.316 7.932 7.364 7.377-.899 11.568-3.213 15.428-10.576a36.552 36.552 0 001.322-5.883c2.644-3.807 4.204-1.732 4.931-6.703.516-3.529-1.692-3.516.225-6.9 1.533-2.724 5.751-3.133 7.39-5.579 3.384-5.09-.132-10.708-1.097-15.864-1.045-5.513 1.771-9.492 5.565-13.59 1.56-1.706 20.24-21.39 14.436-23.532-3.966-1.494-8.447 4.23-13.021 1.322m33.895-177.611c1.521-2.141-6.61-.965-4.785.648.872.767 4.085.331 4.785-.648zm-8.526 1.032c-.767.33-1.534.608-2.314.872-1.018 1.137 5.156.952 5.553-.37.251-.806-3.345-.714-3.239-.502zm-.251-2.948a13.217 13.217 0 003.093-1.204c-.648-.885-5.195.847-5.288.543a2.648 2.648 0 002.195.661v0z" stroke="gray" stroke-miterlimit="10"/><path d="M550.124 225.136c1.057 2.644-2.102 10.193-.45 12.308-1.123-1.441 2.512.146 2.539.159.026.013-1.455-4.349-1.322-4.535 1.322-2.948 2.644-1.573 3.093-2.154.793-1.071-3.873-12.956-3.212-13.379-1.878 1.203-1.217 6.227-.648 7.601zm-119.72-64.209a4.18 4.18 0 002.644-.661c1.031-2.076-4.892.278-2.644.661zm15.864.212c-.106-.873-1.931.251-1.322.608.608.357 1.414.264 1.322-.608zm-25.488-30.631l1.507-.793c.489-1.679-4.495.396-4.31.634.884.393 1.88.449 2.803.159v0zm166.294 238.33c.106.661 4.296 4.164 4.891 3.728.595-.436-4.997-4.349-4.891-3.728zm-408.207-86.882c-.939-1.771.211 3.503.634 2.525a18.252 18.252 0 01-.634-2.525v0zm27.589 28.992c1.243.277 1.653-.146 1.203-1.243-.885-.82-1.612.833-1.203 1.243zm285.592 24.457c0-.49-1.322-.252-.886.436.437.687.886.053.886-.436zm10.312 10.549a4.238 4.238 0 001.996.066c.886-.74-4.799-1.719-4.64-1.639a1.519 1.519 0 011.692-1.322c-1.481.991-14.423-3.358-13.564-.291.331 1.296 13.934 4.058 14.516 3.186zm15.335.066c1.322 0 1.468-.172.542-.555-.661-.106-6.848.555-6.729.82.807 1.758 5.064-.199 6.187-.265zm-10.047-.661c-.476 1.177-1.639-.41-2.247.397-1.243 1.666 4.27 1.626 4.746.476.29-.661-2.261-1.415-2.499-.873zM493 328.847c3.768 3.847 1.93 7.166 8.143 7.496 5.169.265 5.46-3.847 8.818-8.051-.225.278-2.221-4.442-2.194-4.878.105-2.009 2.485-1.719 2.895-3.054.41-1.335-4.799-2.287-5.077-2.221-1.679.37-.833 3.332-3.715 3.107-.092 0-5.063 5.698-5.076 5.737.37-.885-6.412-.819-3.794 1.864zm-19.724-1.48c-.106.542.449 2.128 1.044 1.48.595-.647-.925-2.022-1.044-1.48zm2.472 4.706c-.105.264.45 1.322.794 1.031.343-.291-.49-1.903-.794-1.031z" stroke="gray" stroke-miterlimit="10"/><path d="M488.162 338.141c-.146-2.3 1.15-1.692 1.136-3.173 0-.647-2.102-2.644-2.141-1.414.403.397.758.841 1.057 1.322-.436 1.097-5.552-6.703-5.816-6.994-1.19-1.322-11.528-9.254-11.991-8.222-.331.766 7.932 12.664 9.029 14.171 1.098 1.507 9.201 11.608 8.726 4.31zm25.091 10.867c0-1.481-2.948-.687-3.093-.925-.146-.238 3.093 2.247 3.093.925zm-3.344-14.145c-.238.436 3.146 5.38 1.745 5.962 1.322-.542.145-6.028 1.441-5.394 2.459 1.203-.264 4.601 3.027 2.036-1.745 1.322.093-9.042 1.428-6.108.172.397-7.443 2.393-5.539-.714 2.075-3.397 6.702.49 8.527-3.278-1.097 2.274-5.632-.502-7.139.516-2.353 1.586-2.181 4.653-3.49 6.98zm15.718 1.255c1.439.54 2.927.943 4.442 1.203 1.851 0-5.341-4.177-4.442-1.203zm.252-8.593c0-3.675-3.054 3.9-.252 3.345 1.851-.37.252-3.411.252-3.345zm-5.619 20.505c.859-1.137 3.741-1.322 4.124-2.393.212-.635-4.428 1.414-4.865 1.467-.674.106-2.644 1.547-1.322 2.248a2.286 2.286 0 002.063-1.322zm1.93-11.806c.212.873 1.653 1.322 2.049.608.397-.714-2.287-1.626-2.049-.608zm-196.74-87.291c-.463.859.582 5.777 2.499 3.357 1.573-1.996-1.296-5.631-2.499-3.357zm10.867 5.869c.357-.079-3.834-.37-3.464.74a12.555 12.555 0 003.675 2.354 26.333 26.333 0 011.137-2.975 1.054 1.054 0 00-1.348-.119v0z" stroke="gray" stroke-miterlimit="10"/><path d="M38.338 602.885h576.577" stroke="#263238" stroke-linecap="round" stroke-linejoin="round"/><path d="M96.507 556.43s-35.02-61.5-26.943-77.139c8.078-15.639 28.74 12.493 28.74 12.493s-17.966-57.335-8.077-82.361c9.889-25.025 26.929 0 27.762 17.728.833 17.728-3.583 47.949-3.583 47.949s7.179-62.543 24.233-43.784c17.053 18.759-21.549 81.316-21.549 81.316s26.043-14.542 25.118 4.177c-.925 18.72-31.424 35.443-31.424 35.443" fill="#fff"/><path d="M96.81 544.968s-32.415-30.234-16.63-43.785c15.784-13.55 24.1 14.542 24.1 14.542s-17.45-86.525 10.814-89.658c28.264-3.133 7.469 75.063 7.469 75.063s24.1-33.367 22.474-6.253c-1.626 27.115-37.426 50.091-37.426 50.091m5.116-5.513l-21.905-23.73m17.344 25.568l5.923-69.366m-6.848 64.342l19.632-26.017" stroke="#263238" stroke-miterlimit="10"/><path d="M135.624 531.431H75.05l6.055 71.454h48.465l6.054-71.454z" fill="#263238"/><path d="M526.156 168.925l-68.533 4.257a15.126 15.126 0 00-14.185 15.296l.344 27.537-19.923 2.115 20.082 10.365a15.113 15.113 0 004.602 10.656 15.113 15.113 0 0010.799 4.256l66.536-1.216a15.126 15.126 0 0014.833-14.542l1.534-43.045a15.12 15.12 0 00-4.553-11.422 15.108 15.108 0 00-11.536-4.257v0z" fill="#fff" stroke="#263238" stroke-miterlimit="10"/><path d="M512.275 176.038h-44.882v28.264h44.882v-28.264z" fill="#8C8C8C" stroke="#263238" stroke-linecap="round" stroke-linejoin="round"/><path d="M512.275 176.038h-25.488v28.264h25.488v-28.264z" fill="#696969" stroke="#263238" stroke-linecap="round" stroke-linejoin="round"/><path d="M498.976 176.038h-18.284v28.264h18.284v-28.264z" fill="#fff" stroke="#263238" stroke-linecap="round" stroke-linejoin="round"/><path d="M239.11 202.808l-27.101-7.324 6.121-40.175a12.779 12.779 0 00-3.285-10.628 12.776 12.776 0 00-10.371-4.02l-57.547 4.759a12.753 12.753 0 00-11.101 8.795 12.724 12.724 0 00-.572 4.941l4.23 52.694a12.755 12.755 0 0012.216 11.727l44.287 1.745a12.728 12.728 0 0013.114-10.814l1.15-7.522 28.859-4.178z" fill="#fff" stroke="#263238" stroke-miterlimit="10"/><path d="M198.842 151.898H153.96v28.264h44.882v-28.264z" fill="#8C8C8C" stroke="#263238" stroke-linecap="round" stroke-linejoin="round"/><path d="M198.842 158.746H153.96v14.581h44.882v-14.581z" fill="#fff" stroke="#263238" stroke-linecap="round" stroke-linejoin="round"/><path d="M547.691 271.896h-35.258a26.876 26.876 0 00-26.876 26.876v9.928l-17.569-.674 17.622 11.501v7.443a26.887 26.887 0 0026.876 26.89h35.258a26.89 26.89 0 0026.876-26.89v-28.198a26.873 26.873 0 00-16.628-24.846 26.88 26.88 0 00-10.301-2.03v0z" fill="#fff" stroke="#263238" stroke-miterlimit="10"/><path d="M552.715 283.622h-44.882v28.264h44.882v-28.264z" fill="#fff" stroke="#263238" stroke-linecap="round" stroke-linejoin="round"/><path d="M552.953 283.622h-44.882v2.736h44.882v-2.736zm0 4.283h-44.882v2.737h44.882v-2.737zm0 4.27h-44.882v2.737h44.882v-2.737zm0 4.283h-44.882v2.737h44.882v-2.737zm0 4.284h-44.882v2.736h44.882v-2.736zm0 4.283h-44.882v2.737h44.882v-2.737zm0 4.283h-44.882v2.737h44.882v-2.737z" fill="#263238"/><path d="M529.593 283.622h-21.76v15.058h21.76v-15.058z" fill="#263238"/><path d="M508.679 284.891l.198.423.423.066-.304.331.066.462-.383-.211-.37.211.066-.462-.304-.331.423-.066.185-.423zm0 2.789l.198.423.423.067-.304.33.066.463-.383-.225-.37.225.066-.463-.304-.33.423-.067.185-.423zm0 2.777l.198.423.423.066-.304.33.066.463-.383-.225-.37.225.066-.463-.304-.33.423-.066.185-.423zm0 2.776l.198.423.423.079-.304.318.066.462-.383-.211-.37.211.066-.462-.304-.318.423-.079.185-.423zm0 2.789l.198.423.423.066-.304.331.066.463-.383-.225-.37.225.066-.463-.304-.331.423-.066.185-.423zm1.997-9.505l.185.423.423.066-.304.331.066.462-.37-.211-.384.211.066-.462-.304-.331.423-.066.199-.423zm0 2.79l.185.423.423.066-.304.33.066.463-.37-.225-.384.225.066-.463-.304-.33.423-.066.199-.423zm0 2.776l.185.423.423.066-.304.33.066.463-.37-.211-.384.211.066-.463-.304-.33.423-.066.199-.423zm0 2.776l.185.423.423.066-.304.331.066.462-.37-.211-.384.211.066-.462-.304-.331.423-.066.199-.423zm1.982-9.968l.199.423.423.066-.318.331.08.463-.384-.212-.383.212.079-.463-.317-.331.436-.066.185-.423zm0 2.789l.199.423.423.067-.318.33.08.463-.384-.225-.383.225.079-.463-.317-.33.436-.067.185-.423zm0 2.777l.199.423.423.066-.318.33.08.463-.384-.225-.383.225.079-.463-.317-.33.436-.066.185-.423zm0 2.776l.199.423.423.079-.318.318.08.462-.384-.211-.383.211.079-.462-.317-.318.436-.079.185-.423zm0 2.789l.199.423.423.066-.318.331.08.463-.384-.225-.383.225.079-.463-.317-.331.436-.066.185-.423zm1.997-9.505l.185.423.423.066-.304.331.066.462-.37-.211-.384.211.066-.462-.304-.331.423-.066.199-.423zm0 2.79l.185.423.423.066-.304.33.066.463-.37-.225-.384.225.066-.463-.304-.33.423-.066.199-.423zm0 2.776l.185.423.423.066-.304.33.066.463-.37-.211-.384.211.066-.463-.304-.33.423-.066.199-.423zm0 2.776l.185.423.423.066-.304.331.066.462-.37-.211-.384.211.066-.462-.304-.331.423-.066.199-.423zm1.982-9.968l.186.423.423.066-.305.331.08.463-.384-.212-.383.212.066-.463-.304-.331.423-.066.198-.423zm0 2.789l.186.423.423.067-.305.33.08.463-.384-.225-.383.225.066-.463-.304-.33.423-.067.198-.423zm0 2.777l.186.423.423.066-.305.33.08.463-.384-.225-.383.225.066-.463-.304-.33.423-.066.198-.423zm0 2.776l.186.423.423.079-.305.318.08.462-.384-.211-.383.211.066-.462-.304-.318.423-.079.198-.423zm0 2.789l.186.423.423.066-.305.331.08.463-.384-.225-.383.225.066-.463-.304-.331.423-.066.198-.423zm1.983-9.505l.199.423.423.066-.304.331.066.462-.384-.211-.383.211.079-.462-.304-.331.423-.066.185-.423zm0 2.79l.199.423.423.066-.304.33.066.463-.384-.225-.383.225.079-.463-.304-.33.423-.066.185-.423zm0 2.776l.199.423.423.066-.304.33.066.463-.384-.211-.383.211.079-.463-.304-.33.423-.066.185-.423zm0 2.776l.199.423.423.066-.304.331.066.462-.384-.211-.383.211.079-.462-.304-.331.423-.066.185-.423zm1.997-9.968l.185.423.423.066-.304.331.066.463-.37-.212-.383.212.066-.463-.304-.331.423-.066.198-.423zm0 2.789l.185.423.423.067-.304.33.066.463-.37-.225-.383.225.066-.463-.304-.33.423-.067.198-.423zm0 2.777l.185.423.423.066-.304.33.066.463-.37-.225-.383.225.066-.463-.304-.33.423-.066.198-.423zm0 2.776l.185.423.423.079-.304.318.066.462-.37-.211-.383.211.066-.462-.304-.318.423-.079.198-.423zm0 2.789l.185.423.423.066-.304.331.066.463-.37-.225-.383.225.066-.463-.304-.331.423-.066.198-.423zm1.983-9.505l.185.423.436.066-.317.331.079.462-.383-.211-.384.211.08-.462-.317-.331.436-.066.185-.423zm0 2.79l.185.423.436.066-.317.33.079.463-.383-.225-.384.225.08-.463-.317-.33.436-.066.185-.423zm0 2.776l.185.423.436.066-.317.33.079.463-.383-.211-.384.211.08-.463-.317-.33.436-.066.185-.423zm0 2.776l.185.423.436.066-.317.331.079.462-.383-.211-.384.211.08-.462-.317-.331.436-.066.185-.423zm1.983-9.968l.198.423.423.066-.304.331.066.463-.383-.212-.37.212.066-.463-.304-.331.423-.066.185-.423zm0 2.789l.198.423.423.067-.304.33.066.463-.383-.225-.37.225.066-.463-.304-.33.423-.067.185-.423zm0 2.777l.198.423.423.066-.304.33.066.463-.383-.225-.37.225.066-.463-.304-.33.423-.066.185-.423zm0 2.776l.198.423.423.079-.304.318.066.462-.383-.211-.37.211.066-.462-.304-.318.423-.079.185-.423zm0 2.789l.198.423.423.066-.304.331.066.463-.383-.225-.37.225.066-.463-.304-.331.423-.066.185-.423zm1.996-9.505l.185.423.423.066-.304.331.08.462-.384-.211-.383.211.066-.462-.304-.331.423-.066.198-.423zm0 2.79l.185.423.423.066-.304.33.08.463-.384-.225-.383.225.066-.463-.304-.33.423-.066.198-.423zm0 2.776l.185.423.423.066-.304.33.08.463-.384-.211-.383.211.066-.463-.304-.33.423-.066.198-.423zm0 2.776l.185.423.423.066-.304.331.08.462-.384-.211-.383.211.066-.462-.304-.331.423-.066.198-.423zm1.983-9.968l.198.423.423.066-.304.331.066.463-.383-.212-.384.212.08-.463-.304-.331.423-.066.185-.423zm0 2.789l.198.423.423.067-.304.33.066.463-.383-.225-.384.225.08-.463-.304-.33.423-.067.185-.423zm0 2.777l.198.423.423.066-.304.33.066.463-.383-.225-.384.225.08-.463-.304-.33.423-.066.185-.423zm0 2.776l.198.423.423.079-.304.318.066.462-.383-.211-.384.211.08-.462-.304-.318.423-.079.185-.423zm0 2.789l.198.423.423.066-.304.331.066.463-.383-.225-.384.225.08-.463-.304-.331.423-.066.185-.423z" fill="#fff"/><path d="M215.354 312.772h-23.175a45.33 45.33 0 00-87.953 20.876 45.332 45.332 0 0078.139 23.625 45.33 45.33 0 0011.969-30.845v-1.018l21.02-12.638z" fill="#fff" stroke="#263238" stroke-miterlimit="10"/><path d="M171.53 295.07h-44.882v28.265h44.882V295.07z" fill="#263238" stroke="#263238" stroke-linecap="round" stroke-linejoin="round"/><path d="M131.949 296.736l1.097 2.208 2.42.344-1.759 1.718.423 2.406-2.181-1.137-2.168 1.137.423-2.406-1.758-1.718 2.419-.344 1.084-2.208zm7.046-.859l.569 1.137 1.242.185-.899.873.212 1.242-1.124-.581-1.11.581.211-1.242-.912-.873 1.256-.185.555-1.137zm1.521 5.737l.555 1.137 1.256.172-.912.886.211 1.243-1.11-.582-1.124.582.212-1.243-.899-.886 1.242-.172.569-1.137zm-3.729 3.755l.555 1.123 1.256.185-.899.886.212 1.243-1.124-.595-1.11.595.211-1.243-.912-.886 1.256-.185.555-1.123zm-5.169 1.718l.555 1.124 1.256.185-.899.886.212 1.243-1.124-.582-1.11.582.211-1.243-.912-.886 1.256-.185.555-1.124z" fill="#fff"/><path d="M401.201 205.545a54.848 54.848 0 00-16.062-38.776 54.84 54.84 0 00-38.775-16.061h-19.089a54.837 54.837 0 00-54.837 54.837" stroke="#263238" stroke-width="3" stroke-linecap="round" stroke-linejoin="round"/><path d="M401.201 246.156v-40.612m-128.763 0v40.612" stroke="#263238" stroke-width="6" stroke-linecap="round" stroke-linejoin="round"/><path d="M311.821 307.087s3.424 23.915 2.736 30.063c-.687 6.147-2.049 12.294-19.129 5.459-17.08-6.834-47.817 5.473-67.634 29.375s-57.375 103.843-57.375 113.401c0 9.558 7.509 22.474 21.152 24.59 13.643 2.115 45.768-36.884 45.768-36.884s13.656 77.191 13.656 83.286c0 6.094-6.121 46.455-6.121 46.455h193.33l-7.522-49.866 13.669-109.99s56.701 77.191 68.995 80.642c12.295 3.45 31.424-2.737 36.21-17.081 4.785-14.343-2.737-29.374-12.308-40.307-9.571-10.933-69.669-107.254-80.642-116.125-10.973-8.871-41.669-9.571-52.602-6.835-10.933 2.737-29.375 6.835-34.161 4.099-4.785-2.737-4.772-28.688 0-40.308.04.026-41.63 10.959-58.022.026z" fill="#fff" stroke="#263238" stroke-linecap="round" stroke-linejoin="round"/><path d="M285.116 515.091a69.335 69.335 0 006.729 2.208m-41.987-46.032s3.041 26.545 28.053 40.453m49.747-118.2l13.299 19.433m118.213-.859l3.517-7.324m-9.215-2.049l-9.121 40.308 11.21-23.386m38.867 55.708s14.437-9.254 28.648-9.254" stroke="#263238" stroke-linecap="round" stroke-linejoin="round"/><path d="M465.053 503.074a197.037 197.037 0 0026.163-16.948 58.531 58.531 0 0141.643-11.792c13.629 1.467 21.006 18.415 21.363 35.376.357 16.962-8.844 27.26-25.422 29.838-16.578 2.578-36.117-1.097-48.266-4.045a160.262 160.262 0 00-19.539-3.689s-15.838-24.325 4.058-28.74z" fill="#fff" stroke="#263238" stroke-linecap="round" stroke-linejoin="round"/><path d="M554.223 509.71c-.357-16.961-7.734-33.909-21.364-35.376a58.532 58.532 0 00-41.643 11.792l-1.851 1.414c15.864.542 47.936 7.02 42.912 51.32 14.384-3.45 22.289-13.431 21.946-29.15zM311.82 307.087s3.424 23.915 2.737 30.063c-.516 4.613-1.415 9.254-9.03 8.355 10.894 17.807 42.529 59.609 72.049 2.644-3.437.211-6.213 0-7.694-.82-4.772-2.737-4.772-28.687 0-40.308 0 .066-41.669 10.999-58.062.066z" fill="#fff" stroke="#263238" stroke-linecap="round" stroke-linejoin="round"/><path d="M311.82 307.087s.886 6.214 1.666 13.115a60.533 60.533 0 0025.646 6.98 49.526 49.526 0 0027.908-8.078 49.419 49.419 0 012.842-12.017s-41.669 10.933-58.062 0zm-37.545-82.678h-3.768a8.381 8.381 0 00-8.381 8.382v32.072a8.38 8.38 0 008.381 8.381h3.768a8.381 8.381 0 008.382-8.381v-32.072a8.382 8.382 0 00-8.382-8.382z" fill="#263238" stroke="#263238" stroke-linecap="round" stroke-linejoin="round"/><path d="M274.487 224.449h-4.204v48.756h4.204v-48.756z" fill="#fff" stroke="#263238" stroke-linecap="round" stroke-linejoin="round"/><path d="M403.462 224.409h-3.768a8.382 8.382 0 00-8.382 8.382v32.072a8.381 8.381 0 008.382 8.381h3.768a8.38 8.38 0 008.381-8.381v-32.072a8.381 8.381 0 00-8.381-8.382z" fill="#263238" stroke="#263238" stroke-linecap="round" stroke-linejoin="round"/><path d="M403.686 224.449h-4.204v48.756h4.204v-48.756zm-163.571 38.523a9.638 9.638 0 00-7.654 5.103c-3.067 5.103-12.758 23.981-11.74 29.6 1.018 5.618 43.375 45.411 43.375 47.962 0 2.551-33.671 48.478-56.132 68.889-22.461 20.412-40.308 43.362-43.375 61.738-3.067 18.376 7.655 33.671 18.892 36.738 11.237 3.067 24.999-3.569 40.81-23.479 15.811-19.909 59.199-106.645 65.835-136.166 0 0 1.521-13.22-4.6-20.927-6.121-7.707-21.43-25.514-21.43-25.514s3.067-35.205.516-37.757c-2.552-2.551-5.103 3.067-5.103 3.067s-2.367-11.805-5.619-11.237c-3.556.635-4.587 5.103-4.587 5.103s-2.551-10.272-9.188-3.12z" fill="#fff" stroke="#263238" stroke-linecap="round" stroke-linejoin="round"/><path d="M259.509 272.16s-7.324 29.309-6.61 34.253m-3.596-40.387s-7.76 28.502-8.752 32.468a9.768 9.768 0 001.243 7.681m-1.679-43.203s-10.96 30.565-10.96 33.79c0 3.226 2.486 7.179 2.486 7.179" stroke="#263238" stroke-linecap="round" stroke-linejoin="round"/><path d="M230.359 390.691a269.155 269.155 0 01-22.395 23.796c-22.474 20.398-40.308 43.361-43.375 61.737-3.067 18.376 7.655 33.671 18.892 36.738 11.237 3.067 24.999-3.569 40.81-23.478 9.108-11.449 27.325-45.028 42.423-77.113-23.003-6.107-32.495-15.626-36.355-21.68zm51.849-191.585s-.886 71.031 1.784 84.357c2.671 13.326 26.639 35.959 54.202 36.844 27.564.886 49.285-24.417 51.942-37.743 2.657-13.325 0-66.589-.437-87.899-.436-21.311-31.08-40.401-62.134-35.523-31.053 4.879-47.129 23.082-45.357 39.964z" fill="#fff" stroke="#263238" stroke-linecap="round" stroke-linejoin="round"/><path d="M349.696 227.966s1.771 12.426 3.556 15.084c1.785 2.657 4.878 6.226-1.322 8.883-6.2 2.658-11.105-.449-11.105-3.556" stroke="#263238" stroke-linecap="round" stroke-linejoin="round"/><path d="M356.358 271.909s-23.981 3.067-34.636-7.509c0 0 2.644 16.432 10.655 19.103 8.011 2.67 23.981-11.594 23.981-11.594z" fill="#fff" stroke="#263238" stroke-linecap="round" stroke-linejoin="round"/><path d="M325.278 228.402l2.221 7.099" stroke="#263238" stroke-linecap="round" stroke-linejoin="round"/><path d="M315.509 235.065s6.213 3.966 17.754.436" stroke="#263238" stroke-width="2" stroke-linecap="round" stroke-linejoin="round"/><path d="M368.785 228.402l2.221 7.099" stroke="#263238" stroke-linecap="round" stroke-linejoin="round"/><path d="M359.016 235.065s6.213 3.966 17.767.436m-64.381-19.526a23.304 23.304 0 0118.641-9.32m23.98-.899s12.877-3.543 21.761 6.61" stroke="#263238" stroke-width="2" stroke-linecap="round" stroke-linejoin="round"/><path d="M338.433 224.74a12.268 12.268 0 01-.159 12.665l-.251.396a20.666 20.666 0 01-17.543 9.744h-2.776a16.117 16.117 0 01-13.934-8.025v0a13.377 13.377 0 01-.767-11.898 13.358 13.358 0 0111.475-8.157l12.638-.793a12.235 12.235 0 0111.317 6.068v0zm14.541 0a12.268 12.268 0 00.159 12.665l.251.396a20.656 20.656 0 007.51 7.144 20.647 20.647 0 0010.033 2.599h2.776a16.116 16.116 0 0013.934-8.024v0a13.34 13.34 0 00.767-11.898v0a13.352 13.352 0 00-11.475-8.157l-12.625-.793a12.253 12.253 0 00-11.33 6.068v0zm-13.048 2.327s3.966-3.107 11.541 0m-16.868-6.65h21.76m-53.383 7.192h-20.768" stroke="#263238" stroke-linecap="round" stroke-linejoin="round"/><path d="M361.686 180.453s11.502 36.937 28.965 46.482c-.383-12.665-.832-24.563-.991-32.27-.45-21.311-31.08-40.401-62.134-35.523-31.054 4.879-47.063 23.082-45.292 39.964 0 0-.145 11.594-.132 26.308 14.991-6.464 54.466-24.47 79.584-44.961z" fill="#263238"/><path d="M279.128 215.711s58.234-24.418 89.711-55.419m-94.418 35.694s61.064-14.092 96.295-51.201m2.34 19.725s.938 23.954 26.307 46.032" stroke="#737373" stroke-linecap="round" stroke-linejoin="round"/><path d="M366.445 313.565s0 16.102-12.07 41.762c-12.069 25.66-12.585 51.32-4.534 70.436 8.051 19.116 29.692 26.678 52.88 18.125 23.188-8.553 26.162-46.799 23.651-69.947-2.512-23.148-25.118-50.316-30.195-63.906-5.076-13.59-8.553-20.623-8.553-20.623s-13.088 18.112-21.152 22.13l-.027 2.023z" fill="#263238"/><path d="M374.932 295.56a126.395 126.395 0 01-8.447 64.778c-14.093 33.816-3.292 69.986 13.154 77.495 16.445 7.509 32.402 4.706 40.387-5.632" stroke="#737373" stroke-linecap="round" stroke-linejoin="round"/><path d="M381.04 288.051s15.97 37.571 9.4 65.756c-6.571 28.185-3.755 63.945 15.969 70.925 19.725 6.98 31.001-6.98 31.001-6.98" stroke="#737373" stroke-linecap="round" stroke-linejoin="round"/><path d="M400.301 312.468s13.617 51.664 13.617 78.434c0 26.771 16.446 22.553 20.676 9.399" stroke="#737373" stroke-linecap="round" stroke-linejoin="round"/><path d="M366.445 313.565s0 16.102-12.07 41.762c-12.069 25.66-12.585 51.32-4.534 70.436 8.051 19.116 29.692 26.678 52.88 18.125 23.188-8.553 26.162-46.799 23.651-69.947-2.512-23.148-25.118-50.316-30.195-63.906-5.076-13.59-8.553-20.623-8.553-20.623s-13.088 18.112-21.152 22.13l-.027 2.023z" stroke="#263238" stroke-linecap="round" stroke-linejoin="round"/><path d="M428.54 455.994l-85.833-3.462a6.86 6.86 0 00-7.133 6.579l-4.78 118.513a6.86 6.86 0 006.579 7.132l85.834 3.463a6.861 6.861 0 007.132-6.579l4.78-118.514a6.86 6.86 0 00-6.579-7.132z" fill="#263238" stroke="#263238" stroke-linecap="round" stroke-linejoin="round"/><path d="M472.272 503.933s-43.944-13.669-51.439-15.97c-7.496-2.3-50.673 29.944-52.391 34.544-1.719 4.601 4.6 4.614 4.6 4.614s-2.644 4.601 1.322 6.901a23.842 23.842 0 003.966 2.155s-2.3 5.182 2.301 6.914c4.6 1.732 10.946-2.882 10.946-2.882l10.364-7.483s-12.453 15.243-9.796 18.429c3.662 4.363 6.002-.317 6.002-.317l14.317-16.961 14.384-6.914s11.514 6.914 29.943 7.482c18.429.569 22.474-7.482 22.474-7.482" fill="#fff"/><path d="M472.272 503.933s-43.944-13.669-51.439-15.97c-7.496-2.3-50.673 29.944-52.391 34.544-1.719 4.601 4.6 4.614 4.6 4.614s-2.644 4.601 1.322 6.901a23.842 23.842 0 003.966 2.155s-2.3 5.182 2.301 6.914c4.6 1.732 10.946-2.882 10.946-2.882l10.364-7.483s-12.453 15.243-9.796 18.429c3.662 4.363 6.002-.317 6.002-.317l14.317-16.961 14.384-6.914s11.514 6.914 29.943 7.482c18.429.569 22.474-7.482 22.474-7.482" stroke="#263238" stroke-linecap="round" stroke-linejoin="round"/><path d="M378.422 536.177s16.142-11.079 20.161-15.084c4.019-4.006 17.04-12.374 21.059-12.374m-17.608 24.047s7.932-8.963 10.919-10.299a893.793 893.793 0 007.351-3.344m-47.262 7.998s22.475-15.864 30.169-20.531c4.6-2.807 9.404-5.269 14.37-7.363" stroke="#263238" stroke-linecap="round" stroke-linejoin="round"/></svg>