<svg width="51" height="25" fill="none" xmlns="http://www.w3.org/2000/svg"><path d="M4.03 10.539a32.712 32.712 0 01-2.762 4.085c-.342-.497-.717-.97-1.124-1.415A39.144 39.144 0 006.437.492l2.168.647c-.106.265-.33.318-.621.291a56.994 56.994 0 01-2.486 6.187l.754.212c0 .158-.172.29-.516.304V24.75H4.031V10.54zm17.887.634c.212-.965.476-2.432.701-3.847h-5.195v15.256c0 1.877-.675 2.221-4.337 2.221a7.017 7.017 0 00-.647-1.798h2.815c.344 0 .45-.105.45-.45V7.327H11.5a23.055 23.055 0 01-2.644 4.945A7.085 7.085 0 007.534 11.2 28.278 28.278 0 0011.844.558l2.168.581c0 .186-.225.291-.569.265a40.69 40.69 0 01-1.322 4.283h12.467a45.598 45.598 0 01-1.177 5.738l-1.494-.252zm-8.355.86c-.079.185-.264.29-.581.29a25.646 25.646 0 01-3.966 8.726 8.335 8.335 0 00-1.388-.9 23.715 23.715 0 003.82-8.75l2.115.634zm9.48 8.804a36.196 36.196 0 00-3.584-9.016l1.547-.542a34.926 34.926 0 013.715 8.924l-1.679.634zM35.534 5.951l.992.251-.16.37a34.158 34.158 0 01-2.51 11.238 18.443 18.443 0 013.106 2.842l-1.071 1.44a17.733 17.733 0 00-2.79-2.722 14.133 14.133 0 01-5.168 5.46 8.143 8.143 0 00-1.098-1.441 12.348 12.348 0 004.905-5.09 34.536 34.536 0 00-2.975-2.01l-.317 1.15-1.494-.78c.661-2.3 1.468-5.618 2.221-8.99h-2.644V6.018h2.975c.423-1.956.78-3.833 1.097-5.512l2.142.264c0 .185-.185.29-.516.317-.29 1.494-.66 3.186-1.044 4.931h3.966l.383-.066zM30.828 7.67a253.094 253.094 0 01-1.706 7.02 41.426 41.426 0 013.319 2.075 30.727 30.727 0 002.168-9.095h-3.781zm19.936 4.495v1.692h-6.306v8.646c0 2.01-.78 2.326-5.407 2.274a8.878 8.878 0 00-.648-1.745h3.133c.886 0 1.15 0 1.15-.556v-8.672h-6.398v-1.692h6.398V7.67h.86a26.44 26.44 0 003.873-4.257h-10.06V1.761H48.74l.343-.106 1.389.872a.846.846 0 01-.423.251 32.814 32.814 0 01-5.592 6.042v3.239l6.306.106z" fill="#263238"/></svg>