<svg width="89" height="198" viewBox="0 0 89 198" fill="none" xmlns="http://www.w3.org/2000/svg">
<path d="M49.811 192.581C48.1168 192.58 46.4246 192.465 44.7459 192.237C37.3041 191.237 26.4527 187.321 17.0767 174.802C1.5209 153.942 0.9144 136.965 0.684915 129.706C0.684915 128.608 0.684915 127.756 0.537389 127.133C0.127595 123.856 0.53739 119.989 2.45522 119.186C2.94698 118.956 3.94688 118.792 5.01234 120.087C5.70247 121.049 6.11113 122.183 6.19254 123.364C6.53677 125.462 6.93018 127.854 11.569 130.558C21.273 136.178 53.5975 156.924 62.5474 187.731C62.5954 187.854 62.6172 187.985 62.6114 188.117C62.6056 188.249 62.5724 188.379 62.5138 188.497C62.4552 188.615 62.3726 188.72 62.2712 188.805C62.1698 188.89 62.0519 188.952 61.9249 188.989C61.798 189.026 61.6648 189.035 61.5338 189.018C61.4029 189 61.2771 188.955 61.1645 188.886C61.0518 188.817 60.9549 188.725 60.8797 188.616C60.8045 188.508 60.7528 188.385 60.7279 188.255C51.9747 158.136 20.1583 137.735 10.6183 132.197C5.19265 129.05 4.6845 125.937 4.32389 123.676C4.27428 122.846 4.0087 122.044 3.55347 121.349C3.44379 121.191 3.2976 121.061 3.12729 120.972C2.81585 121.168 1.96347 123.299 2.42244 126.953C2.42244 127.608 2.53718 128.592 2.58636 129.689C2.83223 136.768 3.42234 153.335 18.6175 173.72C27.5674 185.748 37.8614 189.418 44.9263 190.402C49.3916 191.06 53.9446 190.792 58.3019 189.615C58.541 189.537 58.8012 189.558 59.0254 189.671C59.2497 189.785 59.4198 189.983 59.4985 190.221C59.5393 190.34 59.5558 190.465 59.5472 190.59C59.5386 190.714 59.5051 190.836 59.4485 190.948C59.3919 191.059 59.3135 191.158 59.2179 191.239C59.1224 191.32 59.0115 191.38 58.892 191.418C55.9398 192.255 52.879 192.647 49.811 192.581V192.581Z" fill="#263238"/>
<path d="M58.7938 189.238H58.6299C58.0234 189.124 43.5331 186.534 27.9117 172.606C18.2316 163.649 11.1907 152.213 7.55317 139.538C7.52411 139.416 7.51929 139.29 7.53898 139.167C7.55868 139.043 7.6025 138.925 7.66795 138.818C7.73341 138.712 7.8192 138.619 7.92044 138.546C8.02169 138.473 8.13639 138.42 8.25802 138.391C8.37964 138.362 8.50579 138.357 8.62927 138.377C8.75276 138.396 8.87116 138.44 8.97771 138.506C9.08425 138.571 9.17687 138.657 9.25026 138.758C9.32365 138.859 9.37638 138.974 9.40544 139.095C12.9328 151.407 19.7703 162.516 29.1739 171.213C44.3527 184.765 58.8102 187.37 58.9577 187.387C59.2032 187.434 59.4206 187.576 59.5643 187.78C59.7079 187.985 59.7667 188.237 59.7281 188.484C59.6858 188.7 59.5689 188.893 59.3981 189.031C59.2272 189.169 59.0133 189.242 58.7938 189.238V189.238Z" fill="#263238"/>
<path d="M68.0716 188.91C67.8238 188.932 67.5775 188.855 67.387 188.695C67.1964 188.535 67.0771 188.306 67.0553 188.058C67.0336 187.811 67.1112 187.564 67.271 187.374C67.4309 187.183 67.6599 187.064 67.9077 187.042C68.088 187.042 85.9386 183.29 86.6107 150.205C87.4303 113.713 80.054 96.2281 75.4807 91.6563C74.53 90.6895 73.694 90.2306 73.2842 90.3945C71.5303 91.0827 71.3828 99.1286 71.3008 103.93C71.1697 110.353 68.0224 116.531 63.7934 125.101C62.3345 128.018 60.6953 131.328 58.9742 134.933C52.565 148.714 56.0073 172.491 56.0401 172.721C56.0746 172.85 56.0815 172.985 56.0601 173.117C56.0388 173.249 55.9898 173.375 55.9163 173.487C55.8429 173.599 55.7466 173.694 55.6338 173.766C55.521 173.839 55.3942 173.886 55.2618 173.906C55.1293 173.926 54.9942 173.917 54.8653 173.881C54.7364 173.845 54.6165 173.782 54.5136 173.696C54.4106 173.611 54.3269 173.504 54.268 173.384C54.209 173.264 54.1761 173.133 54.1714 172.999C54.0239 172.016 50.598 148.419 57.2531 134.13C58.8922 130.443 60.6462 127.133 62.1706 124.2C66.3341 115.859 69.3502 109.845 69.4649 103.848C69.6124 95.3269 69.9239 89.6571 72.6449 88.5756C74.4972 87.8382 76.3003 89.6735 76.8904 90.2142C83.234 96.6214 89.2989 117.645 88.5777 150.14C87.7909 184.879 69.1043 188.648 68.3175 188.796L68.0716 188.91Z" fill="#263238"/>
<path d="M45.9262 197.366C40.3366 197.17 40.1399 196.186 40.0415 195.728C39.9432 195.269 40.3366 194.482 41.3037 194.089C42.6604 193.483 44.1545 193.251 45.6311 193.417C46.7337 193.536 47.849 193.43 48.9095 193.106C51.4174 192.336 51.8108 191.385 51.8108 191.385C51.8396 191.266 51.8918 191.153 51.9643 191.053C52.0368 190.954 52.1282 190.87 52.2333 190.806C52.3384 190.742 52.4551 190.7 52.5767 190.681C52.6983 190.662 52.8224 190.668 52.9418 190.697C53.1867 190.763 53.3967 190.92 53.528 191.137C53.6593 191.354 53.7018 191.613 53.6467 191.86C53.6467 192.172 53.0402 193.827 49.4668 194.925C48.1773 195.313 46.8243 195.447 45.4836 195.318C44.7816 195.228 44.071 195.228 43.3691 195.318C44.1395 195.416 45.0082 195.482 45.9426 195.514C46.1947 195.514 46.4365 195.615 46.6148 195.793C46.7931 195.971 46.8933 196.213 46.8933 196.465C46.8933 196.717 46.7931 196.959 46.6148 197.137C46.4365 197.315 46.1947 197.415 45.9426 197.415L45.9262 197.366Z" fill="#263238"/>
<path d="M74.6611 191.975C74.5323 191.975 74.4049 191.949 74.2865 191.898C74.1682 191.847 74.0614 191.773 73.9726 191.68C73.7944 191.502 73.6943 191.26 73.6943 191.008C73.6943 190.756 73.7944 190.515 73.9726 190.336C74.573 189.787 75.1217 189.183 75.6118 188.534L75.5134 188.632C74.8414 189.435 73.8743 190.631 72.5137 189.959C71.9807 189.639 71.5165 189.217 71.1479 188.716C70.7794 188.215 70.5137 187.647 70.3664 187.043C70.3077 186.797 70.349 186.538 70.4812 186.323C70.6134 186.108 70.8256 185.954 71.0713 185.896C71.3169 185.837 71.5758 185.878 71.7909 186.01C72.0061 186.142 72.16 186.355 72.2187 186.6C72.3961 187.273 72.8165 187.857 73.3989 188.239C73.5958 187.929 73.8208 187.639 74.0709 187.37C74.7594 186.567 75.9232 185.207 77.3493 186.158C77.5513 186.297 77.7195 186.479 77.8415 186.692C77.9634 186.905 78.0361 187.142 78.0542 187.387C78.1525 188.911 76.1855 190.91 75.3331 191.696C75.1512 191.869 74.9118 191.968 74.6611 191.975Z" fill="#263238"/>
<path d="M67.957 184.765C67.8326 184.789 67.7045 184.789 67.58 184.765C67.4642 184.715 67.3596 184.643 67.2724 184.552C67.1853 184.461 67.1175 184.353 67.0731 184.235C67.0287 184.117 67.0086 183.992 67.014 183.866C67.0195 183.74 67.0503 183.616 67.1046 183.503C76.3061 160.476 79.7604 135.555 77.1692 110.894C77.1413 110.642 77.2132 110.39 77.3695 110.191C77.5258 109.992 77.7541 109.862 78.0051 109.829C78.1292 109.813 78.2553 109.822 78.3757 109.856C78.4962 109.889 78.6087 109.947 78.7066 110.025C78.8044 110.103 78.8856 110.2 78.9453 110.309C79.005 110.419 79.0421 110.54 79.0542 110.665C83.775 150.615 68.9733 183.945 68.8258 184.289C68.7386 184.441 68.6114 184.565 68.4582 184.649C68.3049 184.733 68.1315 184.773 67.957 184.765V184.765Z" fill="#263238"/>
<path d="M54.5156 169.132C54.3405 169.134 54.1683 169.088 54.0179 168.998C53.8675 168.908 53.7448 168.779 53.6633 168.624C53.5485 168.378 41.14 143.733 45.1396 106.814C46.7477 90.7642 50.4623 74.9959 56.1876 59.9155C58.089 54.6554 59.3348 51.1815 58.9906 49.0184C58.8103 47.9042 57.3514 38.0722 60.056 36.8596C60.597 36.6138 61.4821 36.581 62.4984 37.8264C65.3506 41.3331 73.9726 67.8794 73.4645 89.7882C73.4645 89.913 73.4399 90.0366 73.3921 90.1519C73.3443 90.2672 73.2743 90.372 73.186 90.4603C73.0977 90.5485 72.9929 90.6185 72.8776 90.6663C72.7623 90.7141 72.6386 90.7386 72.5138 90.7386C72.3889 90.7386 72.2653 90.7141 72.1499 90.6663C72.0346 90.6185 71.9298 90.5485 71.8415 90.4603C71.7532 90.372 71.6832 90.2672 71.6354 90.1519C71.5876 90.0366 71.5631 89.913 71.5631 89.7882C72.0712 67.6991 63.2197 41.7592 61.0232 38.9899L60.7609 38.7113C60.2691 39.7601 60.0888 43.7584 60.8756 48.6907C61.2854 51.329 59.9741 54.9832 57.9743 60.5218C52.3104 75.4626 48.6291 91.0808 47.0246 106.978C43.0906 143.307 55.2205 167.477 55.3516 167.723C55.4107 167.833 55.447 167.954 55.4584 168.079C55.4697 168.204 55.4558 168.329 55.4176 168.449C55.3794 168.568 55.3176 168.678 55.2358 168.773C55.1541 168.868 55.0541 168.945 54.9418 169.001C54.8122 169.078 54.6661 169.123 54.5156 169.132Z" fill="#263238"/>
<path d="M54.8269 147.829C54.5803 147.829 54.3433 147.734 54.166 147.562C53.9886 147.391 53.8847 147.158 53.8762 146.912C53.8762 146.567 53.6631 138.587 56.7611 121.316C59.8592 104.044 63.3178 63.1599 63.3178 62.7338C63.3467 62.4847 63.4697 62.256 63.6617 62.0946C63.8536 61.9331 64.1 61.8511 64.3505 61.8653C64.4749 61.8756 64.596 61.9106 64.7066 61.9683C64.8173 62.0261 64.9152 62.1054 64.9947 62.2017C65.0741 62.2979 65.1335 62.4091 65.1692 62.5286C65.205 62.6481 65.2164 62.7736 65.2029 62.8977C65.2029 63.3073 61.6786 104.454 58.6462 121.66C55.6137 138.866 55.7776 146.764 55.794 146.846C55.7943 147.098 55.6975 147.341 55.5235 147.524C55.3496 147.707 55.1119 147.817 54.8597 147.829H54.8269Z" fill="#263238"/>
<path d="M31.3868 146.567C31.2504 146.566 31.1158 146.536 30.9917 146.479C30.8675 146.423 30.7564 146.341 30.6655 146.24C30.5344 146.076 16.9292 130.296 13.6017 109.108C10.2742 87.92 8.86449 80.8574 6.71717 77.8095C5.4714 76.0233 5.42223 74.1061 6.60243 73.0082C7.24171 72.4019 9.88078 70.796 15.6999 75.5809C23.4204 81.8897 41.6152 105.077 46.2049 120.201C46.2603 120.437 46.2234 120.686 46.1017 120.895C45.98 121.105 45.7827 121.26 45.5502 121.33C45.3178 121.399 45.0677 121.376 44.8511 121.267C44.6346 121.158 44.468 120.97 44.3854 120.742C39.976 106.207 21.8795 83.0531 14.4869 77.0557C10.7987 74.0405 8.52027 73.7784 7.93016 74.4011C7.56955 74.7452 7.56954 75.6464 8.32357 76.7116C10.7168 80.1036 12.0773 86.9695 15.5195 108.813C18.7979 129.46 32.026 144.863 32.1572 144.994C32.2393 145.089 32.3018 145.199 32.3413 145.317C32.3808 145.436 32.3965 145.562 32.3873 145.687C32.3782 145.811 32.3445 145.933 32.2881 146.045C32.2317 146.157 32.1538 146.256 32.0588 146.338C31.872 146.497 31.6318 146.579 31.3868 146.567V146.567Z" fill="#263238"/>
<path d="M52.237 163.905C52.0963 163.905 51.9571 163.875 51.8295 163.815C51.702 163.756 51.5892 163.669 51.4994 163.561C51.4994 163.462 43.5002 153.892 32.9767 138.604C22.4532 123.315 16.7325 95.5563 16.4866 94.3601C16.4628 94.2374 16.4635 94.1113 16.4885 93.9888C16.5135 93.8664 16.5625 93.7501 16.6325 93.6466C16.7025 93.5431 16.7923 93.4545 16.8966 93.3857C17.001 93.3169 17.1179 93.2694 17.2406 93.2458C17.4857 93.2017 17.7383 93.2537 17.9459 93.391C18.1535 93.5284 18.3002 93.7405 18.3553 93.9832C18.3553 94.2781 24.1744 122.43 34.5503 137.522C44.9263 152.614 52.8927 162.233 52.9747 162.332C53.1325 162.528 53.2071 162.779 53.1826 163.03C53.1581 163.281 53.0364 163.513 52.8435 163.675C52.6745 163.82 52.4598 163.902 52.237 163.905V163.905Z" fill="#263238"/>
<path d="M24.5678 87.3465C24.3642 87.3413 24.1674 87.2719 24.0055 87.1483C23.8436 87.0248 23.7249 86.8532 23.6663 86.6582C23.6663 86.4616 17.6341 66.3717 15.7655 53.2952C15.3229 50.1326 14.8967 47.5435 14.5525 45.4133C13.6345 39.8582 13.2903 37.7608 14.3885 36.712C14.6826 36.4676 15.0323 36.2994 15.4068 36.2222C15.7814 36.1451 16.1691 36.1613 16.5359 36.2696C19.6175 36.8759 45.5657 56.6708 51.8273 79.5301C51.8639 79.6519 51.8756 79.7798 51.8618 79.9063C51.848 80.0327 51.809 80.1551 51.747 80.2662C51.685 80.3773 51.6014 80.4748 51.501 80.553C51.4006 80.6312 51.2856 80.6884 51.1627 80.7213C51.0398 80.7543 50.9115 80.7622 50.7855 80.7446C50.6595 80.7271 50.5383 80.6844 50.429 80.6192C50.3198 80.5539 50.2248 80.4674 50.1496 80.3648C50.0745 80.2621 50.0207 80.1455 49.9914 80.0217C44.0412 58.3586 19.011 38.6784 16.1752 38.1213C16.0072 38.0909 15.8351 38.0909 15.6671 38.1213C15.3393 38.5965 15.8474 41.628 16.4211 45.1511C16.7653 47.2649 17.1915 49.8868 17.6505 53.0658C19.4864 66.0112 25.4202 85.9536 25.4858 86.1502C25.557 86.3914 25.5298 86.6511 25.41 86.8722C25.2901 87.0933 25.0875 87.258 24.8465 87.3301C24.7554 87.3525 24.6609 87.358 24.5678 87.3465V87.3465Z" fill="#263238"/>
<path d="M45.4672 115.679C45.2453 115.683 45.0295 115.607 44.8583 115.466C44.6871 115.325 44.5717 115.127 44.5328 114.909C42.7853 107.604 39.6646 100.697 35.3371 94.5568C27.7313 83.4795 23.1088 58.7686 22.9285 57.7199C22.9047 57.5972 22.9054 57.471 22.9304 57.3486C22.9554 57.2262 23.0044 57.1099 23.0744 57.0064C23.1444 56.9029 23.2342 56.8142 23.3385 56.7454C23.4429 56.6767 23.5598 56.6291 23.6825 56.6056C23.9317 56.5666 24.1863 56.6248 24.3937 56.7681C24.6011 56.9115 24.7456 57.129 24.7972 57.3757C24.7972 57.6215 29.518 82.7421 36.8943 93.4262C41.4005 99.7737 44.6294 106.936 46.4015 114.516C46.425 114.639 46.4236 114.765 46.3974 114.887C46.3711 115.009 46.3206 115.125 46.2487 115.228C46.1769 115.33 46.0852 115.417 45.9791 115.483C45.873 115.55 45.7547 115.594 45.6311 115.614L45.4672 115.679Z" fill="#263238"/>
<path d="M56.6627 62.3244C56.5379 62.3202 56.415 62.2914 56.3013 62.2397C56.1876 62.188 56.0852 62.1143 55.9999 62.023C55.9146 61.9317 55.8482 61.8245 55.8045 61.7075C55.7607 61.5905 55.7404 61.4661 55.7448 61.3412C56.089 52.2795 54.9744 46.2984 51.7616 40.0387L51.3846 39.3341C45.0574 26.8967 37.6319 11.9521 36.5501 6.77397C35.8452 3.49666 34.747 2.16935 34.2224 2.15296C34.1077 2.15296 32.7472 2.26766 31.0916 7.75716C28.2722 17.032 34.8945 51.5912 34.9764 52.0009C35.0243 52.2486 34.9717 52.5052 34.8303 52.7142C34.6889 52.9231 34.4702 53.0674 34.2224 53.1152C33.9746 53.163 33.718 53.1104 33.5089 52.9691C33.2999 52.8277 33.1556 52.6091 33.1078 52.3614C32.8291 50.9194 26.3216 16.9828 29.2721 7.26556C30.6818 2.579 32.3046 0.30127 34.1896 0.30127H34.206C36.6648 0.399589 37.8286 4.18488 38.304 6.42984C39.4842 12.0177 49.2864 31.2719 53.0565 38.5148L53.4172 39.2357C56.7939 45.7904 57.9741 52.0992 57.6135 61.5051C57.5816 61.7338 57.4675 61.9431 57.2926 62.0939C57.1176 62.2447 56.8937 62.3266 56.6627 62.3244V62.3244Z" fill="#263238"/>
<path d="M49.8767 77.4983C49.6392 77.4955 49.4111 77.4054 49.2357 77.2453C49.0604 77.0851 48.9502 76.866 48.926 76.6298C48.926 76.5151 48.0081 64.4874 47.1065 56.8185C46.205 49.1496 37.2715 35.0244 37.1404 34.8933C37.0056 34.676 36.9627 34.414 37.0211 34.1651C37.0795 33.9162 37.2344 33.7007 37.4518 33.566C37.6692 33.4312 37.9312 33.3884 38.1802 33.4467C38.4292 33.5051 38.6448 33.66 38.7795 33.8773C39.1565 34.4672 48.09 48.6252 49.0244 56.5891C49.9587 64.5529 50.8439 76.3676 50.8602 76.4823C50.8784 76.7319 50.7973 76.9786 50.6347 77.1688C50.472 77.359 50.2409 77.4774 49.9915 77.4983H49.8767Z" fill="#263238"/>
</svg>
