<svg width="349" height="96" fill="none" xmlns="http://www.w3.org/2000/svg"><path d="M253.1 26.34a9.04 9.04 0 01-3.54 1.74c-3.55.79-13 .39-14.6 4.73a9.389 9.389 0 01-5.91 5.52s-7.49.4-7.89 2c-.4 1.6-3.15 4.34-3.15 4.34H347s4.34-6.7-2.76-13c-6.21-5.52-17.56 2.84-19-4m-1.17-10.04c-1.44-5.19-4.47-12.19-10.62-14.79-10.26-4.34-18.93 1.58-21.3 7.49-2.37 5.91-3.94 9.86-13 4.73-9.06-5.13-17-4.73-19.72 2a30.814 30.814 0 01-2.93 5.56M34.05 95.1h44.79s2.62-4-1.67-7.87-12.65 3.34-11.45-4.77c0 0-1-10-7.16-12.64a10.002 10.002 0 00-9.9.9" stroke="#263238" stroke-linecap="round" stroke-linejoin="round"/><path d="M45.68 74.35c-1.43 3.58-2.39 6-7.87 2.86s-10.26-2.86-11.93 1.2-3.82 6.2-6 6.67c-2.18.47-7.87.24-8.83 2.87a5.709 5.709 0 01-3.58 3.34s-4.53.23-4.77 1.19A9.23 9.23 0 01.79 95.1H27m231.25 0h21.15s2.62-4-1.67-7.87-12.64 3.34-11.45-4.77c0 0-.95-10-7.16-12.64-6.21-2.64-11.44 1-12.88 4.53-1.44 3.53-2.38 6-7.87 2.86s-10.26-2.86-11.92 1.2c-1.66 4.06-3.82 6.2-6 6.67-2.18.47-7.87.24-8.82 2.87a5.73 5.73 0 01-3.58 3.34s-4.53.23-4.77 1.19a9.234 9.234 0 01-1.91 2.62h49.82" stroke="#263238" stroke-linecap="round" stroke-linejoin="round"/></svg>