<svg width="60" height="124" viewBox="0 0 60 124" fill="none" xmlns="http://www.w3.org/2000/svg">
<path d="M27.7927 119.219C27.4599 119.243 27.1257 119.243 26.7928 119.219C26.5429 119.182 26.3178 119.047 26.1672 118.844C26.0165 118.642 25.9527 118.387 25.9896 118.137C26.0266 117.888 26.1613 117.663 26.3642 117.512C26.5671 117.361 26.8215 117.298 27.0715 117.334C27.2026 117.334 38.5457 118.711 48.5283 99.6042C57.134 83.2177 57.5438 78.3017 57.4127 77.0563C57.1012 77.2858 56.6914 77.6627 56.3144 78.0068C55.342 79.0009 54.1981 79.8113 52.9377 80.3992C51.0526 81.153 30.7105 98.4244 26.547 116.613C26.5199 116.735 26.4691 116.849 26.3974 116.95C26.3257 117.051 26.2345 117.137 26.1292 117.203C26.0239 117.268 25.9066 117.312 25.7842 117.332C25.6617 117.352 25.5365 117.347 25.4159 117.318C25.2934 117.293 25.1771 117.243 25.0741 117.173C24.971 117.102 24.8833 117.011 24.816 116.905C24.7487 116.8 24.7033 116.682 24.6825 116.559C24.6616 116.435 24.6658 116.309 24.6947 116.187C29.0549 97.1463 50.0036 79.5307 52.2329 78.6295C53.2775 78.1342 54.2221 77.4509 55.0195 76.6139C55.6559 75.8557 56.4899 75.2885 57.4291 74.9752C57.6993 74.917 57.9807 74.9405 58.2376 75.0426C58.4945 75.1447 58.7151 75.3209 58.8715 75.5488C61.1336 78.5639 54.413 92.4433 50.2003 100.44C41.1029 117.744 30.9727 119.219 27.7927 119.219Z" fill="#263238"/>
<path d="M29.2351 116.99C29.0971 116.989 28.9611 116.957 28.8365 116.898C28.712 116.838 28.6019 116.752 28.5138 116.646C28.4327 116.551 28.3713 116.44 28.3332 116.32C28.295 116.201 28.2809 116.075 28.2915 115.95C28.3022 115.826 28.3375 115.704 28.3953 115.593C28.4532 115.482 28.5324 115.383 28.6286 115.302C28.7597 115.204 41.5945 104.307 47.1513 92.5088C47.265 92.2925 47.4576 92.1283 47.6892 92.0503C47.9207 91.9723 48.1735 91.9863 48.3949 92.0896C48.6164 92.193 48.7895 92.3775 48.8784 92.6051C48.9674 92.8327 48.9652 93.0857 48.8724 93.3117C43.1353 105.503 30.3989 116.253 29.858 116.761C29.6839 116.908 29.4633 116.99 29.2351 116.99V116.99Z" fill="#263238"/>
<path d="M26.9897 94.0982H26.9077C26.7834 94.0899 26.662 94.057 26.5507 94.0011C26.4393 93.9453 26.3402 93.8678 26.2593 93.7731C26.1783 93.6785 26.1171 93.5686 26.0793 93.4499C26.0415 93.3313 26.0277 93.2062 26.0389 93.0822C27.3339 77.4986 34.9397 61.4234 48.6432 45.3318C49.2169 44.6436 49.6103 44.1848 49.7742 43.9553C50.1043 43.4259 50.4053 42.8789 50.6758 42.3167C51.7904 40.2192 52.692 38.5806 53.9541 38.9411C55.2163 39.3016 55.5933 40.5797 55.249 47.1343C54.5606 60.2436 45.6271 85.6099 45.2501 86.6751C45.2189 86.8041 45.1611 86.9252 45.0804 87.0305C44.9996 87.1358 44.8977 87.2231 44.7811 87.2866C44.6646 87.3502 44.536 87.3886 44.4037 87.3995C44.2714 87.4104 44.1382 87.3934 44.0129 87.3497C43.8875 87.306 43.7727 87.2366 43.6758 87.1458C43.5789 87.0551 43.5021 86.9451 43.4504 86.8229C43.3986 86.7006 43.373 86.569 43.3753 86.4363C43.3775 86.3036 43.4075 86.1728 43.4634 86.0524C43.5617 85.7902 52.6919 59.9158 53.2984 47.036C53.4478 45.1545 53.4478 43.2641 53.2984 41.3826C52.9542 41.9234 52.5444 42.6936 52.2821 43.1852C52.0199 43.6768 51.5609 44.5453 51.2658 44.9713C50.9708 45.3974 50.643 45.7415 50.0037 46.4953C36.5625 62.2919 29.1206 77.9902 27.8584 93.1642C27.8552 93.3998 27.7646 93.6259 27.6041 93.7985C27.4435 93.9711 27.2245 94.0779 26.9897 94.0982V94.0982Z" fill="#263238"/>
<path d="M27.4649 103.504H27.2026C26.9616 103.432 26.759 103.267 26.6392 103.046C26.5194 102.825 26.4921 102.565 26.5634 102.324C32.0874 83.4142 44.9713 59.7193 45.1024 59.4243C45.1608 59.3149 45.2404 59.2181 45.3366 59.1397C45.4328 59.0614 45.5436 59.0029 45.6626 58.9678C45.7816 58.9327 45.9065 58.9217 46.0298 58.9354C46.1532 58.949 46.2725 58.9871 46.381 59.0474C46.4905 59.1058 46.5872 59.1854 46.6656 59.2815C46.744 59.3777 46.8025 59.4885 46.8376 59.6075C46.8727 59.7264 46.8837 59.8512 46.87 59.9745C46.8564 60.0978 46.8183 60.2171 46.758 60.3256C46.6269 60.5714 33.8577 84.1516 28.3829 102.931C28.3083 103.11 28.1799 103.261 28.0154 103.364C27.8509 103.467 27.6586 103.516 27.4649 103.504V103.504Z" fill="#263238"/>
<path d="M21.7112 117.302C21.4668 117.303 21.2314 117.209 21.0556 117.04C20.3999 116.417 5.05716 101.39 6.84387 82.6278C8.40109 66.2412 12.3843 50.8215 15.5315 48.806C15.7417 48.6537 15.985 48.5535 16.2415 48.5136C16.498 48.4737 16.7603 48.4953 17.0068 48.5766C18.8918 49.232 19.2853 52.0013 19.777 55.5245C20.0456 58.3244 20.6737 61.0781 21.6457 63.7177C24.2847 69.9282 30.6611 98.3753 27.2352 113.779C27.1673 114.01 27.0142 114.206 26.8067 114.329C26.5992 114.452 26.353 114.491 26.1177 114.439C25.8824 114.387 25.6757 114.247 25.5393 114.049C25.4029 113.85 25.347 113.607 25.383 113.369C28.6614 98.3425 22.4816 70.5345 19.8917 64.4551C18.8622 61.6784 18.1903 58.7821 17.8919 55.8358C17.5805 53.6564 17.2035 50.9198 16.4987 50.4774C14.7283 51.5917 10.4665 64.6354 8.72894 82.8572C7.08976 100.653 22.2194 115.516 22.3669 115.63C22.5136 115.757 22.617 115.927 22.6628 116.116C22.7085 116.304 22.6943 116.503 22.6222 116.683C22.5501 116.863 22.4237 117.016 22.2604 117.121C22.0971 117.226 21.9052 117.278 21.7112 117.269V117.302Z" fill="#263238"/>
<path d="M23.0227 115.057C22.8401 115.055 22.6615 115.002 22.5078 114.904C22.354 114.805 22.2313 114.665 22.154 114.5C13.9581 96.376 12.6303 70.9277 12.6303 70.6819C12.6214 70.5578 12.6374 70.4333 12.6773 70.3155C12.7172 70.1978 12.7802 70.0891 12.8627 69.996C12.9451 69.9029 13.0453 69.8272 13.1574 69.7733C13.2695 69.7195 13.3912 69.6885 13.5155 69.6823V69.6823C13.7605 69.6778 13.9975 69.7698 14.1753 69.9384C14.3532 70.107 14.4576 70.3387 14.4662 70.5835C14.4662 70.8293 15.8595 95.9335 23.8423 113.729C23.9423 113.958 23.9485 114.216 23.8596 114.449C23.7707 114.682 23.5937 114.871 23.3669 114.975C23.2592 115.026 23.1419 115.054 23.0227 115.057V115.057Z" fill="#263238"/>
<path d="M21.9078 68.1583C21.6666 68.1589 21.4342 68.0678 21.2577 67.9035C21.0812 67.7392 20.9737 67.514 20.9571 67.2735C19.4982 42.2676 29.8742 20.6865 34.8573 10.3302C35.7708 8.54058 36.5862 6.70256 37.2997 4.82428C38.3979 1.13731 39.8076 0.514612 40.7747 0.645704C42.2008 0.825956 44.135 2.56293 44.4793 15.2625C44.9218 31.2886 40.2502 59.3096 40.2174 59.5062C40.1969 59.63 40.1523 59.7485 40.086 59.855C40.0198 59.9614 39.9332 60.0539 39.8312 60.1269C39.7292 60.1999 39.6138 60.2522 39.4916 60.2806C39.3695 60.3091 39.2429 60.3132 39.1191 60.2928C38.9953 60.2724 38.8768 60.2277 38.7703 60.1615C38.6638 60.0953 38.5713 60.0087 38.4983 59.9067C38.4252 59.8048 38.3729 59.6894 38.3445 59.5673C38.316 59.4452 38.3119 59.3186 38.3324 59.1949C38.3324 58.9163 43.004 31.0592 42.5778 15.2298C42.2664 3.41505 40.5124 2.44824 40.496 2.43186C39.8109 3.25552 39.3381 4.23448 39.1191 5.2831C38.3836 7.2608 37.5297 9.19244 36.562 11.0676C31.6445 21.2928 21.4324 42.5625 22.8585 67.0768C22.8652 67.2017 22.8471 67.3266 22.8053 67.4445C22.7636 67.5623 22.699 67.6708 22.6152 67.7636C22.5315 67.8565 22.4302 67.9319 22.3173 67.9856C22.2043 68.0392 22.0819 68.0701 21.957 68.0764L21.9078 68.1583Z" fill="#263238"/>
<path d="M26.6289 90.051C26.3939 90.0486 26.1678 89.9609 25.9928 89.8041C25.8179 89.6473 25.706 89.4321 25.6781 89.1989C25.3667 86.364 26.383 82.038 28.2516 74.1724C29.186 70.2069 30.3334 65.2745 31.6447 59.1787C34.384 45.089 36.4028 30.8689 37.6933 16.5737C37.7221 16.3246 37.8451 16.0959 38.0371 15.9345C38.229 15.773 38.4755 15.691 38.7259 15.7052C38.8503 15.7154 38.9714 15.7504 39.0821 15.8082C39.1927 15.8659 39.2906 15.9453 39.3701 16.0415C39.4496 16.1378 39.5089 16.2489 39.5447 16.3685C39.5804 16.488 39.5919 16.6135 39.5783 16.7376C38.2851 31.1093 36.2609 45.406 33.5134 59.572C32.1857 65.6842 31.0218 70.6165 30.0875 74.5821C28.2844 82.251 27.2845 86.4623 27.5632 88.9858C27.5909 89.2356 27.5184 89.4862 27.3618 89.6827C27.2051 89.8793 26.9769 90.0058 26.7272 90.0346L26.6289 90.051Z" fill="#263238"/>
<path d="M41.2501 123.971C41.0457 123.97 40.8467 123.905 40.6818 123.784C40.5169 123.664 40.3944 123.494 40.3321 123.299C40.2608 123.058 40.2881 122.798 40.4079 122.577C40.5277 122.356 40.7304 122.192 40.9714 122.119L42.9056 121.513C42.812 121.463 42.7241 121.402 42.6433 121.333C42.4578 121.162 42.3229 120.943 42.2535 120.7C42.1842 120.457 42.1829 120.2 42.2499 119.956C42.5744 118.978 43.056 118.06 43.676 117.236L43.8891 116.925C40.3321 118.269 35.3982 119.727 32.0051 118.252C31.8899 118.204 31.7853 118.133 31.6974 118.044C31.6095 117.956 31.54 117.85 31.4928 117.735C31.4456 117.619 31.4217 117.495 31.4224 117.37C31.4231 117.245 31.4484 117.122 31.497 117.007C31.601 116.776 31.7916 116.595 32.0276 116.503C32.2636 116.411 32.5262 116.416 32.7591 116.515C36.0375 117.924 41.709 115.729 43.5941 115.008C44.2661 114.745 45.4955 114.27 46.1512 115.106C46.8069 115.942 46.1512 116.925 45.266 118.285C44.9546 118.744 44.6104 119.268 44.3645 119.727C44.9054 119.596 45.643 119.366 46.2331 119.186C47.8144 118.606 49.4701 118.253 51.1506 118.137V118.137C52.1997 118.137 52.5112 118.645 52.5604 119.072C52.6915 119.956 52.7898 120.53 41.5451 123.987L41.2501 123.971Z" fill="#263238"/>
<path d="M18.5968 116.744C18.4415 116.747 18.2885 116.708 18.1542 116.63C15.5648 115.213 13.2095 113.406 11.1713 111.271C9.61411 109.633 8.46669 109.19 7.89298 109.338C7.7871 109.381 7.69553 109.453 7.62883 109.546C7.56213 109.638 7.52299 109.748 7.51595 109.862C7.48856 110.108 7.39473 110.341 7.24455 110.538C7.09437 110.734 6.89355 110.886 6.6636 110.976C5.76206 111.321 4.87691 110.6 3.84423 109.764L3.58196 109.567C3.58196 109.682 3.58196 109.797 3.58196 109.895C3.74587 111.812 4.00814 114.696 1.94279 115.647C1.8287 115.698 1.70554 115.727 1.58037 115.731C1.4552 115.735 1.33045 115.714 1.21325 115.67C1.09604 115.626 0.988687 115.559 0.897298 115.474C0.805909 115.388 0.732284 115.285 0.680621 115.171C0.628959 115.057 0.600277 114.934 0.596207 114.809C0.592136 114.684 0.612769 114.559 0.65691 114.442C0.701051 114.325 0.767845 114.218 0.853478 114.126C0.93911 114.035 1.04191 113.961 1.15599 113.91C1.99197 113.533 1.79526 111.353 1.68052 110.059C1.56577 108.764 1.48382 107.716 2.27062 107.273C3.05742 106.831 3.99174 107.486 5.00803 108.289L5.79482 108.912C5.93147 108.579 6.14077 108.282 6.40738 108.041C6.67399 107.8 6.99115 107.621 7.33564 107.519C8.17162 107.273 9.94193 107.273 12.4663 109.977C14.3624 111.928 16.5391 113.585 18.9246 114.893C19.0374 114.95 19.1377 115.029 19.2196 115.125C19.3015 115.222 19.3634 115.333 19.4016 115.454C19.4397 115.575 19.4534 115.702 19.4419 115.827C19.4304 115.953 19.3938 116.076 19.3344 116.187C19.2677 116.334 19.1653 116.462 19.0365 116.56C18.9076 116.657 18.7565 116.721 18.5968 116.744V116.744Z" fill="#263238"/>
</svg>
