<svg width="477" height="429" viewBox="0 0 477 429" fill="none" xmlns="http://www.w3.org/2000/svg">
<path d="M213.913 206.471C204.077 207.126 194.516 202.92 190.964 200.735H189.325L187.685 209.748V219.58L191.783 230.231C191.783 230.231 195.062 234.328 195.881 234.328C196.701 234.328 184.407 259.727 184.407 259.727V305.609L181.948 327.731L185.227 336.744C182.222 335.924 180.801 335.76 199.16 341.66C217.519 347.559 225.933 329.37 227.846 319.538C228.665 308.613 230.304 287.42 230.304 290.042C230.304 292.664 241.779 297.689 247.516 299.874C261.175 304.244 289.806 312.983 295.052 312.983C300.297 312.983 306.526 310.798 308.985 309.706C317.181 302.332 312.263 281.849 311.443 279.391C310.788 277.424 306.799 274.202 304.887 272.836C302.241 271.32 300.269 270.43 295.051 268.739L272.923 263.004L271.284 267.101C271.2 266.349 270.688 265.807 268.825 264.643L265.546 258.908L262.268 263.004L258.99 264.643V262.185L260.629 257.269L258.99 254.811C258.443 254.538 257.187 253.828 256.531 253.172C255.875 252.517 255.165 251.261 254.892 250.714L254.072 243.34C256.063 239.556 260.204 230.1 263.088 223.676C265.992 217.208 266.366 204.286 265.547 198.277L258.99 189.265C231.943 208.109 226.206 205.651 213.913 206.471Z" fill="#263238"/>
<path d="M194.586 235.836C194.436 235.834 194.288 235.798 194.155 235.73C194.021 235.662 193.905 235.563 193.816 235.442C191.242 231.837 186.538 221.317 186.046 216.467C185.554 211.616 188.325 200.08 188.439 199.556C188.502 199.316 188.655 199.111 188.867 198.982C189.078 198.854 189.332 198.813 189.573 198.869C189.814 198.924 190.024 199.072 190.158 199.279C190.292 199.487 190.34 199.739 190.292 199.982C190.292 200.113 187.489 211.747 187.931 216.368C188.374 220.989 192.964 231.116 195.357 234.393C195.43 234.495 195.483 234.609 195.511 234.731C195.54 234.852 195.545 234.978 195.525 235.101C195.505 235.225 195.462 235.343 195.396 235.449C195.331 235.555 195.245 235.648 195.144 235.721C194.973 235.813 194.779 235.853 194.586 235.836V235.836Z" fill="#263238"/>
<path d="M208.077 342.954L201.832 342.512C208.601 340.693 212.798 329.796 215.42 322.307C215.912 320.898 216.387 319.554 216.863 318.325C219.19 312.246 219.404 293.319 219.272 286.043C218.305 282.619 215.699 274.278 213.863 271.574C213.481 271.027 213.214 270.408 213.078 269.754C212.943 269.101 212.942 268.426 213.076 267.772C213.65 265.02 216.469 263.233 218.945 261.677C219.781 261.182 220.586 260.634 221.354 260.038C221.911 256.531 225.993 255.433 229.025 254.63C229.976 254.368 230.878 254.122 231.583 253.86C234.517 251.173 247.368 226.626 250.187 213.435C252.58 202.308 248.548 198.375 248.548 198.343L252.253 194.017C252.941 194.59 258.924 200.08 255.81 214.631C253.384 225.938 239.336 256.908 233.992 259.055C232.866 259.476 231.717 259.831 230.55 260.12C229.325 260.391 228.133 260.792 226.993 261.316C226.632 263.61 224.403 265.02 222.075 266.511C220.924 267.147 219.837 267.894 218.83 268.739C221.518 273.098 224.518 283.618 224.862 284.847L224.96 285.552C224.96 288.239 225.386 312 222.174 320.357C221.731 321.537 221.272 322.815 220.797 324.159C217.863 332.647 217.764 340.365 208.077 342.954Z" fill="white"/>
<path d="M313.722 286.125C309.247 283.93 297.592 281.636 290.609 280.161C287.626 279.538 285.053 278.981 283.118 278.522C279.908 277.76 276.532 278.166 273.595 279.669C272.723 280.051 271.824 280.368 270.907 280.62C267.366 281.504 264.956 278.031 263.219 275.491C263.022 275.212 262.809 274.884 262.58 274.589C260.367 275.884 257.318 277.654 254.384 276.818C253.703 276.613 253.073 276.27 252.531 275.811C251.99 275.351 251.549 274.785 251.236 274.147C250.489 272.536 249.939 270.842 249.597 269.1C249.056 266.822 248.679 265.38 247.548 264.479C243.68 261.398 243.696 259.94 243.614 259.563L246.516 254.827C247.828 256.763 249.369 258.535 251.105 260.104C253.336 262.127 254.766 264.883 255.138 267.871C255.385 269.077 255.747 270.257 256.22 271.394C257.429 270.988 258.584 270.438 259.662 269.755C260.465 269.225 261.336 268.807 262.252 268.51C264.825 267.871 266.399 270.149 267.907 272.328C268.525 273.285 269.227 274.184 270.005 275.015C270.415 274.884 270.907 274.688 271.447 274.458C275.522 272.477 280.163 271.99 284.561 273.082C286.38 273.541 288.905 274.065 291.822 274.72C298.772 276.043 305.547 278.154 312.017 281.013L313.722 286.125Z" fill="white"/>
<path d="M346.014 316.965C345.829 316.965 345.647 316.914 345.489 316.818C334.9 309.919 311.066 307.969 310.804 307.953C310.671 307.956 310.538 307.932 310.415 307.881C310.292 307.83 310.181 307.754 310.089 307.658C309.997 307.561 309.926 307.446 309.882 307.321C309.837 307.195 309.82 307.061 309.83 306.929C309.84 306.796 309.879 306.666 309.942 306.549C310.006 306.432 310.093 306.33 310.199 306.249C310.305 306.167 310.427 306.109 310.556 306.078C310.686 306.047 310.821 306.044 310.952 306.068C311.952 306.068 335.539 308.067 346.522 315.228C346.628 315.295 346.719 315.382 346.791 315.484C346.862 315.587 346.912 315.703 346.938 315.825C346.964 315.947 346.966 316.073 346.942 316.196C346.918 316.319 346.87 316.435 346.8 316.539C346.714 316.669 346.598 316.776 346.46 316.851C346.323 316.925 346.17 316.964 346.014 316.965Z" fill="#263238"/>
<path d="M337.49 298.317C336.75 298.301 336.015 298.179 335.31 297.957C331.916 296.99 314 287.371 313.279 286.961C313.058 286.843 312.893 286.642 312.819 286.403C312.746 286.164 312.77 285.905 312.886 285.683C313.007 285.461 313.211 285.296 313.453 285.222C313.695 285.149 313.956 285.173 314.181 285.29C320.557 288.731 333.277 295.4 335.818 296.138C336.498 296.415 337.244 296.489 337.965 296.351C338.024 296.131 338.16 295.939 338.348 295.811C338.537 295.682 338.765 295.626 338.991 295.652C339.218 295.678 339.427 295.784 339.582 295.951C339.737 296.119 339.826 296.336 339.834 296.564C339.825 296.815 339.758 297.062 339.639 297.283C339.519 297.505 339.35 297.696 339.145 297.842C338.66 298.178 338.079 298.345 337.49 298.317V298.317Z" fill="#263238"/>
<path d="M347.505 285.65C347.505 285.65 338.49 294.434 338.49 295.384C338.49 296.334 344.899 302.021 345.374 303.921C345.85 305.822 350.128 303.446 351.308 303.921C352.488 304.397 352.259 307.723 348.931 308.428C345.604 309.132 345.85 317.686 347.03 318.866C348.21 320.046 358.504 325.273 364.126 331.205C369.749 337.137 372.912 343.069 375.273 344.019C377.633 344.97 380.026 345.658 380.731 340.939C381.436 336.219 382.157 325.994 375.994 318.636C369.831 311.279 367.208 310.558 365.307 310.558C363.405 310.558 360.389 310.804 361.52 308.198C362.651 305.593 365.307 303.282 364.356 301.07C363.405 298.858 355.98 284.946 347.505 285.65Z" fill="#263238"/>
<path d="M380.42 347.493C379.727 347.528 379.039 347.372 378.429 347.043C377.819 346.714 377.311 346.223 376.961 345.625C376.905 345.514 376.872 345.394 376.863 345.27C376.854 345.147 376.87 345.022 376.91 344.905C376.949 344.788 377.012 344.679 377.094 344.586C377.176 344.493 377.276 344.417 377.387 344.363C377.609 344.254 377.866 344.235 378.102 344.312C378.337 344.388 378.534 344.554 378.649 344.773C378.731 344.904 379.371 345.969 381.37 345.478C384.108 344.789 386.288 344.003 386.845 340.758C387.613 333.677 386.164 326.531 382.698 320.308C380.592 317.132 378.067 314.255 375.191 311.754C372.617 309.345 370.601 307.444 370.453 305.412C370.453 304.675 370.453 303.938 370.372 303.168C370.51 300.227 369.948 297.295 368.732 294.614C366.585 290.337 361.487 284.782 356.652 282.733C352.209 280.915 350.193 281.718 348.456 286.011C348.358 286.243 348.172 286.427 347.938 286.523C347.704 286.618 347.443 286.617 347.21 286.519C346.977 286.421 346.793 286.235 346.698 286.001C346.603 285.768 346.604 285.506 346.702 285.273C348.915 279.997 352.029 278.719 357.438 280.964C362.848 283.209 368.224 289.157 370.552 293.762C371.922 296.679 372.574 299.881 372.453 303.102C372.453 303.845 372.486 304.566 372.552 305.265C372.634 306.543 374.519 308.313 376.682 310.345C379.69 312.962 382.327 315.978 384.518 319.308C388.239 325.924 389.776 333.545 388.911 341.086C388.091 345.428 385.059 346.543 382.026 347.297C381.503 347.439 380.962 347.505 380.42 347.493V347.493Z" fill="#263238"/>
<path d="M211.454 198.834C206.782 198.834 198.34 198.228 193.931 194.131C192.167 192.504 190.624 190.653 189.341 188.625C188.492 187.224 187.461 185.94 186.276 184.807C185.221 183.898 184.461 182.696 184.09 181.355C183.719 180.013 183.756 178.591 184.194 177.27C184.289 177.038 184.471 176.853 184.701 176.755C184.931 176.657 185.191 176.653 185.424 176.745C185.541 176.789 185.649 176.855 185.74 176.941C185.831 177.027 185.904 177.13 185.955 177.245C186.005 177.36 186.032 177.483 186.034 177.609C186.036 177.734 186.012 177.858 185.965 177.974C185.671 178.942 185.67 179.974 185.962 180.942C186.253 181.91 186.825 182.77 187.604 183.415C188.87 184.657 189.971 186.055 190.882 187.577C192.079 189.48 193.523 191.216 195.177 192.739C199.734 196.966 209.929 197.015 212.847 196.917C213.099 196.917 213.341 197.017 213.519 197.195C213.698 197.374 213.798 197.615 213.798 197.868C213.798 198.12 213.698 198.361 213.519 198.54C213.341 198.718 213.099 198.818 212.847 198.818L211.454 198.834Z" fill="#263238"/>
<path d="M218.437 207.29C210.54 207.377 202.685 206.148 195.193 203.652C185.145 199.719 185.358 195.459 185.768 194.295C185.893 193.867 186.04 193.446 186.21 193.034C186.604 192.05 186.751 191.69 186.21 190.805C184.866 188.773 185.965 184.365 186.096 183.873C186.158 183.631 186.313 183.422 186.528 183.293C186.743 183.165 187 183.126 187.243 183.185C187.487 183.251 187.696 183.409 187.825 183.627C187.953 183.844 187.992 184.103 187.932 184.349C187.489 185.987 187.161 188.806 187.8 189.756C188.221 190.326 188.468 191.004 188.512 191.711C188.555 192.417 188.394 193.121 188.046 193.738C187.891 194.082 187.765 194.438 187.669 194.803C187.227 196.442 189.128 199.211 195.865 201.882C204.061 205.16 224.977 207.88 237.353 201.882C257.433 192.214 258.859 188.642 258.81 187.773C258.76 186.905 258.678 186.135 258.58 185.152C258.082 182.53 258.182 179.83 258.875 177.253C259.99 174.369 261.104 171.502 259.957 167.913C259.196 164.63 258.805 161.271 258.793 157.901C258.678 155.672 258.58 153.558 258.351 151.952C258.071 149.059 257.159 146.262 255.679 143.759C255.582 143.681 255.502 143.585 255.442 143.476C255.383 143.367 255.347 143.247 255.334 143.123C255.322 142.999 255.335 142.875 255.371 142.756C255.408 142.637 255.468 142.527 255.548 142.432C255.71 142.239 255.942 142.117 256.193 142.093C256.444 142.068 256.695 142.143 256.892 142.301C258.269 143.464 259.678 148.02 260.17 151.756C260.432 153.394 260.531 155.607 260.645 157.884C260.649 161.094 261.012 164.293 261.727 167.421C263.071 171.649 261.727 174.976 260.645 177.909C260.046 180.239 259.968 182.673 260.416 185.037C260.514 185.987 260.613 186.905 260.662 187.757C260.76 189.887 258.547 193.853 238.123 203.668C232.648 206.29 225.485 207.29 218.437 207.29Z" fill="#263238"/>
<path d="M303.854 208.929C299.596 208.818 295.361 208.269 291.216 207.29C287.397 206.405 286.643 201.407 286.085 197.753C285.988 196.483 285.684 195.238 285.184 194.066C282.922 192.559 282.561 191.231 282.561 187.757C282.372 185.968 281.586 184.295 280.332 183.005C279.532 181.98 278.83 180.883 278.234 179.728C276.906 177.073 272.3 164.095 273.415 160.359C274.201 157.753 271.021 151.854 265.776 149.822C260.072 147.594 248.679 140.548 248.204 140.253C248.097 140.187 248.004 140.101 247.931 140C247.857 139.899 247.805 139.784 247.776 139.662C247.747 139.54 247.742 139.414 247.762 139.29C247.782 139.167 247.827 139.048 247.893 138.942C248.028 138.729 248.24 138.578 248.485 138.52C248.73 138.462 248.988 138.502 249.204 138.63C249.319 138.63 260.924 145.89 266.464 148.053C272.447 150.38 276.299 157.18 275.234 160.9C274.431 163.62 278.267 175.549 279.922 178.925C280.504 179.972 281.179 180.965 281.938 181.891C283.446 183.508 284.364 185.587 284.545 187.79C284.545 191.067 284.856 191.543 286.331 192.526C287.38 193.23 287.659 195.017 287.97 197.442C288.479 200.719 289.101 204.816 291.642 205.406C300.428 207.421 310.362 207.946 311.411 204.373C312.296 201.374 311.919 196.622 311.575 192.427C311.258 189.823 311.192 187.195 311.378 184.578C311.788 181.678 306.46 161.506 303.182 149.462C301.625 143.595 300.395 138.974 300.002 137.139C298.855 131.732 265.71 107.742 257.219 104.366C249.909 101.4 238.992 97.5001 228.501 97.8115C228.362 97.8239 228.222 97.802 228.093 97.7478C227.965 97.6935 227.852 97.6084 227.764 97.5001C226.197 95.6645 224.451 93.9902 222.551 92.5022L221.977 93.1249C219.715 95.5665 214.421 101.318 206.831 100.335C202.659 99.8888 198.573 98.8401 194.701 97.2215C194.729 98.0929 194.424 98.9421 193.849 99.5976L193.701 99.7123C193.538 99.827 189.653 102.252 178.949 101.351C168.622 100.417 162.951 99.9089 153.05 90.0115C150.28 87.2421 147.067 83.8665 143.641 80.2778C135.74 71.806 126.725 62.3509 123.282 60.6304C119.348 58.664 112.267 57.8774 109.71 57.648C109.431 60.6467 107.973 69.3972 100.564 72.3959C100.564 73.5757 101.088 77.0497 105.629 82.998L108.137 86.2753C115.791 96.4022 133.74 120.114 139.428 122.555C141.264 123.342 144.346 124.44 147.854 125.701C157.443 129.143 169.392 133.419 172.95 136.992C175.966 139.99 178.555 151.445 180.85 161.572C182.194 167.471 183.588 173.583 184.407 174.566C186.09 176.161 188.044 177.443 190.177 178.351C191.605 178.89 192.897 179.735 193.964 180.826C194.1 181.037 194.147 181.293 194.095 181.539C194.043 181.784 193.895 181.999 193.685 182.137C193.475 182.27 193.221 182.318 192.977 182.269C192.732 182.22 192.516 182.079 192.374 181.874C191.443 181.131 190.418 180.514 189.325 180.039C186.954 179.026 184.791 177.582 182.948 175.779C181.883 174.517 180.818 169.945 178.998 161.998C177.031 153.051 174.228 140.924 171.605 138.286C168.327 135.009 156.132 130.634 147.214 127.438C143.657 126.16 140.658 125.062 138.674 124.161C132.527 121.523 115.021 98.4014 106.628 87.2913L104.121 84.014C97.8589 75.8207 98.6293 71.7732 98.744 71.3472C98.7769 71.1917 98.8503 71.0476 98.9568 70.9296C99.0633 70.8116 99.1992 70.7239 99.3505 70.6753C107.546 67.9224 107.874 56.632 107.891 56.5173C107.895 56.3911 107.924 56.2669 107.977 56.1521C108.03 56.0373 108.105 55.9341 108.198 55.8487C108.291 55.7632 108.4 55.6972 108.519 55.6545C108.638 55.6117 108.764 55.5931 108.891 55.5997C109.3 55.5997 118.955 56.2715 124.135 58.877C127.856 60.8106 136.609 69.9707 145.067 78.8358C148.477 82.4081 151.624 85.7837 154.443 88.5367C163.852 97.9425 168.966 98.3686 179.162 99.3354C188.145 100.155 191.915 98.4505 192.554 98.1064C192.749 97.6578 192.834 97.1688 192.8 96.6808C192.8 96.14 192.8 94.8947 193.964 94.8947C194.372 94.9462 194.767 95.074 195.128 95.2715C198.92 96.905 202.938 97.9548 207.044 98.385C213.601 99.2207 218.519 93.9934 220.568 91.8304C220.932 91.3704 221.363 90.9673 221.846 90.6341C222.403 90.372 223.485 89.864 228.862 95.9106C239.549 95.714 250.548 99.6304 257.924 102.629C266.464 106.119 300.428 130.159 301.838 136.844C302.215 138.63 303.477 143.235 305.001 149.069C309.771 166.897 313.673 181.842 313.197 184.939C313.036 187.42 313.108 189.91 313.41 192.378C313.755 196.737 314.148 201.669 313.165 204.996C312.312 208.011 308.296 208.929 303.854 208.929Z" fill="#263238"/>
<path d="M206.684 108.266C203.758 108.281 200.85 107.81 198.078 106.873C188.603 103.596 188.702 100.4 188.817 99.7941C188.856 99.5442 188.993 99.3201 189.197 99.1711C189.401 99.022 189.657 98.9603 189.907 98.9994C190.157 99.0385 190.381 99.1753 190.53 99.3796C190.679 99.584 190.741 99.8392 190.702 100.089C190.702 100.253 191.079 102.449 198.701 105.005C203.864 106.659 209.41 106.696 214.595 105.112C219.781 103.528 224.358 100.397 227.714 96.1399C227.791 96.0419 227.886 95.9602 227.995 95.8996C228.104 95.839 228.223 95.8007 228.347 95.787C228.471 95.7732 228.596 95.7843 228.715 95.8196C228.835 95.8549 228.946 95.9137 229.042 95.9924C229.237 96.1527 229.362 96.3831 229.39 96.6342C229.417 96.8854 229.345 97.1373 229.189 97.3361C226.5 100.731 223.081 103.476 219.184 105.369C215.288 107.261 211.015 108.251 206.684 108.266Z" fill="#263238"/>
<path d="M123.709 33.2155L6.31079 12.6504L114.841 16.4521L123.709 33.2155Z" fill="#E8E8E8"/>
<path d="M104.383 16.0752V10.7496L6.31079 12.6504L104.383 16.0752Z" fill="#D9D9D9"/>
<path d="M110.743 10.6349L90.4825 0L6.31079 12.6504L110.743 10.6349Z" fill="#E8E8E8"/>
<path d="M99.6617 72.5925C99.5243 72.5976 99.3876 72.5706 99.2624 72.5138C99.1372 72.4569 99.027 72.3716 98.9405 72.2647C98.793 72.1009 84.3846 55.3702 80.09 51.9945C79.2048 51.3063 78.2869 50.5525 77.3362 49.7824C73.5112 46.3479 69.2377 43.4483 64.6325 41.163C58.7315 38.6723 51.1913 26.5462 50.8799 26.0219C50.8153 25.9143 50.7725 25.795 50.7541 25.6709C50.7356 25.5468 50.7417 25.4203 50.7722 25.2985C50.8026 25.1768 50.8568 25.0622 50.9315 24.9614C51.0062 24.8606 51.1001 24.7755 51.2077 24.7109C51.3153 24.6464 51.4346 24.6036 51.5588 24.5852C51.6829 24.5667 51.8095 24.5729 51.9313 24.6033C52.053 24.6337 52.1676 24.6878 52.2685 24.7625C52.3693 24.8372 52.4545 24.9311 52.519 25.0387C52.519 25.1534 60.0592 37.1483 65.4193 39.4261C70.1074 41.4088 74.5987 45.0794 78.5328 48.3076L81.2538 50.5034C85.7123 53.9937 99.7765 70.3311 100.383 71.0357C100.465 71.1289 100.527 71.2374 100.566 71.3549C100.605 71.4723 100.621 71.5964 100.612 71.72C100.603 71.8435 100.569 71.9639 100.513 72.0744C100.457 72.1848 100.379 72.2829 100.285 72.363C100.113 72.5145 99.8907 72.5963 99.6617 72.5925V72.5925Z" fill="#263238"/>
<path d="M70.8944 23.826L8.83521 12.6504L73.1564 31.9865L70.8944 23.826Z" fill="#9E9E9E"/>
<path d="M82.6143 34.8214L105.678 41.7529L107.317 30.3643L79.9097 25.4483C79.9097 25.4483 80.5162 29.0042 80.8604 30.3643C81.339 31.8895 81.9251 33.379 82.6143 34.8214V34.8214Z" fill="#9E9E9E"/>
<path d="M198.34 98.4667H198.078C197.957 98.4327 197.844 98.3752 197.746 98.2974C197.647 98.2196 197.565 98.123 197.504 98.0133C197.443 97.9036 197.405 97.783 197.391 97.6583C197.376 97.5336 197.387 97.4074 197.422 97.2869C197.422 97.2869 199.209 90.978 197.422 86.6356C197.359 86.5178 197.322 86.3882 197.312 86.255C197.303 86.1218 197.322 85.9882 197.367 85.8627C197.413 85.7373 197.485 85.6228 197.577 85.5269C197.67 85.4309 197.782 85.3556 197.906 85.3058C198.03 85.2561 198.163 85.2329 198.297 85.238C198.43 85.243 198.561 85.2761 198.681 85.3351C198.801 85.394 198.907 85.4776 198.992 85.5803C199.077 85.6829 199.14 85.8024 199.176 85.931C201.192 90.8469 199.291 97.5327 199.176 97.8112C199.118 97.9913 199.007 98.1498 198.858 98.2666C198.709 98.3834 198.529 98.453 198.34 98.4667V98.4667Z" fill="#263238"/>
<path d="M219.518 95.1568C219.368 95.1569 219.219 95.1212 219.086 95.0529C218.952 94.9845 218.836 94.8854 218.748 94.7636C216.158 91.1913 211.83 84.9316 211.994 83.1783C212.023 82.9305 212.147 82.7035 212.339 82.5447C212.532 82.3859 212.778 82.3076 213.027 82.3262C213.276 82.355 213.505 82.478 213.666 82.6699C213.828 82.8618 213.91 83.1081 213.896 83.3585C213.896 84.3581 217.174 89.4871 220.289 93.6493C220.362 93.7504 220.414 93.865 220.443 93.9864C220.472 94.1079 220.477 94.2338 220.457 94.3571C220.437 94.4803 220.393 94.5985 220.328 94.7048C220.262 94.8111 220.177 94.9034 220.075 94.9766C219.912 95.0919 219.718 95.1547 219.518 95.1568V95.1568Z" fill="#263238"/>
<path d="M325.589 242.767C325.363 242.763 325.138 242.735 324.917 242.685C322.294 242.112 312.033 231.608 310.164 229.051C308.72 227.226 306.875 225.757 304.772 224.758C303.727 226.207 303.072 227.9 302.87 229.674C302.673 232.099 302.296 234.475 300.887 235.442C300.549 235.665 300.165 235.805 299.764 235.854C299.363 235.902 298.956 235.857 298.575 235.721C295.658 234.836 296.1 232.132 296.723 228.396L296.936 227.069C297.586 224.144 298.692 221.341 300.215 218.761C300.477 218.269 300.756 217.728 300.903 217.401C300.149 216.139 297.067 211.059 294.953 207.569C294.824 207.353 294.784 207.095 294.843 206.85C294.901 206.605 295.052 206.393 295.264 206.258C295.371 206.192 295.489 206.148 295.613 206.127C295.737 206.107 295.863 206.112 295.985 206.141C296.107 206.17 296.222 206.223 296.323 206.296C296.424 206.37 296.51 206.462 296.576 206.569C297.576 208.208 302.526 216.286 302.755 216.762C302.985 217.237 302.755 217.892 301.887 219.58C300.469 221.983 299.435 224.593 298.821 227.314L298.592 228.642C297.953 232.542 297.92 233.476 299.116 233.836C299.575 233.984 299.739 233.836 299.821 233.836C300.674 233.263 300.903 230.428 300.985 229.494C301.159 227.038 302.185 224.72 303.886 222.939C304.057 222.822 304.251 222.744 304.455 222.71C304.659 222.676 304.868 222.687 305.067 222.743C307.64 223.866 309.893 225.612 311.623 227.822C314.148 231.1 323.72 240.407 325.31 240.751C325.491 240.751 325.802 240.833 325.884 240.669C325.966 240.506 325.884 239.195 324.474 237.867C322.589 236.229 316.377 228.035 316.918 226.151C316.975 225.946 317.088 225.76 317.244 225.616C317.4 225.471 317.594 225.373 317.803 225.332C318.688 225.151 319.573 225.79 324.638 230.248C327.245 232.558 331.195 236.032 332.179 236.229C332.558 236.304 332.941 236.358 333.326 236.393C333.12 236.028 332.89 235.678 332.638 235.344C331.851 234.246 330.294 232.542 328.785 230.887C326.943 229.029 325.27 227.011 323.786 224.856C323.67 224.635 323.646 224.376 323.72 224.137C323.793 223.897 323.959 223.697 324.179 223.578C324.402 223.46 324.662 223.433 324.903 223.504C325.145 223.574 325.35 223.736 325.474 223.955C326.886 225.964 328.459 227.855 330.179 229.609C331.818 231.378 333.326 233.05 334.178 234.23C335.031 235.409 335.818 236.638 335.146 237.507C334.473 238.375 333.146 238.293 331.867 238.015C330.589 237.736 327.753 235.409 323.442 231.608C322.294 230.592 320.917 229.363 319.803 228.445C321.499 231.31 323.512 233.976 325.802 236.393C327.622 238.031 328.359 240.063 327.638 241.456C327.467 241.855 327.181 242.193 326.815 242.427C326.45 242.66 326.023 242.779 325.589 242.767V242.767Z" fill="#263238"/>
<path d="M335.195 234.836C333.852 234.763 332.542 234.394 331.359 233.754C331.174 233.615 331.045 233.414 330.998 233.187C330.951 232.96 330.988 232.724 331.103 232.523C331.218 232.321 331.402 232.169 331.621 232.094C331.841 232.019 332.08 232.027 332.294 232.116C333.288 232.689 334.425 232.967 335.572 232.918L335.654 232.82C335.654 232.82 335.654 232.263 333.834 230.608C330.887 227.516 328.149 224.232 325.639 220.776C325.504 220.587 325.431 220.361 325.431 220.129C325.431 219.897 325.504 219.67 325.639 219.482C326.77 218.105 336.441 222.628 336.539 222.759C336.604 222.772 336.671 222.772 336.736 222.759C336.736 222.759 336.736 221.989 335.523 220.973C334.015 219.744 325.573 216.647 312.919 212.681L312.689 212.599C310.001 211.763 308.87 207.945 308.755 207.519C308.718 207.289 308.768 207.053 308.893 206.857C309.019 206.66 309.213 206.517 309.438 206.454C309.663 206.391 309.903 206.413 310.113 206.516C310.322 206.619 310.487 206.795 310.575 207.011C310.837 207.896 311.804 210.289 313.246 210.797H313.476C322.852 213.746 334.506 217.63 336.719 219.432C338.932 221.235 338.883 222.841 338.359 223.758C338.081 224.166 337.66 224.453 337.18 224.562C336.699 224.672 336.195 224.595 335.769 224.348C334.785 223.857 331.146 222.415 328.72 221.579C330.74 224.257 332.93 226.802 335.277 229.199C336.998 230.837 337.719 231.935 337.686 232.918C337.664 233.219 337.577 233.512 337.429 233.775C337.282 234.038 337.079 234.266 336.834 234.442C336.355 234.772 335.771 234.912 335.195 234.836V234.836Z" fill="#263238"/>
<path d="M184.801 16.0915C184.801 16.0915 173.064 19.1066 171.491 25.5301C169.917 31.9537 171.491 38.6394 176.556 37.9675C181.621 37.2957 188.259 32.9041 192.685 33.2154C197.111 33.5268 196.177 35.1982 194.587 38.0003C192.997 40.8024 195.849 45.5545 203.766 43.3423C211.683 41.1301 211.962 37.0171 217.683 38.5902C223.403 40.1633 218.191 53.1415 219.518 54.9768C220.846 56.8121 221.158 59.4012 224.141 54.9768C227.124 50.5524 231.616 44.5385 236.353 46.128C241.09 47.7175 231.927 56.8776 227.19 58.7785L222.436 60.6793C222.436 60.6793 220.535 73.9524 217.683 75.8533C217.683 75.8533 236.681 73.3297 243.909 66.6768C251.138 60.0238 244.86 60.1222 246.122 56.5663C247.384 53.0104 254.662 52.8301 254.662 48.5205C254.662 44.2108 253.712 44.8499 247.073 41.6873C240.434 38.5247 242.319 36.9516 243.27 35.3621C244.221 33.7726 245.172 30.9377 239.795 29.3482C234.419 27.7587 221.764 23.9734 224.092 20.4995C226.419 17.0255 227.632 10.0612 219.469 10.6675C211.306 11.2738 203.504 16.5831 198.865 16.0096C194.226 15.436 189.948 14.207 184.801 16.0915Z" fill="#263238"/>
<path d="M200.291 87.619H200.061L197.93 87.1438C192.406 85.9312 180.916 83.4241 174.785 79.0816C167.294 73.7724 168.655 60.5648 169.999 56.3535C171.343 52.1421 174.376 37.9022 174.408 37.6892C174.433 37.5641 174.484 37.4455 174.557 37.3411C174.631 37.2367 174.725 37.1488 174.834 37.0829C174.939 37.0126 175.058 36.9659 175.182 36.9461C175.307 36.9263 175.434 36.9338 175.556 36.9682C175.747 36.9857 175.939 36.9857 176.129 36.9682C176.227 36.9183 176.332 36.8851 176.441 36.8699C178.93 36.389 181.352 35.6077 183.653 34.543C186.932 33.1993 190.112 31.9211 192.751 32.1178C194.21 32.2325 196.029 32.4946 196.619 33.7564C197.209 35.0182 196.472 36.493 195.423 38.3446C195.186 38.8002 195.09 39.3153 195.145 39.8255C195.2 40.3356 195.405 40.8181 195.734 41.2123C197.045 42.8509 199.963 43.3262 203.504 42.3266C205.906 41.657 208.178 40.5878 210.224 39.164C212.486 37.7056 214.257 36.5585 217.945 37.5253C222.502 38.8035 221.453 45.3089 220.699 50.0774C220.367 51.4831 220.235 52.9283 220.305 54.3707C220.551 54.7148 220.764 55.0917 220.977 55.4522C221.144 55.807 221.365 56.1333 221.633 56.419C222.274 55.8111 222.825 55.116 223.272 54.3543C225.944 50.4707 230.911 43.2442 236.582 45.1451C237.137 45.2883 237.63 45.6093 237.985 46.0592C238.341 46.509 238.539 47.0628 238.549 47.6358C238.664 51.3883 231.615 57.9102 227.452 59.5652L223.157 61.2858C222.584 63.5799 220.125 73.1825 218.437 76.2304L218.109 76.853C217.06 78.9178 214.83 83.2438 210.618 85.4724C210.396 85.5884 210.137 85.6122 209.897 85.5386C209.658 85.4649 209.457 85.2998 209.339 85.0791C209.222 84.8547 209.198 84.5936 209.272 84.3516C209.345 84.1096 209.511 83.906 209.733 83.7846C213.437 81.8346 215.453 77.8854 216.42 75.9846L216.781 75.3127C218.518 72.1337 221.403 60.5648 221.436 60.3682C221.47 60.2223 221.538 60.0866 221.635 59.9725C221.732 59.8584 221.855 59.7693 221.994 59.7127L226.747 57.8119C230.403 56.3535 236.73 50.2577 236.582 47.685C236.582 47.4392 236.582 47.1442 235.91 46.9312C232.124 45.6694 228.321 50.2085 224.78 55.4358C223.321 57.5497 222.305 58.3362 221.321 58.3035C220.338 58.2707 219.682 57.2711 219.174 56.3862C218.994 56.0749 218.814 55.7472 218.6 55.4358C217.945 54.5182 218.174 52.8631 218.6 49.7661C219.256 45.7186 220.141 40.1799 217.224 39.3606C214.306 38.5413 213.191 39.3606 211.044 40.7043C208.917 42.2643 206.547 43.4605 204.028 44.2438C197.816 45.9808 195.111 43.5883 194.193 42.4741C193.636 41.7937 193.293 40.9634 193.209 40.0882C193.124 39.2131 193.301 38.3325 193.718 37.5581C194.291 36.5257 195.078 35.1329 194.882 34.7724C194.882 34.7724 194.587 34.3299 192.57 34.1825C190.554 34.035 187.292 35.264 184.374 36.4766C181.969 37.5583 179.451 38.3716 176.867 38.9018C176.615 38.9946 176.348 39.0391 176.08 39.0329C175.375 42.3102 172.949 53.3547 171.802 56.927C170.655 60.4993 169.343 72.8875 175.884 77.5413C181.686 81.6543 192.931 84.0959 198.324 85.2921L200.504 85.7673C200.626 85.7962 200.74 85.8488 200.842 85.9221C200.943 85.9954 201.029 86.088 201.095 86.1946C201.16 86.3012 201.204 86.4196 201.223 86.5431C201.243 86.6666 201.238 86.7928 201.209 86.9144C201.157 87.1179 201.039 87.298 200.872 87.4259C200.706 87.5537 200.501 87.6218 200.291 87.619V87.619Z" fill="#263238"/>
<path d="M172.392 51.9289C172.237 51.9317 172.084 51.892 171.95 51.8142C169.784 50.5562 167.894 48.8747 166.393 46.87C164.892 44.8654 163.81 42.5789 163.213 40.147C162.721 38.7301 162.721 37.1887 163.213 35.7718C163.465 35.4039 163.815 35.1138 164.224 34.9343C164.632 34.7548 165.082 34.693 165.524 34.7558C167.163 34.9033 169.294 36.3945 170.802 39.9176C171.655 42.1265 172.755 44.2319 174.081 46.1936C174.235 46.3935 174.303 46.6466 174.271 46.897C174.239 47.1475 174.108 47.3748 173.908 47.5291C173.708 47.6834 173.455 47.752 173.205 47.7197C172.954 47.6874 172.727 47.557 172.573 47.3571C171.114 45.2791 169.909 43.0347 168.983 40.6714C167.704 37.6398 166.049 36.7058 165.262 36.6403C164.885 36.6403 164.754 36.7714 164.721 36.8205C164.18 38.0167 166.098 46.6525 172.786 50.1428C172.971 50.2431 173.118 50.402 173.203 50.5946C173.288 50.7872 173.306 51.0027 173.256 51.2071C173.205 51.4115 173.088 51.5933 172.923 51.7239C172.758 51.8546 172.554 51.9267 172.343 51.9289H172.392Z" fill="#263238"/>
<path d="M211.093 49.3071H210.601C210.193 49.2358 209.816 49.0401 209.523 48.7469C209.229 48.4536 209.034 48.077 208.962 47.6685C208.7 46.5542 206.34 44.9647 204.733 44.1945C204.62 44.1403 204.518 44.064 204.434 43.9702C204.35 43.8764 204.286 43.7668 204.245 43.6479C204.204 43.529 204.186 43.4031 204.194 43.2776C204.202 43.152 204.235 43.0292 204.291 42.9164C204.343 42.8034 204.418 42.7022 204.51 42.6185C204.603 42.5349 204.711 42.4705 204.828 42.4293C204.946 42.3881 205.071 42.3708 205.195 42.3784C205.319 42.3861 205.441 42.4186 205.553 42.474C206.34 42.8508 210.257 44.8664 210.814 47.2424C210.814 47.3899 210.814 47.3899 210.946 47.4063C211.153 47.413 211.358 47.3687 211.544 47.2772C211.73 47.1858 211.89 47.05 212.011 46.8819C212.116 46.7272 212.172 46.5445 212.172 46.3576C212.172 46.1706 212.116 45.9879 212.011 45.8332C210.765 43.5227 209.913 42.2282 208.864 41.9496C208.735 41.9261 208.613 41.8764 208.505 41.8036C208.396 41.7307 208.304 41.6363 208.233 41.5262C208.163 41.4161 208.116 41.2927 208.096 41.1637C208.075 41.0347 208.082 40.9029 208.114 40.7764C208.147 40.6499 208.206 40.5316 208.286 40.4287C208.367 40.3259 208.468 40.2407 208.582 40.1786C208.697 40.1165 208.824 40.0787 208.954 40.0676C209.084 40.0566 209.215 40.0724 209.339 40.1143C211.241 40.6059 212.388 42.5067 213.683 44.9483C213.958 45.4249 214.084 45.9725 214.046 46.5211C214.008 47.0698 213.807 47.5947 213.47 48.029C213.193 48.4049 212.837 48.7146 212.426 48.9357C212.014 49.1568 211.559 49.2836 211.093 49.3071V49.3071Z" fill="#263238"/>
<path d="M177.031 42.7035C176.928 42.7192 176.823 42.7192 176.719 42.7035C176.229 42.5958 175.774 42.3625 175.401 42.0264C175.027 41.6903 174.747 41.263 174.588 40.7863C174.513 40.308 174.544 39.819 174.68 39.3543C174.816 38.8897 175.054 38.4609 175.375 38.0989C175.556 37.9247 175.797 37.8273 176.047 37.8273C176.298 37.8273 176.539 37.9247 176.719 38.0989C176.893 38.2764 176.99 38.5145 176.99 38.7625C176.99 39.0105 176.893 39.2487 176.719 39.4262V39.4262C176.555 39.6228 176.277 40.098 176.359 40.3602C176.441 40.6224 176.605 40.6879 176.916 40.8354C178.662 40.0385 180.541 39.5718 182.457 39.4589C182.737 39.4483 183.007 39.3512 183.23 39.1811C183.453 39.0109 183.618 38.776 183.702 38.5085C183.949 37.9456 183.995 37.3152 183.833 36.7224C183.618 36.755 183.398 36.7126 183.21 36.6022C183.022 36.4918 182.877 36.3202 182.801 36.1161C182.714 35.8898 182.718 35.6384 182.813 35.4151C182.907 35.1919 183.085 35.0143 183.309 34.9199C183.607 34.7944 183.936 34.7601 184.254 34.8213C184.572 34.8826 184.865 35.0366 185.096 35.264C185.501 35.811 185.753 36.4565 185.825 37.1336C185.897 37.8107 185.787 38.4947 185.505 39.1148C185.297 39.7455 184.901 40.298 184.371 40.6989C183.842 41.0998 183.202 41.3303 182.538 41.3598C180.757 41.466 179.013 41.9226 177.408 42.7035C177.284 42.7316 177.155 42.7316 177.031 42.7035V42.7035Z" fill="#263238"/>
<path d="M179.408 48.3566C178.45 47.9609 177.463 47.6377 176.457 47.3898C176.02 47.273 175.577 47.18 175.129 47.1112C174.621 47.0129 174.08 46.9638 173.375 46.7671C173.748 46.1831 174.296 45.7322 174.941 45.479C175.586 45.2258 176.295 45.1834 176.965 45.3579C177.654 45.5038 178.271 45.8809 178.716 46.4264C179.16 46.972 179.404 47.6531 179.408 48.3566V48.3566Z" fill="#263238"/>
<path d="M196.701 50.9785C197.293 50.1799 198.136 49.6029 199.094 49.3398C200.06 49.0612 201.079 49.0274 202.061 49.2415C203.03 49.4647 203.93 49.9203 204.684 50.5688C205.441 51.1925 206.009 52.0155 206.323 52.9448C205.389 52.6171 204.684 52.2402 203.864 51.9616C203.142 51.6728 202.396 51.448 201.635 51.2898C200.883 51.1039 200.114 50.9941 199.34 50.9621C198.455 50.9621 197.619 50.9621 196.701 50.9785Z" fill="#263238"/>
<path d="M184.948 62.2689H184.768C183.086 61.9313 181.44 61.4376 179.85 60.7941C179.557 60.6678 179.295 60.477 179.085 60.2359C178.875 59.9948 178.722 59.7095 178.637 59.4013C178.485 58.2445 178.778 57.0731 179.457 56.124L184.145 46.8983L184.309 46.6689C184.619 46.3045 185.011 46.0181 185.452 45.8331C185.893 45.648 186.372 45.5695 186.85 45.6038C187.357 45.7082 187.837 45.9182 188.258 46.2203C188.679 46.5224 189.031 46.9098 189.292 47.3571C189.395 47.5476 189.435 47.7654 189.407 47.9798C189.407 47.9798 188.341 54.9605 188.227 57.8118C188.274 58.7787 188.008 59.7351 187.467 60.5383C186.926 61.3415 186.141 61.9486 185.227 62.2689H184.948ZM185.719 47.8487L181.047 57.0416C180.644 57.5688 180.425 58.2135 180.424 58.8769C180.424 58.8769 180.424 58.9916 180.604 59.0572C181.98 59.6202 183.408 60.0483 184.866 60.3353C185.327 60.0778 185.704 59.6943 185.953 59.2298C186.203 58.7654 186.315 58.2393 186.276 57.7135C186.391 55.0916 187.194 49.5202 187.423 48.029C187.211 47.7453 186.911 47.5384 186.571 47.4391C186.407 47.447 186.247 47.4889 186.1 47.5623C185.953 47.6356 185.823 47.7388 185.719 47.8651V47.8487Z" fill="#263238"/>
<path d="M173.376 50.9294C173.745 50.8089 174.136 50.7671 174.523 50.8066C174.909 50.8461 175.284 50.9661 175.621 51.1588C176.664 51.7319 177.496 52.6226 177.997 53.7012C178.498 54.7799 178.642 55.9903 178.408 57.1563C177.883 58.5 176.179 56.976 173.72 56.0092C172.917 55.6979 172.835 56.0092 172.081 55.747L173.376 50.9294Z" fill="#263238"/>
<path d="M192.8 60.0895C192.521 61.7281 195.553 61.3349 199.11 61.9084C202.667 62.4819 205.372 63.8748 205.667 62.1706C205.962 60.4664 203.667 56.2714 200.127 55.6979C196.586 55.1244 193.078 58.3853 192.8 60.0895Z" fill="#263238"/>
<path d="M183.932 69.4298C186.079 68.7744 187.898 68.4466 189.636 67.9059C190.508 67.6563 191.362 67.3498 192.193 66.9882C193.062 66.6441 193.832 66.1525 194.914 65.6445C194.696 66.7727 194.122 67.801 193.275 68.5777C192.431 69.3441 191.421 69.9049 190.324 70.2164C189.261 70.5241 188.147 70.6188 187.046 70.495C185.934 70.4104 184.862 70.0438 183.932 69.4298V69.4298Z" fill="#263238"/>
<path d="M225.6 148.708C225.6 157.786 221.797 165.094 208.175 165.094C198.569 165.094 192.783 157.753 192.783 148.708C192.783 139.662 196.652 132.321 208.175 132.321C219.698 132.321 225.6 139.646 225.6 148.708Z" fill="#E8E8E8"/>
<path d="M206.536 150.757H206.225C205.7 150.757 204.7 150.757 204.405 149.855C204.11 148.954 204.782 148.528 205.241 148.217C205.474 148.03 205.688 147.822 205.88 147.594L205.733 147.496C204.503 146.644 196.275 146.906 189.03 147.659C188.906 147.675 188.78 147.666 188.659 147.633C188.539 147.599 188.426 147.541 188.328 147.464C188.23 147.386 188.149 147.289 188.089 147.179C188.03 147.069 187.993 146.948 187.981 146.824C187.958 146.572 188.034 146.322 188.193 146.126C188.352 145.93 188.582 145.804 188.833 145.775C191.406 145.513 204.389 144.251 206.864 145.939C207.15 146.109 207.388 146.348 207.557 146.635C207.726 146.921 207.82 147.245 207.831 147.578C207.838 147.836 207.794 148.094 207.701 148.336C207.608 148.578 207.469 148.799 207.29 148.987C208.077 148.987 209.159 148.807 210.405 148.659C215.896 148.004 225.157 146.906 233.189 149.052C233.426 149.123 233.626 149.284 233.746 149.5C233.866 149.716 233.898 149.97 233.834 150.209C233.77 150.447 233.616 150.652 233.403 150.779C233.191 150.905 232.938 150.944 232.697 150.888C224.944 148.839 215.994 149.904 210.634 150.544C208.765 150.576 207.405 150.757 206.536 150.757Z" fill="#263238"/>
<path d="M74.0252 39.8521C73.8398 39.8534 73.6582 39.7996 73.5035 39.6975C73.3488 39.5954 73.228 39.4495 73.1564 39.2786C72.4605 36.9573 72.1396 34.54 72.2057 32.1176L69.9601 24.2193C69.9203 24.0646 69.9196 23.9024 69.9578 23.7473C69.9961 23.5922 70.0723 23.4491 70.1794 23.3306C70.2866 23.2121 70.4214 23.122 70.572 23.0683C70.7225 23.0147 70.8839 22.9991 71.0419 23.0231L78.9755 24.4159C79.3689 24.4159 81.2704 25.0386 81.6146 29.3319C81.7722 31.1513 82.3929 32.9 83.4177 34.4117C83.4849 34.5172 83.5298 34.6353 83.5496 34.7588C83.5695 34.8823 83.5639 35.0085 83.5332 35.1297C83.5025 35.251 83.4473 35.3646 83.3711 35.4638C83.2949 35.5629 83.1991 35.6455 83.0899 35.7063C82.9837 35.7711 82.8656 35.8141 82.7426 35.8328C82.6196 35.8514 82.494 35.8452 82.3734 35.8147C82.2528 35.7842 82.1395 35.7299 82.0401 35.655C81.9408 35.5801 81.8574 35.4861 81.7949 35.3786C80.616 33.6257 79.9051 31.6007 79.7295 29.4958C79.5001 26.6609 78.5821 26.2185 78.5657 26.2185L72.2057 25.1042L74.0744 31.6588C74.0823 31.7515 74.0823 31.8447 74.0744 31.9374C74.0012 34.1496 74.2665 36.3599 74.8612 38.492C74.9602 38.7225 74.964 38.9827 74.8719 39.2159C74.7798 39.4492 74.5992 39.6367 74.3694 39.7374C74.2625 39.7959 74.1459 39.8348 74.0252 39.8521V39.8521Z" fill="#263238"/>
<path d="M108.841 57.566C108.668 57.5734 108.496 57.5277 108.349 57.4349C106.186 56.1568 87.1383 44.719 84.5812 39.9996C84.4963 39.8527 84.4517 39.6859 84.4517 39.5162C84.4517 39.3465 84.4963 39.1798 84.5812 39.0328C85.1121 38.0739 85.4307 37.0121 85.5156 35.9194C85.5263 35.7946 85.5616 35.6731 85.6193 35.5619C85.677 35.4507 85.7561 35.352 85.852 35.2713C85.9479 35.1907 86.0587 35.1297 86.1782 35.0919C86.2976 35.0541 86.4234 35.0401 86.5482 35.0509C86.6731 35.0616 86.7946 35.0969 86.9058 35.1546C87.0171 35.2123 87.1158 35.2913 87.1965 35.3872C87.2772 35.4831 87.3382 35.5939 87.376 35.7133C87.4138 35.8327 87.4278 35.9584 87.417 36.0832C87.3044 37.27 86.9884 38.4285 86.4827 39.508C89.2693 43.3916 103.743 52.5026 109.284 55.8946C109.393 55.9554 109.489 56.0379 109.565 56.1371C109.641 56.2362 109.696 56.3499 109.727 56.4711C109.758 56.5924 109.763 56.7186 109.743 56.8421C109.724 56.9655 109.679 57.0836 109.611 57.1891C109.522 57.3079 109.405 57.4039 109.271 57.4694C109.137 57.5348 108.99 57.5679 108.841 57.566Z" fill="#263238"/>
<path d="M205.257 382.429C205.257 382.429 204.356 368.566 203.618 367.895C202.881 367.223 193.455 368.501 191.521 367.534C189.587 366.567 188.521 371.86 187.276 372.45C186.03 373.04 183.407 370.516 185.194 367.223C186.981 363.929 179.637 358.013 177.801 358.161C175.965 358.308 164.262 363.077 155.213 363.634C146.165 364.191 138.969 362.487 136.478 363.798C133.986 365.109 131.675 366.584 135.15 370.582C138.625 374.58 146.624 382.495 157.246 382.593C167.868 382.692 170.359 380.955 171.671 379.414C172.982 377.874 174.949 375.072 176.375 377.939C177.801 380.807 177.834 384.691 180.309 385.428C182.784 386.166 199.733 390.098 205.257 382.429Z" fill="#263238"/>
<path d="M189.423 396.555C186.941 396.574 184.466 396.305 182.047 395.752C178.635 394.803 175.495 393.063 172.884 390.672C172.261 390.164 171.638 389.656 171.015 389.197C169.835 388.329 166.983 388.64 163.704 389C159.36 389.645 154.947 389.689 150.591 389.132C142.412 387.518 134.953 383.36 129.282 377.251C126.249 373.499 127.495 370.205 129.019 367.141C129.373 366.193 130.041 365.396 130.913 364.883C131.784 364.37 132.806 364.172 133.806 364.322C134.024 364.403 134.206 364.561 134.315 364.766C134.425 364.972 134.456 365.21 134.401 365.437C134.346 365.663 134.211 365.862 134.019 365.994C133.828 366.127 133.594 366.185 133.363 366.158C133.199 366.158 131.724 365.895 130.708 367.993C129.314 370.795 128.429 373.171 130.708 376.055C136.106 381.796 143.158 385.714 150.886 387.263C155.07 387.779 159.304 387.73 163.475 387.116C167.294 386.69 170.327 386.362 172.097 387.673C172.753 388.148 173.392 388.673 174.048 389.197C176.442 391.415 179.33 393.033 182.473 393.916C187.62 395.195 196.029 394.932 201.176 392.278C205.946 389.82 206.716 387.526 204.454 382.855C204.409 382.65 204.433 382.435 204.523 382.245C204.613 382.055 204.763 381.9 204.951 381.804C205.138 381.709 205.352 381.678 205.559 381.717C205.766 381.756 205.954 381.862 206.093 382.02C208.88 387.591 207.733 391.049 202.061 393.949C198.101 395.766 193.779 396.657 189.423 396.555V396.555Z" fill="#263238"/>
<path d="M181.211 364.699C181.036 364.7 180.864 364.651 180.716 364.559C180.568 364.466 180.45 364.332 180.375 364.175C180.318 364.067 180.283 363.949 180.272 363.828C180.261 363.707 180.275 363.586 180.311 363.47C180.348 363.354 180.407 363.246 180.485 363.154C180.564 363.061 180.66 362.985 180.768 362.929C180.899 362.831 185.178 359.914 189.849 340.709C189.865 340.576 189.909 340.448 189.978 340.333C190.048 340.218 190.14 340.119 190.251 340.042C190.361 339.965 190.486 339.913 190.618 339.888C190.75 339.864 190.885 339.867 191.016 339.899C191.146 339.93 191.269 339.989 191.375 340.071C191.481 340.153 191.569 340.257 191.632 340.375C191.695 340.493 191.732 340.624 191.742 340.757C191.751 340.891 191.732 341.026 191.685 341.151C186.768 361.536 182.145 364.355 181.637 364.601C181.504 364.666 181.359 364.7 181.211 364.699V364.699Z" fill="#263238"/>
<path d="M200.471 371.319C200.232 371.32 200.001 371.228 199.827 371.063C199.653 370.899 199.549 370.674 199.537 370.435C199.078 363.29 208.519 343.495 208.929 342.659C209.068 342.505 209.254 342.4 209.459 342.362C209.663 342.323 209.875 342.353 210.061 342.446C210.247 342.539 210.397 342.69 210.489 342.877C210.58 343.063 210.608 343.275 210.568 343.479C210.47 343.675 200.946 363.667 201.356 370.304C201.365 370.428 201.349 370.554 201.31 370.673C201.27 370.791 201.207 370.901 201.125 370.995C201.043 371.09 200.942 371.167 200.83 371.223C200.718 371.278 200.596 371.311 200.471 371.319V371.319Z" fill="#263238"/>
<path d="M207.88 344.117C201.651 344.117 190.456 340.84 185.096 337.678C179.49 334.4 181.195 322.307 182.686 311.623C182.866 310.312 183.047 309.017 183.211 307.788C183.866 302.709 183.702 292.942 183.522 283.487C183.325 272.328 183.145 261.775 184.178 257.4C186.079 249.207 202.553 219.055 203.258 217.777C203.314 217.666 203.393 217.568 203.489 217.488C203.585 217.408 203.696 217.349 203.816 217.314C203.936 217.278 204.061 217.268 204.185 217.283C204.309 217.298 204.428 217.338 204.536 217.4C204.646 217.459 204.743 217.538 204.821 217.634C204.899 217.73 204.958 217.841 204.993 217.96C205.028 218.079 205.039 218.204 205.025 218.327C205.012 218.451 204.974 218.57 204.913 218.678C204.749 218.99 187.866 249.977 186.014 257.826C185.047 261.972 185.243 272.901 185.424 283.454C185.588 292.975 185.768 302.823 185.096 308.034C184.932 309.28 184.752 310.574 184.555 311.885C183.227 321.471 181.555 333.417 186.046 336.039C191.636 339.316 204.766 342.97 209.601 342.086C211.978 341.659 220.043 339.333 224.551 327.502C228.222 317.883 229.239 286.06 229.239 282.75C228.6 280.822 227.69 278.996 226.534 277.326C224.256 273.491 223.256 271.607 224.174 270.542C225.092 269.477 226.288 270.28 226.78 270.542C228.84 271.576 230.762 272.864 232.501 274.376L233.615 275.245C233.615 275.245 233.615 275.065 233.615 274.966C233.206 273.475 232.747 272.148 232.37 271.083C231.583 268.772 231.14 267.494 231.878 266.642C232.123 266.405 232.427 266.238 232.759 266.16C233.091 266.082 233.438 266.096 233.763 266.199C236.254 266.691 237.615 266.511 238.68 265.511C239.959 264.135 262.465 227.822 264.055 219.957C265.858 211.239 265.694 201.538 263.711 198.359C261.383 194.639 258.564 190.87 258.531 190.838C258.381 190.635 258.318 190.382 258.355 190.133C258.392 189.885 258.526 189.661 258.728 189.51C258.826 189.433 258.939 189.377 259.059 189.344C259.18 189.311 259.306 189.303 259.429 189.32C259.553 189.337 259.672 189.378 259.78 189.442C259.887 189.506 259.981 189.59 260.055 189.691C260.055 189.691 262.957 193.558 265.317 197.343C267.923 201.522 267.579 212.304 265.923 220.284C264.268 228.265 241.287 265.462 239.877 266.871C238.041 268.707 235.664 268.51 233.32 268.084C233.514 268.896 233.76 269.696 234.058 270.476C234.435 271.574 234.91 272.934 235.336 274.491C235.664 275.72 235.91 276.965 235.041 277.523C234.173 278.08 233.091 277.342 231.271 275.884C229.65 274.473 227.861 273.268 225.944 272.295H225.846C226.514 273.736 227.275 275.132 228.124 276.474C229.96 279.587 231.091 281.57 231.091 282.865C231.091 283.192 230.353 317.604 226.288 328.288C221.371 341.053 212.519 343.593 209.896 344.068C209.227 344.146 208.552 344.162 207.88 344.117V344.117Z" fill="#263238"/>
<path d="M294.101 314.212C293.265 314.212 292.462 314.212 291.822 314.114C287.888 313.819 274.217 309.329 262.153 305.38C254.908 303.004 248.073 300.759 244.663 299.857C238.742 298.134 233.454 294.716 229.452 290.026C229.357 289.931 229.283 289.818 229.235 289.693C229.187 289.568 229.166 289.434 229.173 289.3C229.18 289.167 229.215 289.036 229.277 288.917C229.338 288.798 229.424 288.693 229.528 288.61C229.633 288.526 229.754 288.465 229.883 288.432C230.013 288.398 230.148 288.392 230.28 288.415C230.412 288.437 230.538 288.487 230.65 288.561C230.761 288.635 230.856 288.732 230.927 288.846C234.7 293.184 239.629 296.36 245.139 298.006C248.614 298.923 255.482 301.168 262.743 303.561C274.119 307.281 288.265 311.934 291.97 312.213C297.51 312.639 306.903 311.459 310.001 306.478C313.099 301.496 313.59 289.354 312.738 286.371L312.623 285.962C311.607 282.373 309.23 273.934 301.477 271.361C291.773 268.084 274.84 263.479 273.037 263.791C272.66 263.791 272.251 264.807 272.005 265.347C271.628 266.199 271.234 267.068 270.365 267.084C269.497 267.101 268.923 266.085 268.726 265.659C268.382 264.97 268.038 264.168 267.694 263.332C267.169 262.07 266.054 259.448 265.448 259.301C264.666 260.021 263.958 260.817 263.333 261.677C261.825 263.61 260.809 264.954 259.662 264.479C258.514 264.004 258.645 262.84 258.645 262.381C258.679 261.234 258.821 260.093 259.072 258.973C259.596 256.318 259.612 255.401 257.842 254.729C253.646 253.09 252.712 246.192 252.712 243.652C252.712 243.4 252.812 243.158 252.99 242.98C253.168 242.801 253.41 242.701 253.662 242.701C253.914 242.701 254.156 242.801 254.335 242.98C254.513 243.158 254.613 243.4 254.613 243.652C254.613 245.29 255.285 251.747 258.514 252.959C261.743 254.172 261.399 256.941 260.94 259.334C260.765 260.275 260.661 261.228 260.629 262.185C261.039 261.726 261.53 261.087 261.907 260.546C262.604 259.56 263.413 258.659 264.317 257.859C264.545 257.679 264.812 257.554 265.095 257.491C265.379 257.429 265.673 257.431 265.956 257.498C267.464 257.908 268.382 260.104 269.448 262.627C269.743 263.332 270.038 264.036 270.316 264.643C270.759 263.66 271.365 262.332 272.644 262.005C275.07 261.415 295.74 267.494 302.149 269.624C310.837 272.525 313.509 281.963 314.508 285.519L314.623 285.913C315.607 289.321 315.246 301.939 311.673 307.559C308.28 312.852 299.674 314.212 294.101 314.212Z" fill="#263238"/>
<ellipse cx="259.809" cy="264.643" rx="0.819595" ry="0.819321" fill="#263238"/>
<ellipse cx="270.464" cy="267.101" rx="1.63918" ry="1.63866" fill="#263238"/>
<ellipse cx="258.99" cy="263.824" rx="1.63918" ry="1.63864" fill="#263238"/>
<ellipse rx="1.23304" ry="6.16403" transform="matrix(0.895044 0.445977 -0.446202 0.894932 191.013 247.235)" fill="#263238"/>
</svg>
