<svg width="51" height="25" viewBox="0 0 51 25" fill="none" xmlns="http://www.w3.org/2000/svg">
<path d="M4.03072 10.5389C3.21384 11.9681 2.29023 13.3337 1.26774 14.6239C0.926068 14.1271 0.550616 13.6545 0.144043 13.2093C2.99885 9.38885 5.13145 5.07885 6.43677 0.491699L8.60485 1.13949C8.49909 1.40388 8.27435 1.45677 7.98351 1.43033C7.2765 3.53938 6.44662 5.60524 5.49814 7.61729L6.25168 7.82877C6.25168 7.98741 6.07982 8.11962 5.7361 8.13284V24.7504H4.03072V10.5389ZM21.9174 11.1734C22.1289 10.2084 22.3933 8.74096 22.6181 7.32642H17.4226V22.5823C17.4226 24.4595 16.7484 24.8033 13.0864 24.8033C12.9535 24.1772 12.7355 23.5723 12.4386 23.0053C13.0864 23.0053 13.7606 23.0053 14.2101 23.0053H15.2545C15.5982 23.0053 15.704 22.8996 15.704 22.5558V7.32642H11.5C10.8231 9.07594 9.93522 10.7363 8.85602 12.2707C8.45996 11.862 8.01609 11.5024 7.53402 11.1999C9.68323 7.98457 11.15 4.36255 11.8437 0.557803L14.0118 1.13949C14.0118 1.32456 13.7871 1.43032 13.4434 1.40388C13.0818 2.85485 12.6404 4.28477 12.1214 5.68714H23.6624H24.5878C24.319 7.62287 23.926 9.53931 23.4113 11.4246L21.9174 11.1734ZM13.5624 12.0328C13.483 12.2178 13.2979 12.3236 12.9807 12.3236C12.2187 15.4554 10.8732 18.4154 9.01467 21.0487C8.58294 20.7038 8.11794 20.4027 7.62656 20.1498C9.48028 17.5218 10.7802 14.5443 11.4471 11.3982L13.5624 12.0328ZM23.0411 20.8373C22.2569 17.6848 21.0519 14.6522 19.4585 11.8212L21.0052 11.2792C22.6511 14.0672 23.9013 17.0704 24.72 20.2027L23.0411 20.8373Z" fill="#263238"/>
<path d="M35.5341 5.9513L36.5256 6.20248L36.3669 6.57264C36.1715 10.4334 35.3222 14.2331 33.8551 17.8096C34.996 18.6351 36.0384 19.5888 36.9618 20.6519L35.891 22.0929C35.0641 21.0854 34.1287 20.1721 33.1016 19.3696C31.9032 21.6229 30.117 23.5096 27.9326 24.8295C27.6215 24.3098 27.2535 23.8265 26.8353 23.3885C28.9312 22.2061 30.636 20.437 31.7399 18.2988C30.7839 17.5779 29.7911 16.9072 28.7654 16.2894L28.4481 17.4395L26.9543 16.6595C27.6153 14.3592 28.4217 11.041 29.1752 7.66988H26.5312V6.01738H29.5057C29.9288 4.06082 30.2857 2.18358 30.603 0.504639L32.7446 0.769055C32.7446 0.954135 32.5596 1.05988 32.2291 1.08632C31.9382 2.58018 31.5681 4.27234 31.1847 6.01738H35.1507L35.5341 5.9513ZM30.8277 7.66988C30.2725 10.1024 29.6776 12.5481 29.1224 14.6897C30.2196 15.2978 31.3433 16.0117 32.4406 16.7653C33.6231 13.8618 34.3542 10.7945 34.6087 7.66988H30.8277ZM50.7635 12.1647V13.8568H44.4576V22.5027C44.4576 24.5122 43.6776 24.8295 39.0506 24.7766C38.8964 24.1738 38.6793 23.5889 38.4028 23.0315H41.5359C42.4217 23.0315 42.6861 23.0315 42.6861 22.4763V13.804H36.2876V12.1118H42.6861V7.66988H43.5454C44.9876 6.39611 46.2864 4.96872 47.4188 3.41306H37.3584V1.76056H48.7408L49.0845 1.65479L50.4726 2.5273C50.3596 2.65108 50.2124 2.73851 50.0496 2.77848C48.4466 5.01911 46.5678 7.04892 44.4576 8.82002V12.0589L50.7635 12.1647Z" fill="#263238"/>
</svg>
