<svg width="89" height="87" viewBox="0 0 89 87" fill="none" xmlns="http://www.w3.org/2000/svg">
<path d="M54.7465 30.8432C55.3531 31.3247 56.2351 31.2233 56.7166 30.6167L61.5987 24.4662C62.0802 23.8596 61.9788 22.9775 61.3722 22.4961C60.7657 22.0146 59.8836 22.116 59.4021 22.7226L54.52 28.8731C54.0385 29.4797 54.1399 30.3618 54.7465 30.8432Z" fill="black"/>
<path d="M41.9128 24.1936C41.8366 24.7076 42.0493 25.1975 42.4288 25.4988C42.6151 25.6467 42.8417 25.7492 43.0939 25.7866C43.8599 25.9003 44.5732 25.3715 44.6869 24.6055L45.8396 16.841C45.9533 16.0747 45.4246 15.3617 44.6586 15.248C43.8925 15.1343 43.1792 15.6631 43.0655 16.4291L41.9128 24.1936Z" fill="black"/>
<path d="M53.2132 80.976L50.3285 73.6757C50.0439 72.9552 49.2292 72.6021 48.509 72.8869C47.7887 73.1715 47.4355 73.986 47.7202 74.7064L50.605 82.0067C50.6986 82.2439 50.8497 82.4412 51.0361 82.5891C51.4157 82.8904 51.9414 82.9864 52.4244 82.7955C53.1447 82.5109 53.4978 81.6962 53.2132 80.976V80.976Z" fill="black"/>
<path d="M25.7691 19.1485L28.6538 26.4489C28.7474 26.686 28.8985 26.8833 29.085 27.0313C29.4645 27.3326 29.9902 27.4285 30.4733 27.2376C31.1935 26.9531 31.5467 26.1385 31.262 25.4182L28.3773 18.1178C28.0929 17.3974 27.2782 17.0444 26.5578 17.3291C25.8376 17.6136 25.4845 18.428 25.7691 19.1485V19.1485Z" fill="black"/>
<path d="M66.8309 69.9734L60.6803 65.0913C60.0738 64.6098 59.1917 64.7112 58.7102 65.3178C58.2288 65.9244 58.3302 66.8064 58.9367 67.2879L65.0872 72.17C65.6938 72.6515 66.5759 72.5501 67.0574 71.9435C67.5388 71.337 67.4376 70.455 66.8309 69.9734Z" fill="black"/>
<path d="M20.2722 34.8068C20.7537 34.2003 20.6523 33.3182 20.0457 32.8367L13.8952 27.9546C13.2886 27.4731 12.4065 27.5745 11.9251 28.1811C11.4436 28.7876 11.545 29.6697 12.1516 30.1512L18.3021 35.0333C18.9088 35.5149 19.7908 35.4134 20.2722 34.8068Z" fill="black"/>
<path d="M64.2828 54.9702C64.4691 55.1181 64.6956 55.2206 64.9479 55.258L72.7124 56.4107C73.4784 56.5244 74.1917 55.9956 74.3054 55.2296C74.4191 54.4636 73.8902 53.7502 73.1243 53.6366L65.3598 52.4839C64.5938 52.3702 63.8804 52.8989 63.7668 53.665C63.6905 54.1788 63.9034 54.669 64.2828 54.9702Z" fill="black"/>
<path d="M14.0344 44.8666L6.26994 43.7139C5.50392 43.6002 4.79061 44.1289 4.67693 44.8949C4.60067 45.4087 4.81338 45.8989 5.19296 46.2002C5.37923 46.348 5.60581 46.4505 5.85803 46.488L13.6225 47.6407C14.3885 47.7544 15.1019 47.2256 15.2155 46.4596C15.3295 45.6936 14.8002 44.98 14.0344 44.8666V44.8666Z" fill="black"/>
<path d="M62.316 41.0446C62.4097 41.2818 62.5608 41.479 62.7472 41.627C63.1267 41.9283 63.6524 42.0242 64.1355 41.8334L71.4358 38.9486C72.156 38.6641 72.5091 37.8494 72.2246 37.1292C71.9402 36.409 71.1254 36.0557 70.4051 36.3404L63.1047 39.2251C62.3845 39.5097 62.0314 40.3244 62.316 41.0446V41.0446Z" fill="black"/>
</svg>
