<svg width="59" height="33" viewBox="0 0 59 33" fill="none" xmlns="http://www.w3.org/2000/svg">
<g filter="url(#filter0_d_4_24202)">
<path d="M8.03072 10.5389C7.21384 11.9681 6.29023 13.3337 5.26774 14.6239C4.92607 14.1271 4.55062 13.6545 4.14404 13.2093C6.99885 9.38885 9.13145 5.07885 10.4368 0.491699L12.6048 1.13949C12.4991 1.40388 12.2743 1.45677 11.9835 1.43033C11.2765 3.53938 10.4466 5.60524 9.49814 7.61729L10.2517 7.82877C10.2517 7.98741 10.0798 8.11962 9.7361 8.13284V24.7504H8.03072V10.5389ZM25.9174 11.1734C26.1289 10.2084 26.3933 8.74096 26.6181 7.32642H21.4226V22.5823C21.4226 24.4595 20.7484 24.8033 17.0864 24.8033C16.9535 24.1772 16.7355 23.5723 16.4386 23.0053C17.0864 23.0053 17.7606 23.0053 18.2101 23.0053H19.2545C19.5982 23.0053 19.704 22.8996 19.704 22.5558V7.32642H15.5C14.8231 9.07594 13.9352 10.7363 12.856 12.2707C12.46 11.862 12.0161 11.5024 11.534 11.1999C13.6832 7.98457 15.15 4.36255 15.8437 0.557803L18.0118 1.13949C18.0118 1.32456 17.7871 1.43032 17.4434 1.40388C17.0818 2.85485 16.6404 4.28477 16.1214 5.68714H27.6624H28.5878C28.319 7.62287 27.926 9.53931 27.4113 11.4246L25.9174 11.1734ZM17.5624 12.0328C17.483 12.2178 17.2979 12.3236 16.9807 12.3236C16.2187 15.4554 14.8732 18.4154 13.0147 21.0487C12.5829 20.7038 12.1179 20.4027 11.6266 20.1498C13.4803 17.5218 14.7802 14.5443 15.4471 11.3982L17.5624 12.0328ZM27.0411 20.8373C26.2569 17.6848 25.0519 14.6522 23.4585 11.8212L25.0052 11.2792C26.6511 14.0672 27.9013 17.0704 28.72 20.2027L27.0411 20.8373Z" fill="#263238"/>
<path d="M39.5341 5.9513L40.5256 6.20248L40.3669 6.57264C40.1715 10.4334 39.3222 14.2331 37.8551 17.8096C38.996 18.6351 40.0384 19.5888 40.9618 20.6519L39.891 22.0929C39.0641 21.0854 38.1287 20.1721 37.1016 19.3696C35.9032 21.6229 34.117 23.5096 31.9326 24.8295C31.6215 24.3098 31.2535 23.8265 30.8353 23.3885C32.9312 22.2061 34.636 20.437 35.7399 18.2988C34.7839 17.5779 33.7911 16.9072 32.7654 16.2894L32.4481 17.4395L30.9543 16.6595C31.6153 14.3592 32.4217 11.041 33.1752 7.66988H30.5312V6.01738H33.5057C33.9288 4.06082 34.2857 2.18358 34.603 0.504639L36.7446 0.769055C36.7446 0.954135 36.5596 1.05988 36.2291 1.08632C35.9382 2.58018 35.5681 4.27234 35.1847 6.01738H39.1507L39.5341 5.9513ZM34.8277 7.66988C34.2725 10.1024 33.6776 12.5481 33.1224 14.6897C34.2196 15.2978 35.3433 16.0117 36.4406 16.7653C37.6231 13.8618 38.3542 10.7945 38.6087 7.66988H34.8277ZM54.7635 12.1647V13.8568H48.4575V22.5027C48.4575 24.5122 47.6776 24.8295 43.0506 24.7766C42.8964 24.1738 42.6793 23.5889 42.4028 23.0315H45.5359C46.4217 23.0315 46.6861 23.0315 46.6861 22.4763V13.804H40.2876V12.1118H46.6861V7.66988H47.5454C48.9876 6.39611 50.2864 4.96872 51.4188 3.41306H41.3584V1.76056H52.7408L53.0845 1.65479L54.4726 2.5273C54.3596 2.65108 54.2124 2.73851 54.0496 2.77848C52.4466 5.01911 50.5678 7.04892 48.4575 8.82002V12.0589L54.7635 12.1647Z" fill="#263238"/>
</g>
<defs>
<filter id="filter0_d_4_24202" x="0.144043" y="0.491699" width="58.6195" height="32.3379" filterUnits="userSpaceOnUse" color-interpolation-filters="sRGB">
<feFlood flood-opacity="0" result="BackgroundImageFix"/>
<feColorMatrix in="SourceAlpha" type="matrix" values="0 0 0 0 0 0 0 0 0 0 0 0 0 0 0 0 0 0 127 0" result="hardAlpha"/>
<feOffset dy="4"/>
<feGaussianBlur stdDeviation="2"/>
<feComposite in2="hardAlpha" operator="out"/>
<feColorMatrix type="matrix" values="0 0 0 0 0 0 0 0 0 0 0 0 0 0 0 0 0 0 0.25 0"/>
<feBlend mode="normal" in2="BackgroundImageFix" result="effect1_dropShadow_4_24202"/>
<feBlend mode="normal" in="SourceGraphic" in2="effect1_dropShadow_4_24202" result="shape"/>
</filter>
</defs>
</svg>
