<svg width="89" height="198" fill="none" xmlns="http://www.w3.org/2000/svg"><path d="M49.811 192.581a37.801 37.801 0 01-5.065-.344c-7.442-1-18.293-4.916-27.67-17.435C1.522 153.942.915 136.965.686 129.706c0-1.098 0-1.95-.148-2.573-.41-3.277 0-7.144 1.918-7.947.492-.23 1.492-.394 2.557.901a6.372 6.372 0 011.18 3.277c.345 2.098.738 4.49 5.377 7.194 9.704 5.62 42.028 26.366 50.978 57.173a.946.946 0 01-.276 1.074.952.952 0 01-1.543-.55c-8.753-30.119-40.57-50.52-50.11-56.058-5.425-3.147-5.934-6.26-6.294-8.521a4.765 4.765 0 00-.77-2.327 1.192 1.192 0 00-.427-.377c-.311.196-1.164 2.327-.705 5.981 0 .655.115 1.639.164 2.736.246 7.079.836 23.646 16.032 44.031 8.95 12.028 19.243 15.698 26.308 16.682a32.9 32.9 0 0013.376-.787.952.952 0 01.916 1.624.945.945 0 01-.326.179 30.86 30.86 0 01-9.081 1.163z" fill="#263238"/><path d="M58.794 189.238h-.164c-.607-.114-15.097-2.704-30.718-16.632a72.179 72.179 0 01-20.359-33.068.952.952 0 011.852-.443 70.015 70.015 0 0019.769 32.118c15.179 13.552 29.636 16.157 29.784 16.174a.966.966 0 01.77 1.097.933.933 0 01-.934.754zm9.278-.328a.935.935 0 01-1.017-.852.937.937 0 01.853-1.016c.18 0 18.03-3.752 18.703-36.837.82-36.492-6.557-53.977-11.13-58.549-.951-.967-1.787-1.425-2.197-1.262-1.754.689-1.901 8.735-1.983 13.536-.131 6.423-3.279 12.601-7.508 21.171a591.733 591.733 0 00-4.819 9.832c-6.409 13.781-2.967 37.558-2.934 37.788a.947.947 0 01-.406 1.045.943.943 0 01-.769.115.945.945 0 01-.597-.497.947.947 0 01-.097-.385c-.147-.983-3.573-24.58 3.082-38.869 1.64-3.687 3.393-6.997 4.918-9.93 4.163-8.341 7.18-14.355 7.294-20.352.147-8.521.459-14.19 3.18-15.272 1.852-.738 3.655 1.098 4.245 1.638 6.344 6.407 12.409 27.431 11.688 59.926-.787 34.739-19.474 38.508-20.26 38.656l-.246.114zm-22.146 8.456c-5.59-.196-5.786-1.18-5.885-1.638-.098-.459.296-1.246 1.263-1.639a8.329 8.329 0 014.327-.672 8.207 8.207 0 003.279-.311c2.507-.77 2.9-1.721 2.9-1.721a.945.945 0 01.423-.579.938.938 0 01.709-.109.983.983 0 01.705 1.163c0 .312-.607 1.967-4.18 3.065-1.29.388-2.643.522-3.983.393a8.314 8.314 0 00-2.115 0c.77.098 1.64.164 2.574.196a.952.952 0 01.672 1.623.951.951 0 01-.672.278l-.017-.049z" fill="#263238"/><path d="M74.661 191.975a.946.946 0 01-.688-.295.95.95 0 010-1.344c.6-.549 1.149-1.153 1.639-1.802l-.099.098c-.672.803-1.639 1.999-3 1.327a4.695 4.695 0 01-2.147-2.916.952.952 0 011.853-.443 2.82 2.82 0 001.18 1.639c.197-.31.422-.6.672-.869.688-.803 1.852-2.163 3.278-1.212a1.634 1.634 0 01.705 1.229c.099 1.524-1.868 3.523-2.72 4.309a1.016 1.016 0 01-.673.279zm-6.704-7.21a.996.996 0 01-.377 0 .943.943 0 01-.507-.53.932.932 0 01.032-.732 152.679 152.679 0 0010.064-72.609.965.965 0 011.207-1.038.923.923 0 01.57.453c.059.11.096.231.108.356 4.721 39.95-10.08 73.28-10.228 73.624a.949.949 0 01-.869.476zm-13.441-15.633a.947.947 0 01-.853-.508c-.114-.246-12.523-24.891-8.523-61.81a183.744 183.744 0 0111.048-46.898c1.901-5.26 3.147-8.734 2.803-10.898-.18-1.114-1.64-10.946 1.065-12.158.541-.246 1.426-.279 2.442.966 2.853 3.507 11.475 30.053 10.967 51.962a.95.95 0 01-1.902 0C72.071 67.7 63.22 41.76 61.023 38.99l-.262-.279c-.492 1.05-.672 5.047.115 9.98.41 2.638-.902 6.292-2.902 11.83a182.859 182.859 0 00-10.95 46.457c-3.933 36.329 8.197 60.499 8.328 60.745a.93.93 0 01-.116 1.05.94.94 0 01-.294.228.945.945 0 01-.426.131z" fill="#263238"/><path d="M54.827 147.829a.948.948 0 01-.95-.917c0-.345-.214-8.325 2.884-25.596 3.098-17.272 6.557-58.156 6.557-58.582a.983.983 0 011.032-.869.937.937 0 01.853 1.033c0 .41-3.524 41.556-6.557 58.762-3.032 17.206-2.868 25.104-2.852 25.186a.983.983 0 01-.934.983h-.033zm-23.44-1.262a.984.984 0 01-.721-.327c-.132-.164-13.737-15.944-17.064-37.132-3.328-21.188-4.738-28.25-6.885-31.299-1.246-1.786-1.295-3.703-.115-4.8.64-.607 3.279-2.213 9.098 2.572 7.72 6.309 25.915 29.496 30.505 44.62a.95.95 0 01-1.82.541c-4.409-14.535-22.505-37.689-29.898-43.686C10.799 74.04 8.52 73.778 7.93 74.4c-.36.344-.36 1.245.394 2.31 2.393 3.393 3.753 10.258 7.196 32.102 3.278 20.647 16.506 36.05 16.637 36.181a.961.961 0 01.23.693.952.952 0 01-1 .88z" fill="#263238"/><path d="M52.237 163.905a.957.957 0 01-.738-.344c0-.099-7.999-9.669-18.522-24.957-10.524-15.289-16.244-43.048-16.49-44.244a.95.95 0 01.754-1.114.968.968 0 011.114.737c0 .295 5.82 28.447 16.195 43.539 10.376 15.092 18.343 24.711 18.425 24.81a.964.964 0 01-.132 1.343.952.952 0 01-.606.23zM24.568 87.347a.967.967 0 01-.902-.689c0-.196-6.032-20.286-7.9-33.363-.443-3.162-.87-5.752-1.213-7.882-.919-5.555-1.263-7.652-.165-8.701a2.329 2.329 0 012.148-.442c3.081.606 29.03 20.4 35.291 43.26a.95.95 0 01-1.398 1.09.952.952 0 01-.438-.598c-5.95-21.663-30.98-41.344-33.816-41.9a1.4 1.4 0 00-.508 0c-.328.474.18 3.506.754 7.03.344 2.113.77 4.735 1.23 7.914 1.835 12.945 7.77 32.888 7.835 33.084a.95.95 0 01-.64 1.18.771.771 0 01-.278.017z" fill="#263238"/><path d="M45.467 115.679a.932.932 0 01-.934-.77 59.263 59.263 0 00-9.196-20.352C27.731 83.479 23.11 58.769 22.928 57.72a.95.95 0 01.755-1.114.984.984 0 011.114.77c0 .245 4.721 25.366 12.097 36.05a60.044 60.044 0 019.508 21.09.932.932 0 01-.77 1.098l-.165.065zm11.196-53.355a.95.95 0 01-.918-.983c.344-9.062-.77-15.043-3.983-21.302l-.377-.705C45.057 26.897 37.632 11.952 36.55 6.774c-.705-3.277-1.803-4.605-2.328-4.621-.114 0-1.475.115-3.13 5.604-2.82 9.275 3.803 43.834 3.884 44.244a.95.95 0 11-1.868.36c-.279-1.442-6.786-35.378-3.836-45.095C30.682 2.579 32.305.3 34.19.3h.016c2.459.099 3.623 3.884 4.098 6.129 1.18 5.588 10.982 24.842 14.752 32.085l.361.72c3.377 6.555 4.557 12.864 4.197 22.27a.951.951 0 01-.951.82z" fill="#263238"/><path d="M49.877 77.498a.968.968 0 01-.951-.868c0-.115-.918-12.143-1.82-19.811-.901-7.67-9.834-21.795-9.966-21.926a.964.964 0 111.64-1.016c.377.59 9.31 14.748 10.244 22.712.935 7.964 1.82 19.779 1.836 19.893a.95.95 0 01-.868 1.016h-.115z" fill="#263238"/></svg>