<svg width="60" height="124" fill="none" xmlns="http://www.w3.org/2000/svg"><path d="M27.793 119.219a6.952 6.952 0 01-1 0 .953.953 0 01.279-1.885c.13 0 11.474 1.377 21.456-17.73 8.606-16.386 9.016-21.302 8.885-22.548-.312.23-.722.607-1.099.95a11.558 11.558 0 01-3.376 2.393c-1.885.754-22.228 18.025-26.391 36.214a.929.929 0 01-.763.719.933.933 0 01-.368-.014.931.931 0 01-.721-1.131c4.36-19.04 25.309-36.656 27.538-37.558a9.427 9.427 0 002.787-2.015 5.36 5.36 0 012.41-1.639 1.394 1.394 0 011.441.574c2.263 3.015-4.458 16.894-8.67 24.891-9.098 17.304-19.228 18.779-22.408 18.779z" fill="#263238"/><path d="M29.235 116.99a.948.948 0 01-.721-.344.94.94 0 01-.223-.696.952.952 0 01.338-.648c.13-.098 12.965-10.995 18.522-22.793a.95.95 0 011.721.803c-5.737 12.191-18.473 22.941-19.014 23.449a.967.967 0 01-.623.229zM26.99 94.098h-.082a.934.934 0 01-.87-1.016c1.296-15.583 8.902-31.659 22.605-47.75.574-.688.967-1.147 1.131-1.377.33-.53.631-1.076.902-1.638 1.114-2.098 2.016-3.736 3.278-3.376 1.262.36 1.64 1.639 1.295 8.193-.688 13.11-9.622 38.476-9.999 39.541a.952.952 0 01-1.574.47.949.949 0 01-.213-1.093c.099-.262 9.229-26.136 9.835-39.016a35.71 35.71 0 000-5.653c-.344.54-.754 1.31-1.016 1.802s-.721 1.36-1.016 1.786c-.295.426-.623.77-1.262 1.524C36.563 62.292 29.12 77.99 27.858 93.165a.95.95 0 01-.868.933z" fill="#263238"/><path d="M27.465 103.504h-.262a.95.95 0 01-.64-1.18c5.524-18.91 18.408-42.605 18.54-42.9a.935.935 0 011.278-.377.935.935 0 01.377 1.279c-.131.245-12.9 23.826-18.375 42.605a.935.935 0 01-.918.573z" fill="#263238"/><path d="M21.711 117.302a.94.94 0 01-.655-.262c-.656-.623-15.999-15.65-14.212-34.412 1.557-16.387 5.54-31.806 8.688-33.822a1.64 1.64 0 011.475-.23c1.885.656 2.278 3.425 2.77 6.949.269 2.8.897 5.553 1.869 8.193 2.639 6.21 9.015 34.657 5.59 50.061a.951.951 0 01-1.853-.41c3.278-15.026-2.901-42.835-5.491-48.914a34.913 34.913 0 01-2-8.62c-.311-2.179-.689-4.915-1.393-5.358-1.77 1.115-6.032 14.158-7.77 32.38-1.64 17.796 13.49 32.659 13.638 32.773a.933.933 0 01-.656 1.639v.033z" fill="#263238"/><path d="M23.023 115.057a.97.97 0 01-.869-.557c-8.196-18.124-9.524-43.572-9.524-43.818a.934.934 0 01.885-1 .934.934 0 01.951.901c0 .246 1.394 25.35 9.376 43.146a.95.95 0 01-.82 1.328zm-1.115-46.899a.95.95 0 01-.95-.885c-1.46-25.005 8.916-46.587 13.9-56.943A55.32 55.32 0 0037.3 4.824c1.098-3.687 2.508-4.31 3.475-4.178 1.426.18 3.36 1.917 3.704 14.616.443 16.027-4.229 44.048-4.262 44.244a.955.955 0 01-1.885-.311c0-.279 4.672-28.136 4.246-43.965-.312-11.815-2.066-12.782-2.082-12.798a6.554 6.554 0 00-1.377 2.851 52.574 52.574 0 01-2.557 5.785c-4.917 10.225-15.13 31.495-13.703 56.009a.948.948 0 01-.902 1l-.05.081z" fill="#263238"/><path d="M26.629 90.051a.968.968 0 01-.95-.852c-.312-2.835.704-7.161 2.573-15.027a759.299 759.299 0 003.393-14.993 422.1 422.1 0 006.048-42.605.982.982 0 011.033-.869.935.935 0 01.852 1.033 425.021 425.021 0 01-6.065 42.834c-1.327 6.112-2.491 11.044-3.425 15.01-1.804 7.669-2.803 11.88-2.525 14.404a.95.95 0 01-.836 1.049l-.098.016zm14.621 33.92a.968.968 0 01-.918-.672.95.95 0 01.64-1.18l1.934-.606a1.477 1.477 0 01-.263-.18 1.374 1.374 0 01-.393-1.377 9.498 9.498 0 011.426-2.72l.213-.311c-3.557 1.344-8.49 2.802-11.884 1.327a.943.943 0 01-.512-.517.954.954 0 01.004-.728.967.967 0 011.262-.492c3.279 1.409 8.95-.786 10.835-1.507.672-.263 1.901-.738 2.557.098.656.836 0 1.819-.885 3.179-.311.459-.656.983-.901 1.442.54-.131 1.278-.361 1.868-.541a17.85 17.85 0 014.918-1.049c1.049 0 1.36.508 1.41.935.13.884.229 1.458-11.016 4.915l-.295-.016zm-22.653-7.227a.848.848 0 01-.443-.114 28.702 28.702 0 01-6.983-5.359c-1.557-1.638-2.704-2.081-3.278-1.933a.605.605 0 00-.377.524 1.363 1.363 0 01-.852 1.114c-.902.345-1.787-.376-2.82-1.212l-.262-.197v.328c.164 1.917.426 4.801-1.64 5.752a.964.964 0 01-.729.023.96.96 0 01-.532-.499.952.952 0 01.475-1.261c.836-.377.64-2.557.525-3.851-.115-1.295-.197-2.343.59-2.786.786-.442 1.72.213 2.737 1.016l.787.623a2.404 2.404 0 011.54-1.393c.837-.246 2.607-.246 5.131 2.458a27.326 27.326 0 006.459 4.916.953.953 0 01.517.934.947.947 0 01-.108.36.96.96 0 01-.738.557z" fill="#263238"/></svg>