<svg width="477" height="429" fill="none" xmlns="http://www.w3.org/2000/svg"><path d="M213.913 206.471c-9.836.655-19.397-3.551-22.949-5.736h-1.639l-1.64 9.013v9.832l4.098 10.651s3.279 4.097 4.098 4.097c.82 0-11.474 25.399-11.474 25.399v45.882l-2.459 22.122 3.279 9.013c-3.005-.82-4.426-.984 13.933 4.916 18.359 5.899 26.773-12.29 28.686-22.122.819-10.925 2.458-32.118 2.458-29.496 0 2.622 11.475 7.647 17.212 9.832 13.659 4.37 42.29 13.109 47.536 13.109 5.245 0 11.474-2.185 13.933-3.277 8.196-7.374 3.278-27.857 2.458-30.315-.655-1.967-4.644-5.189-6.556-6.555-2.646-1.516-4.618-2.406-9.836-4.097l-22.128-5.735-1.639 4.097c-.084-.752-.596-1.294-2.459-2.458l-3.279-5.735-3.278 4.096-3.278 1.639v-2.458l1.639-4.916-1.639-2.458c-.547-.273-1.803-.983-2.459-1.639-.656-.655-1.366-1.911-1.639-2.458l-.82-7.374c1.991-3.784 6.132-13.24 9.016-19.664 2.904-6.468 3.278-19.39 2.459-25.399l-6.557-9.012c-27.047 18.844-32.784 16.386-45.077 17.206z" fill="#263238"/><path d="M194.586 235.836a.976.976 0 01-.77-.394c-2.574-3.605-7.278-14.125-7.77-18.975-.492-4.851 2.279-16.387 2.393-16.911a.955.955 0 011.134-.687.95.95 0 01.719 1.113c0 .131-2.803 11.765-2.361 16.386.443 4.621 5.033 14.748 7.426 18.025a.943.943 0 01.168.708.939.939 0 01-.381.62.994.994 0 01-.558.115z" fill="#263238"/><path d="M208.077 342.954l-6.245-.442c6.769-1.819 10.966-12.716 13.588-20.205a129.08 129.08 0 011.443-3.982c2.327-6.079 2.541-25.006 2.409-32.282-.967-3.424-3.573-11.765-5.409-14.469a4.918 4.918 0 01-.787-3.802c.574-2.752 3.393-4.539 5.869-6.095a23.265 23.265 0 002.409-1.639c.557-3.507 4.639-4.605 7.671-5.408.951-.262 1.853-.508 2.558-.77 2.934-2.687 15.785-27.234 18.604-40.425 2.393-11.127-1.639-15.06-1.639-15.092l3.705-4.326c.688.573 6.671 6.063 3.557 20.614-2.426 11.307-16.474 42.277-21.818 44.424a31.332 31.332 0 01-3.442 1.065 17.638 17.638 0 00-3.557 1.196c-.361 2.294-2.59 3.704-4.918 5.195a20.397 20.397 0 00-3.245 2.228c2.688 4.359 5.688 14.879 6.032 16.108l.098.705c0 2.687.426 26.448-2.786 34.805-.443 1.18-.902 2.458-1.377 3.802-2.934 8.488-3.033 16.206-12.72 18.795zm105.645-56.829c-4.475-2.195-16.13-4.489-23.113-5.964-2.983-.623-5.556-1.18-7.491-1.639a13.87 13.87 0 00-9.523 1.147c-.872.382-1.771.699-2.688.951-3.541.884-5.951-2.589-7.688-5.129-.197-.279-.41-.607-.639-.902-2.213 1.295-5.262 3.065-8.196 2.229a5.175 5.175 0 01-1.853-1.007 5.178 5.178 0 01-1.295-1.664 22.13 22.13 0 01-1.639-5.047c-.541-2.278-.918-3.72-2.049-4.621-3.868-3.081-3.852-4.539-3.934-4.916l2.902-4.736a29.176 29.176 0 004.589 5.277 12.582 12.582 0 014.033 7.767 19.204 19.204 0 001.082 3.523 15.868 15.868 0 003.442-1.639c.803-.53 1.674-.948 2.59-1.245 2.573-.639 4.147 1.639 5.655 3.818a19.06 19.06 0 002.098 2.687c.41-.131.902-.327 1.442-.557a19.336 19.336 0 0113.114-1.376c1.819.459 4.344.983 7.261 1.638a92.982 92.982 0 0120.195 6.293l1.705 5.112z" fill="#fff"/><path d="M346.014 316.965c-.185 0-.367-.051-.525-.147-10.589-6.899-34.423-8.849-34.685-8.865a.96.96 0 01-.715-.295.949.949 0 01.11-1.409.944.944 0 01.753-.181c1 0 24.587 1.999 35.57 9.16a.951.951 0 01.269.256.95.95 0 01.151.712.952.952 0 01-.928.769zm-8.524-18.648a7.827 7.827 0 01-2.18-.36c-3.394-.967-21.31-10.586-22.031-10.996a.951.951 0 01-.393-1.278.967.967 0 011.295-.393c6.376 3.441 19.096 10.11 21.637 10.848.68.277 1.426.351 2.147.213a.952.952 0 011.869.213 1.644 1.644 0 01-.689 1.278 2.681 2.681 0 01-1.655.475z" fill="#263238"/><path d="M347.505 285.65s-9.015 8.784-9.015 9.734c0 .95 6.409 6.637 6.884 8.537.476 1.901 4.754-.475 5.934 0 1.18.476.951 3.802-2.377 4.507-3.327.704-3.081 9.258-1.901 10.438 1.18 1.18 11.474 6.407 17.096 12.339 5.623 5.932 8.786 11.864 11.147 12.814 2.36.951 4.753 1.639 5.458-3.08.705-4.72 1.426-14.945-4.737-22.303-6.163-7.357-8.786-8.078-10.687-8.078-1.902 0-4.918.246-3.787-2.36 1.131-2.605 3.787-4.916 2.836-7.128-.951-2.212-8.376-16.124-16.851-15.42z" fill="#263238"/><path d="M380.42 347.493a3.79 3.79 0 01-3.459-1.868.936.936 0 01.426-1.262.953.953 0 011.262.41c.082.131.722 1.196 2.721.705 2.738-.689 4.918-1.475 5.475-4.72a34.405 34.405 0 00-4.147-20.45 42.356 42.356 0 00-7.507-8.554c-2.574-2.409-4.59-4.31-4.738-6.342 0-.737 0-1.474-.081-2.244a18.6 18.6 0 00-1.64-8.554c-2.147-4.277-7.245-9.832-12.08-11.881-4.443-1.818-6.459-1.015-8.196 3.278a.955.955 0 01-1.246.508.949.949 0 01-.508-1.246c2.213-5.276 5.327-6.554 10.736-4.309 5.41 2.245 10.786 8.193 13.114 12.798a20.186 20.186 0 011.901 9.34c0 .743.033 1.464.099 2.163.082 1.278 1.967 3.048 4.13 5.08a43.773 43.773 0 017.836 8.963 36.045 36.045 0 014.393 21.778c-.82 4.342-3.852 5.457-6.885 6.211a5.652 5.652 0 01-1.606.196zM211.454 198.834c-4.672 0-13.114-.606-17.523-4.703a27.469 27.469 0 01-4.59-5.506 18.672 18.672 0 00-3.065-3.818 7.03 7.03 0 01-2.082-7.537.95.95 0 011.23-.525.942.942 0 01.531.5.948.948 0 01.01.729 5.129 5.129 0 001.639 5.441 20.777 20.777 0 013.278 4.162 25.402 25.402 0 004.295 5.162c4.557 4.227 14.752 4.276 17.67 4.178a.95.95 0 110 1.901l-1.393.016z" fill="#263238"/><path d="M218.437 207.29a71.059 71.059 0 01-23.244-3.638c-10.048-3.933-9.835-8.193-9.425-9.357.125-.428.272-.849.442-1.261.394-.984.541-1.344 0-2.229-1.344-2.032-.245-6.44-.114-6.932a.952.952 0 011.147-.688.97.97 0 01.689 1.164c-.443 1.638-.771 4.457-.132 5.407a3.673 3.673 0 01.246 3.982c-.155.344-.281.7-.377 1.065-.442 1.639 1.459 4.408 8.196 7.079 8.196 3.278 29.112 5.998 41.488 0 20.08-9.668 21.506-13.24 21.457-14.109-.05-.868-.132-1.638-.23-2.621a17.698 17.698 0 01.295-7.899c1.115-2.884 2.229-5.751 1.082-9.34a45.053 45.053 0 01-1.164-10.012c-.115-2.229-.213-4.343-.442-5.949a19.856 19.856 0 00-2.672-8.193.95.95 0 01-.237-.283.948.948 0 01-.071-.72.962.962 0 01.822-.663.965.965 0 01.699.208c1.377 1.163 2.786 5.719 3.278 9.455.262 1.638.361 3.851.475 6.128a43.04 43.04 0 001.082 9.537c1.344 4.228 0 7.555-1.082 10.488a16.38 16.38 0 00-.229 7.128c.098.95.197 1.868.246 2.72.098 2.13-2.115 6.096-22.539 15.911-5.475 2.622-12.638 3.622-19.686 3.622z" fill="#263238"/><path d="M303.854 208.929a62.01 62.01 0 01-12.638-1.639c-3.819-.885-4.573-5.883-5.131-9.537a11.656 11.656 0 00-.901-3.687c-2.262-1.507-2.623-2.835-2.623-6.309a8.029 8.029 0 00-2.229-4.752 20.908 20.908 0 01-2.098-3.277c-1.328-2.655-5.934-15.633-4.819-19.369.786-2.606-2.394-8.505-7.639-10.537-5.704-2.228-17.097-9.274-17.572-9.569a.956.956 0 01-.442-.963.949.949 0 01.723-.77.972.972 0 01.719.11c.115 0 11.72 7.26 17.26 9.423 5.983 2.327 9.835 9.127 8.77 12.847-.803 2.72 3.033 14.649 4.688 18.025a20.036 20.036 0 002.016 2.966 9.83 9.83 0 012.607 5.899c0 3.277.311 3.753 1.786 4.736 1.049.704 1.328 2.491 1.639 4.916.509 3.277 1.131 7.374 3.672 7.964 8.786 2.015 18.72 2.54 19.769-1.033.885-2.999.508-7.751.164-11.946a40.933 40.933 0 01-.197-7.849c.41-2.9-4.918-23.072-8.196-35.116-1.557-5.867-2.787-10.488-3.18-12.323-1.147-5.407-34.292-29.397-42.783-32.773-7.31-2.966-18.227-6.866-28.718-6.555a.857.857 0 01-.737-.31 36.206 36.206 0 00-5.213-4.999l-.574.623c-2.262 2.442-7.556 8.193-15.146 7.21a43.425 43.425 0 01-12.13-3.113 3.436 3.436 0 01-.852 2.376l-.148.114c-.163.115-4.048 2.54-14.752 1.639-10.327-.934-15.998-1.442-25.899-11.34-2.77-2.769-5.983-6.144-9.409-9.733-7.901-8.472-16.916-17.927-20.359-19.648-3.934-1.966-11.015-2.753-13.572-2.982-.279 2.999-1.737 11.75-9.146 14.748 0 1.18.524 4.654 5.065 10.602l2.508 3.277c7.654 10.127 25.603 33.839 31.291 36.28 1.836.787 4.918 1.885 8.426 3.146 9.589 3.442 21.538 7.718 25.096 11.291 3.016 2.998 5.605 14.453 7.9 24.58 1.344 5.899 2.738 12.011 3.557 12.994a19.482 19.482 0 005.77 3.785 10.467 10.467 0 013.787 2.475.952.952 0 01-.279 1.311.969.969 0 01-1.311-.263 13.538 13.538 0 00-3.049-1.835 20.81 20.81 0 01-6.377-4.26c-1.065-1.262-2.13-5.834-3.95-13.781-1.967-8.947-4.77-21.074-7.393-23.712-3.278-3.277-15.473-7.652-24.391-10.848-3.557-1.278-6.556-2.376-8.54-3.277-6.147-2.638-23.653-25.76-32.046-36.87l-2.507-3.277c-6.262-8.193-5.492-12.24-5.377-12.667a.902.902 0 01.606-.672c8.196-2.753 8.524-14.043 8.541-14.158a.942.942 0 01.307-.668.946.946 0 01.693-.25c.409 0 10.064.673 15.244 3.278 3.721 1.934 12.474 11.094 20.932 19.959 3.41 3.572 6.557 6.948 9.376 9.7 9.409 9.406 14.523 9.833 24.719 10.8 8.983.819 12.753-.885 13.392-1.23.195-.448.28-.937.246-1.425 0-.541 0-1.786 1.164-1.786.408.051.803.179 1.164.377a40.89 40.89 0 0011.916 3.113c6.557.836 11.475-4.392 13.524-6.555a5.9 5.9 0 011.278-1.196c.557-.262 1.639-.77 7.016 5.277 10.687-.197 21.686 3.72 29.062 6.718 8.54 3.49 42.504 27.53 43.914 34.215.377 1.786 1.639 6.391 3.163 12.225 4.77 17.828 8.672 32.773 8.196 35.87a39.944 39.944 0 00.213 7.439c.345 4.359.738 9.291-.245 12.618-.853 3.015-4.869 3.933-9.311 3.933z" fill="#263238"/><path d="M206.684 108.266a26.451 26.451 0 01-8.606-1.393c-9.475-3.277-9.376-6.473-9.261-7.079a.954.954 0 011.885.295c0 .164.377 2.36 7.999 4.916a26.613 26.613 0 0029.013-8.865.935.935 0 011.328-.148.97.97 0 01.147 1.344 28.832 28.832 0 01-22.505 10.93z" fill="#263238"/><path d="M123.709 33.215L6.311 12.65l108.53 3.802 8.868 16.763z" fill="#E8E8E8"/><path d="M104.383 16.075V10.75l-98.072 1.9 98.072 3.425z" fill="#D9D9D9"/><path d="M110.743 10.635L90.483 0 6.31 12.65l104.432-2.015z" fill="#E8E8E8"/><path d="M99.662 72.593a.887.887 0 01-.722-.328c-.147-.164-14.555-16.895-18.85-20.27-.885-.689-1.803-1.442-2.754-2.213a56.818 56.818 0 00-12.704-8.619c-5.9-2.49-13.44-14.617-13.752-15.141a.954.954 0 01.679-1.437.956.956 0 01.96.454c0 .114 7.54 12.11 12.9 14.387 4.688 1.983 9.18 5.653 13.114 8.882l2.72 2.195c4.46 3.49 18.523 19.828 19.13 20.533a.923.923 0 01.229.684.935.935 0 01-.327.643.92.92 0 01-.623.23z" fill="#263238"/><path d="M70.894 23.826L8.835 12.65l64.321 19.337-2.262-8.161zm11.72 10.995l23.064 6.932 1.639-11.389-27.407-4.916s.606 3.556.95 4.916a33.836 33.836 0 001.754 4.457z" fill="#9E9E9E"/><path d="M198.34 98.467h-.262a.945.945 0 01-.687-.809.932.932 0 01.031-.371s1.787-6.309 0-10.651a.958.958 0 01-.055-.773.952.952 0 011.809.068c2.016 4.916.115 11.602 0 11.88a.948.948 0 01-.836.656zm21.178-3.31a.947.947 0 01-.77-.393c-2.59-3.573-6.918-9.832-6.754-11.586a.969.969 0 011.033-.852.982.982 0 01.869 1.033c0 1 3.278 6.128 6.393 10.29a.954.954 0 01-.214 1.328.982.982 0 01-.557.18zm106.071 147.61a3.31 3.31 0 01-.672-.082c-2.623-.573-12.884-11.077-14.753-13.634a15.183 15.183 0 00-5.392-4.293 10.42 10.42 0 00-1.902 4.916c-.197 2.425-.574 4.801-1.983 5.768a2.612 2.612 0 01-2.312.279c-2.917-.885-2.475-3.589-1.852-7.325l.213-1.327a28.504 28.504 0 013.279-8.308c.262-.492.541-1.033.688-1.36-.754-1.262-3.836-6.342-5.95-9.832a.965.965 0 01.311-1.311.951.951 0 011.312.311c1 1.639 5.95 9.717 6.179 10.193.23.475 0 1.13-.868 2.818a26.847 26.847 0 00-3.066 7.734l-.229 1.328c-.639 3.9-.672 4.834.524 5.194.459.148.623 0 .705 0 .853-.573 1.082-3.408 1.164-4.342a10.572 10.572 0 012.901-6.555 1.42 1.42 0 011.181-.196 16.924 16.924 0 016.556 5.079c2.525 3.278 12.097 12.585 13.687 12.929.181 0 .492.082.574-.082.082-.163 0-1.474-1.41-2.802-1.885-1.638-8.097-9.832-7.556-11.716a1.147 1.147 0 01.885-.819c.885-.181 1.77.458 6.835 4.916 2.607 2.31 6.557 5.784 7.541 5.981.379.075.762.129 1.147.164a9.468 9.468 0 00-.688-1.049c-.787-1.098-2.344-2.802-3.853-4.457a44.06 44.06 0 01-4.999-6.031.952.952 0 011.117-1.352c.242.07.447.232.571.451a45.178 45.178 0 004.705 5.654c1.639 1.769 3.147 3.441 3.999 4.621.853 1.179 1.64 2.408.968 3.277-.673.868-2 .786-3.279.508-1.278-.279-4.114-2.606-8.425-6.407-1.148-1.016-2.525-2.245-3.639-3.163a44.565 44.565 0 005.999 7.948c1.82 1.638 2.557 3.67 1.836 5.063a2.162 2.162 0 01-2.049 1.311z" fill="#263238"/><path d="M335.195 234.836a9.098 9.098 0 01-3.836-1.082.95.95 0 01.935-1.638 6.047 6.047 0 003.278.802l.082-.098s0-.557-1.82-2.212a96.124 96.124 0 01-8.195-9.832 1.113 1.113 0 010-1.294c1.131-1.377 10.802 3.146 10.9 3.277a.502.502 0 00.197 0s0-.77-1.213-1.786c-1.508-1.229-9.95-4.326-22.604-8.292l-.23-.082c-2.688-.836-3.819-4.654-3.934-5.08a.952.952 0 011.82-.508c.262.885 1.229 3.278 2.671 3.786h.23c9.376 2.949 21.03 6.833 23.243 8.635 2.213 1.803 2.164 3.409 1.64 4.326a1.949 1.949 0 01-2.59.59c-.984-.491-4.623-1.933-7.049-2.769a78.212 78.212 0 006.557 7.62c1.721 1.638 2.442 2.736 2.409 3.719a2.052 2.052 0 01-.852 1.524c-.479.33-1.063.47-1.639.394zM184.801 16.091s-11.737 3.016-13.31 9.44c-1.574 6.423 0 13.108 5.065 12.437 5.065-.672 11.703-5.064 16.129-4.753 4.426.312 3.492 1.983 1.902 4.785s1.262 7.554 9.179 5.342c7.917-2.212 8.196-6.325 13.917-4.752 5.72 1.573.508 14.551 1.835 16.387 1.328 1.835 1.64 4.424 4.623 0 2.983-4.425 7.475-10.438 12.212-8.849 4.737 1.59-4.426 10.75-9.163 12.65l-4.754 1.901s-1.901 13.273-4.753 15.174c0 0 18.998-2.523 26.226-9.176 7.229-6.653.951-6.555 2.213-10.11 1.262-3.557 8.54-3.737 8.54-8.047 0-4.31-.95-3.67-7.589-6.833-6.639-3.162-4.754-4.735-3.803-6.325.951-1.59 1.902-4.424-3.475-6.014-5.376-1.59-18.031-5.375-15.703-8.848 2.327-3.474 3.54-10.439-4.623-9.832-8.163.606-15.965 5.915-20.604 5.342-4.639-.574-8.917-1.803-14.064.081z" fill="#263238"/><path d="M200.291 87.619h-.23l-2.131-.475c-5.524-1.213-17.014-3.72-23.145-8.062-7.491-5.31-6.13-18.517-4.786-22.728 1.344-4.212 4.377-18.452 4.409-18.665a.924.924 0 01.426-.606.874.874 0 01.722-.115c.191.018.383.018.573 0a.987.987 0 01.312-.098 31.326 31.326 0 007.212-2.327c3.279-1.344 6.459-2.622 9.098-2.425 1.459.114 3.278.377 3.868 1.638.59 1.262-.147 2.737-1.196 4.589a2.603 2.603 0 00.311 2.867c1.311 1.639 4.229 2.114 7.77 1.115a22.203 22.203 0 006.72-3.163c2.262-1.458 4.033-2.605 7.721-1.639 4.557 1.279 3.508 7.784 2.754 12.552a15.425 15.425 0 00-.394 4.294c.246.344.459.72.672 1.081.167.355.388.681.656.967a9.403 9.403 0 001.639-2.065c2.672-3.883 7.639-11.11 13.31-9.209a2.621 2.621 0 011.967 2.49c.115 3.753-6.934 10.275-11.097 11.93l-4.295 1.72c-.573 2.295-3.032 11.898-4.72 14.945l-.328.623c-1.049 2.065-3.279 6.39-7.491 8.62a.953.953 0 01-1.279-.394.964.964 0 01.394-1.294c3.704-1.95 5.72-5.9 6.687-7.8l.361-.672c1.737-3.18 4.622-14.748 4.655-14.945a.94.94 0 01.558-.655l4.753-1.901c3.656-1.459 9.983-7.554 9.835-10.127 0-.246 0-.54-.672-.754-3.786-1.262-7.589 3.278-11.13 8.505-1.459 2.114-2.475 2.9-3.459 2.867-.983-.032-1.639-1.032-2.147-1.917-.18-.311-.36-.639-.574-.95-.655-.918-.426-2.573 0-5.67.656-4.047 1.541-9.586-1.376-10.405-2.918-.82-4.033 0-6.18 1.343a23.823 23.823 0 01-7.016 3.54c-6.212 1.737-8.917-.656-9.835-1.77a4.436 4.436 0 01-.475-4.916c.573-1.032 1.36-2.425 1.164-2.786 0 0-.295-.442-2.312-.59-2.016-.147-5.278 1.082-8.196 2.295a35.888 35.888 0 01-7.507 2.425 2.135 2.135 0 01-.787.13c-.705 3.278-3.131 14.323-4.278 17.895-1.147 3.572-2.459 15.96 4.082 20.614 5.802 4.113 17.047 6.555 22.44 7.751l2.18.475a.955.955 0 01.591.428.947.947 0 01.114.72.935.935 0 01-.918.704z" fill="#263238"/><path d="M172.392 51.929a.85.85 0 01-.442-.115 18.631 18.631 0 01-8.737-11.667 6.669 6.669 0 010-4.375 2.389 2.389 0 012.311-1.016c1.639.147 3.77 1.639 5.278 5.162a31.416 31.416 0 003.279 6.276.954.954 0 01-.876 1.526.95.95 0 01-.632-.363 31.865 31.865 0 01-3.59-6.686c-1.279-3.031-2.934-3.965-3.721-4.03-.377 0-.508.13-.541.18-.541 1.196 1.377 9.832 8.065 13.322a.951.951 0 01-.443 1.786h.049zm38.701-2.622h-.492a2.015 2.015 0 01-1.639-1.639c-.262-1.114-2.622-2.703-4.229-3.474a.958.958 0 01-.488-.546.951.951 0 01.046-.732.928.928 0 01.904-.538.94.94 0 01.358.096c.787.377 4.704 2.392 5.261 4.768 0 .148 0 .148.132.164a1.261 1.261 0 001.065-.524.934.934 0 000-1.049c-1.246-2.31-2.098-3.605-3.147-3.883a.944.944 0 01-.631-.424.947.947 0 01-.119-.75.964.964 0 01.468-.597.955.955 0 01.757-.065c1.902.492 3.049 2.393 4.344 4.834a2.764 2.764 0 01-.213 3.081 3.151 3.151 0 01-2.377 1.278zm-34.062-6.604a1.04 1.04 0 01-.312 0 2.9 2.9 0 01-2.131-1.917 3.286 3.286 0 01.787-2.687.97.97 0 011.344 0 .947.947 0 010 1.327c-.164.197-.442.672-.36.934.082.262.246.328.557.475a15.549 15.549 0 015.541-1.376 1.36 1.36 0 001.245-.95 2.684 2.684 0 00.131-1.787.95.95 0 01-1.032-.606.934.934 0 01.508-1.196 1.638 1.638 0 011.787.344 3.822 3.822 0 01.409 3.85 3.272 3.272 0 01-2.967 2.246 13.575 13.575 0 00-5.13 1.343.854.854 0 01-.377 0z" fill="#263238"/><path d="M179.408 48.357a20.714 20.714 0 00-2.951-.967c-.437-.117-.88-.21-1.328-.279-.508-.098-1.049-.147-1.754-.344a3.28 3.28 0 013.59-1.41 3.083 3.083 0 012.443 3zm17.293 2.621a4.444 4.444 0 012.393-1.638 6.052 6.052 0 012.967-.099 6.134 6.134 0 012.623 1.328 5.261 5.261 0 011.639 2.376c-.934-.328-1.639-.705-2.459-.983a13.28 13.28 0 00-2.229-.672 11.552 11.552 0 00-2.295-.328c-.885 0-1.721 0-2.639.016zm-11.753 11.291h-.18a27.569 27.569 0 01-4.918-1.475 2.137 2.137 0 01-1.213-1.393 4.602 4.602 0 01.82-3.277l4.688-9.226.164-.23a3.05 3.05 0 012.541-1.064 3.693 3.693 0 012.442 1.753c.103.19.143.408.115.623 0 0-1.066 6.98-1.18 9.832a4.49 4.49 0 01-3 4.457h-.279zm.771-14.42l-4.672 9.193a3.03 3.03 0 00-.623 1.835s0 .115.18.18c1.376.563 2.804.991 4.262 1.278a2.767 2.767 0 001.41-2.622c.115-2.621.918-8.193 1.147-9.684a1.637 1.637 0 00-.852-.59 1.18 1.18 0 00-.852.426v-.016zm-12.343 3.081a2.785 2.785 0 012.245.229 5.585 5.585 0 012.787 5.997c-.525 1.344-2.229-.18-4.688-1.147-.803-.311-.885 0-1.639-.262l1.295-4.818zm19.424 9.16c-.279 1.638 2.753 1.245 6.31 1.818 3.557.574 6.262 1.967 6.557.263.295-1.705-2-5.9-5.54-6.473-3.541-.574-7.049 2.687-7.327 4.392zm-8.868 9.34c2.147-.656 3.966-.983 5.704-1.524a20.65 20.65 0 002.557-.918c.869-.344 1.639-.835 2.721-1.344a5.358 5.358 0 01-1.639 2.934 7.394 7.394 0 01-2.951 1.638 8.41 8.41 0 01-3.278.279 6.555 6.555 0 01-3.114-1.065z" fill="#263238"/><path d="M225.6 148.708c0 9.078-3.803 16.386-17.425 16.386-9.606 0-15.392-7.341-15.392-16.386 0-9.046 3.869-16.387 15.392-16.387s17.425 7.325 17.425 16.387z" fill="#E8E8E8"/><path d="M206.536 150.757h-.311c-.525 0-1.525 0-1.82-.902-.295-.901.377-1.327.836-1.638a4.59 4.59 0 00.639-.623l-.147-.098c-1.23-.852-9.458-.59-16.703.163a.948.948 0 01-.371-.026.938.938 0 01-.678-.809.967.967 0 01.852-1.049c2.573-.262 15.556-1.524 18.031.164a1.974 1.974 0 01.837 2.397 1.965 1.965 0 01-.411.651c.787 0 1.869-.18 3.115-.328 5.491-.655 14.752-1.753 22.784.393a.95.95 0 01.645 1.157.951.951 0 01-1.137.679c-7.753-2.049-16.703-.984-22.063-.344-1.869.032-3.229.213-4.098.213zM74.025 39.852a.935.935 0 01-.869-.573 22.773 22.773 0 01-.95-7.161l-2.246-7.899a.967.967 0 011.082-1.196l7.933 1.393c.394 0 2.295.623 2.64 4.916.157 1.82.778 3.568 1.803 5.08a.916.916 0 01-.328 1.294.937.937 0 01-1.295-.327 12.386 12.386 0 01-2.066-5.883c-.229-2.835-1.147-3.277-1.163-3.277l-6.36-1.115 1.868 6.555a1.64 1.64 0 010 .278 21.722 21.722 0 00.787 6.555.95.95 0 01-.492 1.245 1.018 1.018 0 01-.344.115zm34.816 17.714a.854.854 0 01-.492-.131C106.186 56.157 87.139 44.719 84.581 40a.966.966 0 010-.967c.531-.96.85-2.02.935-3.114a.953.953 0 111.901.164 10.385 10.385 0 01-.934 3.425c2.786 3.884 17.26 12.995 22.801 16.387a.916.916 0 01.327 1.294.941.941 0 01-.77.377zm96.416 324.863s-.901-13.863-1.639-14.534c-.737-.672-10.163.606-12.097-.361-1.934-.967-3 4.326-4.245 4.916-1.246.59-3.869-1.934-2.082-5.227 1.787-3.294-5.557-9.21-7.393-9.062-1.836.147-13.539 4.916-22.588 5.473-9.048.557-16.244-1.147-18.735.164-2.492 1.311-4.803 2.786-1.328 6.784 3.475 3.998 11.474 11.913 22.096 12.011 10.622.099 13.113-1.638 14.425-3.179 1.311-1.54 3.278-4.342 4.704-1.475 1.426 2.868 1.459 6.752 3.934 7.489 2.475.738 19.424 4.67 24.948-2.999z" fill="#263238"/><path d="M189.423 396.555a31.996 31.996 0 01-7.376-.803 22.49 22.49 0 01-9.163-5.08 49.128 49.128 0 00-1.869-1.475c-1.18-.868-4.032-.557-7.311-.197a47.912 47.912 0 01-13.113.132 39.511 39.511 0 01-21.309-11.881c-3.033-3.752-1.787-7.046-.263-10.11a4.407 4.407 0 014.787-2.819.952.952 0 01-.443 1.836c-.164 0-1.639-.263-2.655 1.835-1.394 2.802-2.279 5.178 0 8.062a37.928 37.928 0 0020.178 11.208c4.184.516 8.418.467 12.589-.147 3.819-.426 6.852-.754 8.622.557.656.475 1.295 1 1.951 1.524a20.593 20.593 0 008.425 4.719c5.147 1.279 13.556 1.016 18.703-1.638 4.77-2.458 5.54-4.752 3.278-9.423a.95.95 0 011.639-.835c2.787 5.571 1.64 9.029-4.032 11.929a28.694 28.694 0 01-12.638 2.606zm-8.212-31.856a.929.929 0 01-.495-.14.924.924 0 01-.341-.384.923.923 0 01-.064-.705.922.922 0 01.457-.541c.131-.098 4.41-3.015 9.081-22.22a.952.952 0 111.836.442c-4.917 20.385-9.54 23.204-10.048 23.45a.954.954 0 01-.426.098zm19.26 6.62a.931.931 0 01-.934-.884c-.459-7.145 8.982-26.94 9.392-27.776a.947.947 0 011.132-.213.95.95 0 01.507 1.033c-.098.196-9.622 20.188-9.212 26.825a.964.964 0 01-.046.369.96.96 0 01-.48.55.953.953 0 01-.359.096z" fill="#263238"/><path d="M207.88 344.117c-6.229 0-17.424-3.277-22.784-6.439-5.606-3.278-3.901-15.371-2.41-26.055.18-1.311.361-2.606.525-3.835.655-5.079.491-14.846.311-24.301-.197-11.159-.377-21.712.656-26.087 1.901-8.193 18.375-38.345 19.08-39.623a.911.911 0 01.558-.463.928.928 0 01.72.086.936.936 0 01.489.927.904.904 0 01-.112.351c-.164.312-17.047 31.299-18.899 39.148-.967 4.146-.771 15.075-.59 25.628.164 9.521.344 19.369-.328 24.58-.164 1.246-.344 2.54-.541 3.851-1.328 9.586-3 21.532 1.491 24.154 5.59 3.277 18.72 6.931 23.555 6.047 2.377-.427 10.442-2.753 14.95-14.584 3.671-9.619 4.688-41.442 4.688-44.752a21.302 21.302 0 00-2.705-5.424c-2.278-3.835-3.278-5.719-2.36-6.784.918-1.065 2.114-.262 2.606 0a27.566 27.566 0 015.721 3.834l1.114.869v-.279a55.346 55.346 0 00-1.245-3.883c-.787-2.311-1.23-3.589-.492-4.441a1.889 1.889 0 011.885-.443c2.491.492 3.852.312 4.917-.688 1.279-1.376 23.785-37.689 25.375-45.554 1.803-8.718 1.639-18.419-.344-21.598-2.328-3.72-5.147-7.489-5.18-7.521a.95.95 0 01.197-1.328.938.938 0 011.052-.068.935.935 0 01.275.249s2.902 3.867 5.262 7.652c2.606 4.179 2.262 14.961.606 22.941-1.655 7.981-24.636 45.178-26.046 46.587-1.836 1.836-4.213 1.639-6.557 1.213.194.812.44 1.612.738 2.392.377 1.098.852 2.458 1.278 4.015.328 1.229.574 2.474-.295 3.032-.868.557-1.95-.181-3.77-1.639a26.114 26.114 0 00-5.327-3.589h-.098a36.64 36.64 0 002.278 4.179c1.836 3.113 2.967 5.096 2.967 6.391 0 .327-.738 34.739-4.803 45.423-4.917 12.765-13.769 15.305-16.392 15.78a11.04 11.04 0 01-2.016.049z" fill="#263238"/><path d="M294.101 314.212c-.836 0-1.639 0-2.279-.098-3.934-.295-17.605-4.785-29.669-8.734-7.245-2.376-14.08-4.621-17.49-5.523a31.607 31.607 0 01-15.211-9.831.955.955 0 01-.175-1.109.945.945 0 011.003-.502.957.957 0 01.647.431 30.346 30.346 0 0014.212 9.16c3.475.917 10.343 3.162 17.604 5.555 11.376 3.72 25.522 8.373 29.227 8.652 5.54.426 14.933-.754 18.031-5.735 3.098-4.982 3.589-17.124 2.737-20.107l-.115-.409c-1.016-3.589-3.393-12.028-11.146-14.601-9.704-3.277-26.637-7.882-28.44-7.57-.377 0-.786 1.016-1.032 1.556-.377.852-.771 1.721-1.64 1.737-.868.017-1.442-.999-1.639-1.425a36.199 36.199 0 01-1.032-2.327c-.525-1.262-1.64-3.884-2.246-4.031-.782.72-1.49 1.516-2.115 2.376-1.508 1.933-2.524 3.277-3.671 2.802-1.148-.475-1.017-1.639-1.017-2.098.034-1.147.176-2.288.427-3.408.524-2.655.54-3.572-1.23-4.244-4.196-1.639-5.13-8.537-5.13-11.077a.95.95 0 111.901 0c0 1.638.672 8.095 3.901 9.307 3.229 1.213 2.885 3.982 2.426 6.375a19.08 19.08 0 00-.311 2.851c.41-.459.901-1.098 1.278-1.639a15.657 15.657 0 012.41-2.687 1.934 1.934 0 011.639-.361c1.508.41 2.426 2.606 3.492 5.129.295.705.59 1.409.868 2.016.443-.983 1.049-2.311 2.328-2.638 2.426-.59 23.096 5.489 29.505 7.619 8.688 2.901 11.36 12.339 12.359 15.895l.115.394c.984 3.408.623 16.026-2.95 21.646-3.393 5.293-11.999 6.653-17.572 6.653z" fill="#263238"/><ellipse cx="259.809" cy="264.643" rx=".82" ry=".819" fill="#263238"/><circle cx="270.464" cy="267.101" fill="#263238" r="1.639"/><circle cx="258.99" cy="263.824" fill="#263238" r="1.639"/><ellipse rx="1.233" ry="6.164" transform="rotate(26.486 -429.768 529.444) skewX(-.014)" fill="#263238"/></svg>